<svg width="38" height="56" fill="none" xmlns="http://www.w3.org/2000/svg"><path d="M19.005 0L.815 31.5h36.37L19.005 0z" fill="url(#paint0_linear_358_143)"/><path d="M4.09 45.64c-2.01 0-3.55-1.34-3.55-3.81 0-2.44 1.58-3.86 3.55-3.86 1.06 0 1.8.46 2.28.94l-.78.95c-.37-.35-.79-.62-1.45-.62-1.24 0-2.09.96-2.09 2.54 0 1.62.74 2.58 2.19 2.58.36 0 .72-.1.93-.27v-1.46H3.85v-1.21h2.64v3.33c-.5.5-1.38.89-2.4.89zm6.928 0c-1.97 0-3.31-1.46-3.31-3.87s1.34-3.8 3.31-3.8c1.96 0 3.3 1.4 3.3 3.8 0 2.41-1.34 3.87-3.3 3.87zm0-1.28c1.1 0 1.8-1.01 1.8-2.59 0-1.58-.7-2.53-1.8-2.53-1.11 0-1.8.95-1.8 2.53 0 1.58.69 2.59 1.8 2.59zm8.49 1.14v-6.17h-2.09V38.1h5.66v1.23h-2.09v6.17h-1.48zm7.36.14c-1.97 0-3.31-1.46-3.31-3.87s1.34-3.8 3.31-3.8c1.96 0 3.3 1.4 3.3 3.8 0 2.41-1.34 3.87-3.3 3.87zm0-1.28c1.1 0 1.8-1.01 1.8-2.59 0-1.58-.7-2.53-1.8-2.53-1.11 0-1.8.95-1.8 2.53 0 1.58.69 2.59 1.8 2.59zm4.755 1.14v-7.4h2.43c1.63 0 2.89.57 2.89 2.33 0 1.69-1.26 2.44-2.85 2.44h-.99v2.63h-1.48zm1.48-3.8h.89c1.02 0 1.51-.43 1.51-1.27 0-.87-.54-1.15-1.56-1.15h-.84v2.42z" fill="#ED1E79"/><defs><linearGradient id="paint0_linear_358_143" x1=".815" y1="15.75" x2="37.185" y2="15.75" gradientUnits="userSpaceOnUse"><stop stop-color="#FF00D1"/><stop offset="1" stop-color="#F7931E"/></linearGradient></defs></svg>