<svg width="136" height="136" fill="none" xmlns="http://www.w3.org/2000/svg"><g clip-path="url(#clip0_1_48)" fill="#000"><path d="M62.52 5.75L58.64.61l2.57-.17 2.22 3.38L65.3.17l2.45-.16-3.17 5.61.27 4-2.07.14-.27-4 .01-.01zm6.16-1.09c.07-.75.26-1.42.57-2 .31-.58.71-1.07 1.2-1.45.49-.38 1.05-.66 1.69-.83.64-.17 1.32-.22 2.05-.15.73.07 1.39.25 1.99.53.59.29 1.1.67 1.51 1.14.41.47.71 1.02.9 1.65.19.63.25 1.32.18 2.07-.07.75-.26 1.42-.57 2-.31.58-.71 1.07-1.2 1.45-.49.38-1.05.66-1.69.83-.64.17-1.32.22-2.05.15a6.02 6.02 0 01-1.99-.53c-.6-.28-1.1-.67-1.5-1.14-.41-.47-.71-1.02-.9-1.65-.19-.63-.25-1.32-.18-2.07h-.01zm2.14.2c-.04.44-.01.85.09 1.23.1.38.27.71.5 1.01.23.29.52.53.86.71.34.18.73.3 1.17.34.44.04.85 0 1.22-.11.37-.12.7-.3.98-.54.28-.24.51-.54.68-.9.17-.36.28-.75.32-1.19.04-.43 0-.84-.09-1.22a2.59 2.59 0 00-.5-1.01c-.23-.29-.52-.53-.86-.71-.34-.18-.73-.3-1.17-.34-.44-.04-.85 0-1.22.11-.37.12-.7.3-.98.54-.28.24-.51.54-.68.9-.17.36-.28.75-.32 1.18zm17.13 4.31c-.15.54-.36 1.01-.65 1.42-.29.41-.63.73-1.05.98-.42.25-.88.4-1.41.45-.53.06-1.11 0-1.73-.17-.63-.17-1.16-.42-1.59-.74a3.42 3.42 0 01-.98-1.11c-.23-.42-.36-.88-.4-1.38-.04-.5.02-1.01.16-1.55l1.53-5.57 2 .55-1.5 5.49c-.08.28-.1.55-.08.82.02.26.09.5.21.72a1.846 1.846 0 001.17.92 1.839 1.839 0 001.46-.2c.21-.13.39-.3.55-.52.15-.21.27-.46.35-.74l1.5-5.49 2 .55-1.53 5.57h-.01zm12.7 2.27c-.06-.31-.19-.6-.39-.86s-.47-.48-.81-.66c-.34-.18-.7-.29-1.06-.31-.36-.02-.72.03-1.06.15-.34.12-.66.32-.96.58-.3.26-.55.59-.75.97-.21.39-.34.78-.39 1.17-.05.39-.04.76.05 1.11.09.35.23.67.45.95.21.29.49.51.81.69.38.2.75.3 1.12.3.37 0 .73-.09 1.06-.27l.92 1.95c-.61.3-1.25.43-1.92.38-.66-.05-1.28-.23-1.85-.54-.65-.35-1.19-.77-1.63-1.26-.44-.49-.75-1.04-.95-1.63-.2-.59-.26-1.21-.2-1.87.06-.66.27-1.32.63-1.98.35-.66.79-1.21 1.3-1.62.51-.41 1.06-.71 1.67-.88.6-.17 1.23-.21 1.88-.12.65.09 1.31.31 1.95.65.23.12.47.28.7.46.23.18.44.38.64.6.2.23.37.48.51.75.14.28.24.58.3.9l-2.02.4v-.01zm7.12 1.82l1.37 1.03-2.4 9.96-1.86-1.41.55-2.08-2.91-2.2-1.82 1.12-1.82-1.38 8.9-5.05-.01.01zm-1.01 2.66l-2.67 1.64 1.83 1.38.84-3.03v.01zm7.25 2.33l1.93 2.05-2.02 7.38.02.02 4.76-4.47 1.42 1.51-6.85 6.43-1.85-1.97 2.07-7.57-.02-.02-4.88 4.58-1.42-1.51 6.85-6.43h-.01zm7.16 24.31c-.58-.38-1.09-.82-1.54-1.32-.45-.5-.84-1.06-1.18-1.66-.36-.64-.6-1.28-.7-1.94-.1-.66-.08-1.28.07-1.88.15-.6.43-1.17.84-1.69s.94-.96 1.59-1.33c.65-.37 1.31-.6 1.96-.68.65-.08 1.28-.03 1.88.15.6.18 1.15.48 1.65.91.5.43.94.96 1.3 1.6.37.65.63 1.3.79 1.94.15.64.16 1.28 0 1.91l-2.11-.49c.12-.39.15-.78.11-1.16-.04-.38-.2-.8-.46-1.27-.22-.38-.48-.7-.79-.93-.31-.24-.64-.4-1-.49-.36-.09-.74-.1-1.13-.04-.39.06-.77.2-1.15.42-.39.22-.7.48-.96.78-.25.3-.43.63-.54.98-.11.36-.14.73-.09 1.11.05.39.18.77.4 1.16.22.39.46.71.71.94.25.24.47.41.66.53l1.33-.75-.83-1.47 1.66-.94 1.81 3.2-4.27 2.42-.01-.01zm4.3-.4c.71-.25 1.39-.36 2.05-.32.66.04 1.27.2 1.82.48.55.28 1.04.68 1.46 1.19.42.51.75 1.11 1 1.8.24.69.36 1.37.35 2.03-.01.66-.15 1.28-.4 1.84-.26.57-.63 1.07-1.12 1.51-.49.44-1.09.79-1.8 1.03s-1.39.36-2.05.32c-.66-.04-1.27-.2-1.82-.48-.55-.28-1.04-.68-1.46-1.19-.42-.51-.75-1.11-1-1.8-.24-.69-.36-1.37-.35-2.03.01-.66.15-1.27.4-1.84.25-.57.63-1.07 1.12-1.51.49-.44 1.09-.78 1.8-1.03zm.71 2.03c-.42.15-.78.35-1.08.6-.3.25-.54.54-.71.87-.17.33-.27.69-.29 1.08-.02.39.04.79.19 1.21.15.42.35.77.61 1.06.26.29.56.51.9.66.34.15.71.23 1.1.24.39.01.8-.06 1.21-.21.41-.14.77-.34 1.07-.59.31-.25.54-.54.71-.88.17-.33.27-.69.29-1.08.02-.39-.04-.79-.18-1.21-.15-.42-.35-.77-.61-1.06-.26-.29-.56-.51-.9-.66-.34-.15-.71-.23-1.1-.24-.4 0-.8.06-1.21.21zm6.8 14.82l-.31-2.66 1.82-.21.87 7.38-1.82.21-.31-2.66-7.51.88-.24-2.06 7.51-.88h-.01zm-2.15 6c.75.03 1.43.18 2.03.45.6.27 1.11.64 1.52 1.11.41.47.72 1.01.93 1.64.21.63.3 1.31.27 2.04-.03.73-.17 1.41-.42 2.02-.25.61-.6 1.13-1.04 1.57-.45.44-.98.77-1.6 1-.62.23-1.3.33-2.06.31-.75-.03-1.43-.18-2.03-.45-.6-.27-1.11-.64-1.52-1.11-.41-.47-.72-1.01-.93-1.64-.21-.63-.3-1.31-.27-2.04.03-.73.17-1.41.42-2.02.25-.61.6-1.13 1.05-1.57.44-.44.98-.77 1.6-1 .62-.23 1.3-.33 2.06-.31h-.01zm-.08 2.15c-.44-.02-.85.04-1.22.16s-.7.31-.98.56c-.28.25-.5.55-.66.9-.16.35-.25.75-.27 1.19-.02.44.04.84.18 1.21a2.71 2.71 0 001.53 1.56c.36.15.76.23 1.21.25.43.02.84-.04 1.21-.16s.7-.31.98-.56c.28-.25.5-.55.66-.9.16-.35.25-.75.27-1.19.02-.44-.05-.84-.18-1.21a2.704 2.704 0 00-1.54-1.56c-.37-.15-.77-.23-1.2-.25h.01zm.94 16.27l.68-2.59 1.77.46-1.87 7.19-1.77-.46.68-2.59-7.32-1.91.52-2 7.32 1.91-.01-.01zm-.07 7.06l-.81 1.91-3.22-1.37-1.57 3.7 3.22 1.37-.81 1.91-8.65-3.68.81-1.9 3.74 1.59 1.57-3.7-3.74-1.59.81-1.91 8.65 3.68v-.01zm-4.69 10.23l-3.36 5.42-1.62-1.01 2.27-3.67-1.49-.92-2.15 3.46-1.62-1.01 2.15-3.46-1.62-1.01-2.4 3.87-1.62-1.01 3.49-5.63 7.99 4.95-.02.02zm-7.88 11.48l-2.23 2.2-5.85-2.84-.02.02 2.76 5.89-2.22 2.19-6.6-6.69 1.47-1.46 5.06 5.13.02-.02-3.31-6.86 1.12-1.11 6.75 3.46.02-.02-5.06-5.13 1.47-1.46 6.6 6.69.02.01zm-12.35 5.3c.42.63.69 1.26.81 1.91.12.65.12 1.28-.02 1.88-.14.61-.4 1.18-.79 1.71s-.89 1-1.5 1.41c-.61.41-1.24.68-1.88.83-.64.15-1.27.17-1.88.06a4.54 4.54 0 01-1.74-.72c-.55-.37-1.03-.87-1.44-1.49-.42-.63-.69-1.26-.81-1.91a4.57 4.57 0 01.02-1.88c.14-.61.4-1.18.79-1.71s.89-1 1.5-1.41c.61-.41 1.24-.68 1.88-.83.64-.15 1.27-.17 1.88-.06.61.11 1.19.35 1.74.72s1.03.87 1.44 1.5v-.01zm-1.79 1.19c-.24-.37-.52-.67-.84-.9-.32-.23-.66-.39-1.02-.47a2.81 2.81 0 00-1.12-.02c-.38.07-.76.23-1.13.48-.37.24-.66.53-.88.85-.22.32-.36.67-.42 1.04s-.05.74.04 1.12c.09.38.25.76.5 1.13.24.36.52.66.84.89.32.23.66.39 1.02.48.36.08.73.09 1.12.02.38-.07.76-.23 1.12-.47.37-.25.66-.53.88-.85.22-.32.36-.67.42-1.04s.05-.74-.04-1.13c-.09-.39-.26-.76-.5-1.12l.01-.01zm-16.06 7.42c-.22-.51-.35-1.01-.38-1.51-.03-.5.03-.97.2-1.42.17-.45.44-.86.81-1.24.37-.38.86-.69 1.45-.95.6-.26 1.17-.4 1.7-.42.53-.02 1.02.06 1.46.25.44.18.83.46 1.18.82.35.36.62.8.85 1.31l2.31 5.29-1.9.83-2.28-5.22c-.12-.27-.27-.5-.45-.69a1.871 1.871 0 00-1.34-.58c-.25 0-.51.06-.76.17-.25.11-.46.26-.63.44a1.846 1.846 0 00-.48 1.38c.01.26.08.53.2.8l2.28 5.22-1.9.83-2.31-5.29-.01-.02zm-.67 6.34l-2.73.67-5.43-5.39h-.03l1.55 6.35-2.01.49-2.23-9.13 2.63-.64 5.57 5.52h.03l-1.59-6.5 2.01-.49 2.23 9.13v-.01zm-13.62.81l2.67-.23.16 1.82-7.4.65-.16-1.82 2.67-.23-.66-7.54 2.06-.18.66 7.54v-.01zm-9.74 2.12l-1.71-.09-3.56-9.61 2.33.13.7 2.03 3.64.2.89-1.94 2.28.13-4.58 9.16.01-.01zm-.64-2.77l1.3-2.85-2.29-.13.99 2.98zm-6.85 2.03l-2.04-.35 1.58-9.26 2.04.35-1.58 9.26zm-4.78-.77l-2.69-.81-1.95-7.4h-.03L46 131.91l-1.98-.59 2.7-9 2.59.78 2.01 7.58h.03l1.92-6.4 1.98.59-2.7 9zm-16.01-8.11l2.34 1.31-.89 1.6-6.48-3.63.9-1.6 2.34 1.31 3.7-6.6 1.81 1.01-3.7 6.6h-.02zm-3.59-5.26a5.32 5.32 0 01-1.56 1.38c-.58.33-1.17.52-1.79.58-.62.06-1.24-.01-1.87-.21-.63-.2-1.23-.53-1.81-.98-.58-.45-1.04-.96-1.38-1.52-.35-.56-.56-1.15-.65-1.77-.09-.62-.05-1.24.13-1.88.18-.64.5-1.25.96-1.84.46-.59.98-1.05 1.56-1.38.58-.32 1.17-.52 1.79-.58.62-.06 1.25.01 1.87.21.63.2 1.23.53 1.81.98.58.45 1.04.96 1.39 1.52.35.56.56 1.15.65 1.77.09.62.05 1.24-.13 1.88-.18.64-.5 1.25-.96 1.84h-.01zm-1.69-1.33c.27-.35.47-.71.59-1.08.12-.37.16-.75.12-1.12-.04-.37-.15-.73-.34-1.06-.19-.34-.46-.65-.81-.92-.35-.27-.71-.46-1.08-.56-.37-.1-.75-.13-1.11-.07-.37.05-.72.18-1.05.39-.33.2-.64.48-.91.83-.27.34-.46.7-.58 1.08-.12.38-.16.75-.13 1.12.04.37.15.73.34 1.07.19.34.46.65.81.92.35.27.71.46 1.08.56.37.1.75.13 1.11.07.37-.05.72-.18 1.06-.39.34-.21.64-.48.91-.82l-.01-.02zm-10.98-3.08l-2.37-2.56c-.33-.36-.61-.72-.84-1.1-.23-.38-.37-.76-.43-1.14-.06-.38-.02-.77.12-1.16.14-.39.42-.77.82-1.15.4-.37.8-.62 1.19-.74.39-.12.78-.14 1.15-.07.37.07.74.24 1.09.49.36.25.7.55 1.04.92l1.03 1.11 2.69-2.49 1.41 1.52-6.9 6.38v-.01zm1.52-4.22l-.94-1.01c-.13-.14-.26-.26-.4-.36-.14-.1-.29-.18-.45-.22a.87.87 0 00-.48 0c-.16.04-.33.13-.49.28-.17.16-.28.33-.31.51-.03.18-.02.36.04.54.06.18.15.36.28.53.13.17.26.33.39.47l.72.78 1.64-1.51v-.01zm-10.11-5.63l-1.09-1.98 4.55-4.22v-.02l-6.24 1.19-.93-1.69 4.47-4.69v-.02l-6.19 1.6-1.01-1.84 9.55-2.13.89 1.62-4.7 4.95v.02l6.71-1.33.86 1.56-6.88 6.98h.01zM4.8 92.63l-.73-1.94 8.79-3.32.73 1.94-8.79 3.32zm-.31-6.61l.7 2.59-1.77.48-1.94-7.17 1.77-.48.7 2.59 7.3-1.98.54 2-7.3 1.98v-.01zm-3.44-6.18l-.24-2.06 3.48-.41-.47-3.99-3.48.41-.24-2.06 9.33-1.1.24 2.06-4.03.48.47 3.99 4.03-.48.24 2.06-9.33 1.1zM0 64.08l.41-3.1 6.36-1.34v-.03L.98 56.65l.41-3.09 9.31 1.24-.27 2.05-7.14-.95v.03l6.82 3.39-.21 1.57-7.46 1.41v.03l7.14.95-.27 2.05L0 64.09v-.01zm3.21-16.61l.53-1.63 10.2-.95-.73 2.22-2.14.15-1.14 3.47 1.65 1.37-.71 2.17-7.66-6.79v-.01zm2.85.1l2.42 2 .72-2.18-3.13.18h-.01zm-.56-6.7l1.08-2.1 6.54.77v-.02l-4.37-4.93 1.02-1.97 6.56 7.76-.76 1.47-10.07-.98zm5.49-10.02l3.73-5.18 1.55 1.12-2.52 3.5 1.42 1.02L17.55 28l1.55 1.12-2.38 3.31 1.55 1.12 2.66-3.69 1.55 1.12-3.87 5.37-7.62-5.49v-.01zm5.59-7.42l2.51-2.63c.33-.35.68-.64 1.04-.89s.74-.41 1.12-.49c.38-.08.77-.07 1.17.05.4.12.79.36 1.19.74.48.46.77.97.86 1.54.09.57-.04 1.14-.41 1.7l4.52 1.02-1.72 1.79-4.07-1.18-.71.74 2.71 2.6-1.43 1.5-6.79-6.5.01.01zm4.24 1.19l.84-.88c.13-.13.26-.28.39-.44.13-.16.24-.32.3-.49.06-.17.09-.34.06-.52s-.13-.36-.32-.53c-.17-.17-.34-.26-.51-.29-.17-.03-.33-.01-.49.04-.16.06-.31.15-.47.27-.15.12-.29.25-.42.38l-.94.98 1.54 1.48h.02zm2.37-7.73l1.58-1.34 6.08 7.16-1.58 1.34-6.08-7.16zm10.05-4.48c-.31-.09-.62-.11-.94-.05-.32.06-.64.2-.96.41-.32.22-.58.48-.77.79-.19.31-.31.65-.36 1.01-.05.36-.03.73.07 1.12.1.38.27.76.51 1.11.25.37.53.66.85.89.32.23.65.38 1 .47a2.486 2.486 0 002.04-.35c.35-.24.61-.52.78-.85.17-.33.26-.69.25-1.07l2.15.09c-.02.68-.2 1.31-.56 1.87-.36.56-.8 1.03-1.33 1.39-.61.41-1.23.7-1.87.86-.64.16-1.27.19-1.88.09-.61-.1-1.2-.33-1.75-.7-.55-.37-1.04-.86-1.46-1.48-.42-.62-.7-1.26-.84-1.9a4.26 4.26 0 010-1.88c.14-.61.39-1.18.77-1.72s.88-1.01 1.49-1.43c.22-.15.46-.28.73-.41.27-.12.54-.22.83-.29.29-.07.59-.1.9-.1.31 0 .62.05.94.15l-.58 1.97-.01.01zm2.2-4.17l1.87-.89 1.67 3.53 1.63-5.09 2.45-1.16-1.91 5.74 6.25 2.6-2.62 1.24-5.36-2.4 1.91 4.03-1.87.89-4.02-8.49z"/><path d="M50.17 4.82a1.48 1.48 0 00-.79-.25c-.31-.01-.58.02-.83.09a2.019 2.019 0 00-.81.48c-.11.11-.19.24-.24.39-.05.14-.05.3 0 .47.08.27.25.45.5.53.25.08.54.12.88.13h1.09c.39 0 .76.03 1.13.12.37.09.7.26 1 .51.3.25.53.64.69 1.16.15.5.2.96.12 1.39-.07.43-.23.82-.47 1.16-.24.34-.55.64-.94.89-.38.25-.81.44-1.27.59-.58.18-1.15.26-1.71.23s-1.11-.17-1.66-.43l.93-1.98c.29.21.61.34.96.39.35.05.7.03 1.03-.07.16-.05.32-.12.47-.21.15-.09.28-.19.39-.31.11-.12.18-.25.23-.39.04-.14.04-.29 0-.46a.77.77 0 00-.51-.54c-.26-.09-.56-.15-.9-.16-.35-.01-.72-.02-1.12-.02-.4 0-.78-.04-1.15-.13a2.46 2.46 0 01-1.01-.5c-.3-.24-.53-.61-.68-1.11a2.92 2.92 0 01-.11-1.36c.08-.42.24-.8.48-1.15.24-.34.55-.64.93-.89s.78-.44 1.22-.58c.51-.16 1.02-.24 1.54-.24s1.02.11 1.5.33l-.9 1.9.01.02z"/></g><defs><clipPath id="clip0_1_48"><path fill="#fff" d="M0 0h135.59v135.5H0z"/></clipPath></defs></svg>