<svg width="109" height="109" fill="none" xmlns="http://www.w3.org/2000/svg"><g clip-path="url(#clip0_1_86)"><path d="M54.56 107.25c29.376 0 53.19-23.814 53.19-53.19C107.75 24.684 83.936.87 54.56.87 25.184.87 1.37 24.684 1.37 54.06c0 29.376 23.814 53.19 53.19 53.19z" fill="#000"/><path d="M54.75 1.03c1.21.01 2.42.06 3.61.15l-.32 3.54a51.08 51.08 0 00-3.3-.14V1.03h.01zm4.63.24c1.19.11 2.38.27 3.57.46l-.62 3.5c-1.08-.18-2.17-.32-3.27-.43l.33-3.53h-.01zm4.57.64c1.2.21 2.37.47 3.53.77l-.93 3.43c-1.06-.27-2.13-.51-3.22-.71l.62-3.49zm4.52 1.02c1.16.32 2.31.69 3.44 1.08l-1.22 3.34c-1.04-.36-2.09-.7-3.15-.99l.92-3.43h.01zm7.74 2.81l-1.5 3.22c-1.01-.45-2.03-.87-3.06-1.25l1.22-3.34c1.12.42 2.24.88 3.34 1.37zm4.12 2.1l-1.78 3.08c-.96-.54-1.93-1.05-2.93-1.52l1.5-3.22c1.09.52 2.15 1.07 3.21 1.67m3.93 2.46l-2.03 2.9c-.92-.62-1.84-1.21-2.79-1.77l1.77-3.08c1.05.61 2.05 1.26 3.05 1.95zm3.71 2.78l-2.28 2.72c-.86-.7-1.73-1.37-2.62-2l2.03-2.91c.98.7 1.94 1.42 2.87 2.2m3.44 3.09L88.9 18.7c-.78-.77-1.59-1.52-2.43-2.23l2.28-2.72c.91.78 1.8 1.59 2.66 2.44zm3.18 3.37l-2.72 2.28c-.72-.83-1.47-1.64-2.25-2.42l2.52-2.51c.85.86 1.67 1.74 2.45 2.65zm2.87 3.63l-2.91 2.04a50.49 50.49 0 00-2.02-2.61l2.72-2.29c.78.93 1.51 1.88 2.22 2.86m2.54 3.87l-3.08 1.78c-.57-.95-1.16-1.87-1.78-2.78l2.9-2.04c.69.99 1.34 2 1.96 3.03m2.19 4.08l-3.22 1.5c-.48-.99-.99-1.96-1.54-2.93l3.08-1.78c.6 1.05 1.16 2.12 1.68 3.2m1.83 4.25l-3.33 1.22a40.97 40.97 0 00-1.29-3.05l3.22-1.51c.5 1.1.97 2.21 1.39 3.34m1.46 4.4l-3.43.92c-.3-1.06-.64-2.1-1.01-3.15l3.34-1.22c.4 1.14.77 2.28 1.1 3.44m1.05 4.5l-3.5.63c-.2-1.08-.45-2.16-.72-3.22l3.43-.93c.3 1.17.57 2.34.8 3.52m.65 4.59l-3.53.32c-.11-1.1-.27-2.19-.44-3.27l3.49-.62c.2 1.18.37 2.37.48 3.57zm.26 4.62h-3.55c-.02-1.1-.07-2.19-.16-3.28l3.53-.32c.1 1.2.15 2.4.17 3.6m-.13 4.63l-3.54-.3c.07-1.09.12-2.2.12-3.3h3.56c0 1.2-.05 2.4-.14 3.6zm-.54 4.6l-3.49-.61c.17-1.08.31-2.18.4-3.28l3.53.3c-.1 1.2-.25 2.39-.45 3.58m-.91 4.54l-3.44-.91c.27-1.06.51-2.14.7-3.23l3.5.6a52.98 52.98 0 01-.75 3.54m-1.33 4.43l-3.34-1.2c.36-1.04.68-2.09.97-3.15l3.44.9c-.32 1.17-.67 2.32-1.08 3.45m-1.7 4.31l-3.22-1.49c.44-1.01.86-2.03 1.24-3.06l3.34 1.2c-.41 1.13-.87 2.25-1.36 3.35zm-2.07 4.13l-3.09-1.77c.54-.96 1.05-1.94 1.52-2.93l3.22 1.49c-.51 1.08-1.06 2.15-1.65 3.21zm-2.44 3.94l-2.91-2.02c.62-.91 1.2-1.84 1.75-2.79l3.09 1.76c-.61 1.04-1.26 2.06-1.93 3.06m-2.76 3.72l-2.73-2.27c.7-.86 1.36-1.74 2-2.63l2.91 2.02c-.7.98-1.42 1.94-2.18 2.88zm-3.08 3.45l-2.52-2.49c.76-.8 1.5-1.61 2.21-2.45l2.72 2.27c-.77.92-1.58 1.81-2.42 2.68m-3.35 3.19l-2.3-2.71c.83-.72 1.63-1.47 2.42-2.25l2.53 2.5c-.86.86-1.74 1.67-2.65 2.46zM85.5 97.3l-2.06-2.9c.89-.65 1.75-1.33 2.59-2.04l2.31 2.71c-.93.77-1.87 1.52-2.84 2.22m-3.87 2.57l-1.8-3.07c.95-.57 1.87-1.17 2.77-1.8l2.06 2.9c-.99.7-2 1.35-3.04 1.98m-4.06 2.21l-1.52-3.21c.99-.48 1.96-1 2.91-1.55l1.79 3.06c-1.05.61-2.11 1.17-3.18 1.7zm-4.25 1.85l-1.23-3.32c1.03-.4 2.03-.83 3.04-1.3l1.52 3.21c-1.09.51-2.21.98-3.33 1.41zm-4.38 1.46l-.95-3.42c1.07-.3 2.11-.64 3.15-1.02l1.24 3.33c-1.14.4-2.27.78-3.43 1.11m-4.51 1.09l-.65-3.5c1.09-.21 2.16-.46 3.22-.74l.95 3.43c-1.16.31-2.33.58-3.52.81zm-4.58.68l-.33-3.54c1.09-.11 2.19-.27 3.27-.45l.64 3.5c-1.18.2-2.38.36-3.58.49zm-4.62.29l-.02-3.56c1.11-.02 2.19-.07 3.29-.17l.33 3.53c-1.2.11-2.4.17-3.6.19m-1.03.01c-1.21 0-2.41-.05-3.6-.13l.28-3.54c1.09.07 2.19.11 3.31.11l.02 3.55h-.01m-4.62-.2c-1.2-.1-2.4-.24-3.58-.42l.58-3.5c1.08.16 2.18.29 3.28.39l-.29 3.54.01-.01zm-4.59-.59c-1.19-.2-2.36-.46-3.53-.74l.89-3.44c1.06.25 2.14.49 3.23.68l-.59 3.5zm-4.52-.99c-1.17-.3-2.32-.65-3.45-1.04l1.17-3.35c1.05.36 2.1.68 3.17.96l-.89 3.44v-.01zm-7.77-2.72l1.47-3.23c1.01.44 2.03.85 3.06 1.23l-1.18 3.35c-1.14-.41-2.26-.86-3.35-1.35zm-4.15-2.05l1.74-3.1c.97.54 1.95 1.04 2.94 1.5l-1.47 3.24c-1.09-.51-2.16-1.06-3.22-1.64m-3.96-2.41l2.01-2.93c.92.61 1.86 1.19 2.8 1.74l-1.74 3.09c-1.05-.6-2.06-1.24-3.07-1.91m-3.72-2.75l2.25-2.75c.86.69 1.75 1.36 2.64 1.99l-2 2.93a51.6 51.6 0 01-2.88-2.17m-3.49-3.06l2.49-2.53c.8.77 1.62 1.49 2.46 2.2l-2.25 2.75c-.92-.77-1.81-1.58-2.69-2.41m-.83-.82c-.81-.82-1.6-1.66-2.35-2.53l2.69-2.31c.7.8 1.43 1.58 2.18 2.33.04.02.05.05.08.08l-2.49 2.54-.11-.11zm-5.27-6.13l2.88-2.07c.65.88 1.34 1.74 2.05 2.59l-2.69 2.31c-.77-.92-1.52-1.86-2.24-2.82m-2.58-3.84l3.06-1.81c.57.94 1.18 1.86 1.81 2.76L10.7 84.9c-.7-.98-1.36-1.99-1.99-3.01zm-2.24-4.06l3.21-1.53c.49.98 1.01 1.95 1.56 2.9l-3.05 1.81c-.62-1.05-1.19-2.1-1.72-3.18zM4.6 73.6l3.33-1.25c.39 1.02.83 2.04 1.3 3.03l-3.21 1.54c-.52-1.09-.99-2.2-1.43-3.32M3.1 69.22l3.42-.96c.31 1.06.66 2.1 1.04 3.13l-3.33 1.25c-.42-1.13-.79-2.27-1.13-3.43m-1.11-4.5l3.5-.65c.2 1.08.47 2.15.75 3.21l-3.42.96c-.31-1.16-.59-2.33-.83-3.52zm-.7-4.57l3.53-.36c.12 1.11.28 2.19.48 3.27l-3.5.66c-.21-1.18-.37-2.37-.51-3.57zm-.31-4.62l3.56-.05c.02 1.11.09 2.21.19 3.3l-3.53.36c-.1-1.19-.18-2.4-.21-3.6m-.01-1.3c0-1.12.04-2.23.11-3.33l3.54.26c-.06 1.02-.09 2.04-.09 3.07v.23l-3.55.05v-.28m.58-7.93l3.51.57c-.17 1.09-.29 2.18-.37 3.28l-3.54-.27c.1-1.2.23-2.4.4-3.59m.88-4.54l3.45.87a48.91 48.91 0 00-.67 3.24l-3.5-.57c.2-1.19.45-2.37.72-3.54zm1.28-4.46l3.35 1.17c-.35 1.04-.66 2.1-.94 3.17l-3.44-.87c.3-1.17.64-2.32 1.03-3.47zm1.65-4.32l3.25 1.46c-.43 1.01-.85 2.03-1.21 3.07l-3.36-1.17c.4-1.14.85-2.25 1.33-3.36m2.04-4.16l3.09 1.74c-.52.97-1.01 1.95-1.47 2.96l-3.24-1.46c.51-1.09 1.04-2.17 1.62-3.23m2.39-3.96l2.94 1.99c-.61.92-1.19 1.86-1.74 2.81l-3.1-1.73c.6-1.05 1.22-2.07 1.89-3.07m2.73-3.74l2.76 2.24c-.7.87-1.35 1.75-1.97 2.65l-2.94-2c.68-.98 1.4-1.95 2.15-2.89zm3.03-3.49l2.55 2.47c-.76.8-1.49 1.63-2.18 2.47l-2.75-2.25c.76-.92 1.56-1.82 2.39-2.69m1-1.03c.77-.75 1.53-1.49 2.34-2.19l2.33 2.68c-.73.65-1.45 1.32-2.15 2.02-.08.08-.16.17-.25.25l-2.55-2.47c.09-.1.19-.2.28-.29zm5.91-5.12l2.09 2.88c-.89.65-1.74 1.34-2.58 2.06l-2.33-2.69c.92-.79 1.86-1.54 2.81-2.26m3.84-2.6l1.83 3.05c-.93.58-1.86 1.19-2.75 1.83l-2.09-2.87c.99-.7 1.99-1.37 3.01-2m4.04-2.25l1.55 3.19c-.98.5-1.95 1.03-2.9 1.58l-1.83-3.05c1.04-.61 2.09-1.19 3.17-1.73m4.22-1.89l1.27 3.32c-1.02.41-2.03.84-3.02 1.31l-1.56-3.19c1.09-.52 2.19-1 3.31-1.45m4.38-1.52l.97 3.41c-1.05.32-2.1.67-3.13 1.06l-1.26-3.32c1.12-.42 2.27-.81 3.43-1.15m4.48-1.12l.68 3.48c-1.08.22-2.15.48-3.21.77l-.99-3.41c1.16-.32 2.34-.6 3.52-.84zm4.57-.73l.36 3.54c-1.09.12-2.18.29-3.27.49l-.68-3.49c1.18-.21 2.37-.4 3.58-.53m5.67-.35v3.55c-1.44.01-2.87.08-4.29.22L49 1.25c1.55-.14 3.1-.23 4.66-.24m-5.79 49.38l-4.67-9.41 10.25-20.3 3.16 16.43-8.74 13.28zm31.6 13.37l-4.68-11.3 8.81-16.62-4.13 27.92zM67.49 34.84l3.35-7.55 2.31 21.2-5.66-13.65zm11.6 30.64H54.28l9.54-36.83 15.27 36.83zm-71.65 0l27.43-37.82 3.04 37.82H7.44zm86.78 3.94c-2.61 0-3.9.82-5.16 1.61-1.2.74-2.32 1.46-4.66 1.46-2.34 0-3.46-.71-4.65-1.46-1.27-.78-2.56-1.61-5.17-1.61h-.55c-2.6 0-3.9.82-5.16 1.61-1.2.74-2.32 1.46-4.65 1.46-2.33 0-3.45-.71-4.65-1.46-1.26-.78-2.56-1.61-5.16-1.61h-.53c-2.61 0-3.91.82-5.16 1.61-1.2.74-2.33 1.46-4.66 1.46s-3.45-.71-4.65-1.46c-1.26-.78-2.56-1.61-5.16-1.61h-.59c-2.61 0-3.91.82-5.16 1.61-1.19.74-2.32 1.46-4.66 1.46-2.34 0-3.46-.71-4.65-1.46-1.25-.78-2.56-1.61-5.16-1.61s-4.55.79-5.51 1.6c-.55-1.48-1.02-2.98-1.41-4.51h94.14c-.4 1.52-.87 3.01-1.4 4.46-1.03-.77-2.79-1.55-5.63-1.55zm0 5.25c-2.61 0-3.9.82-5.16 1.61-1.2.74-2.32 1.45-4.66 1.45-2.34 0-3.46-.71-4.65-1.45-1.27-.79-2.56-1.61-5.17-1.61h-.55c-2.6 0-3.9.82-5.16 1.61-1.2.74-2.32 1.45-4.65 1.45-2.33 0-3.45-.71-4.65-1.45-1.26-.79-2.56-1.61-5.16-1.61h-.53c-2.61 0-3.91.82-5.16 1.61-1.2.74-2.33 1.45-4.66 1.45s-3.45-.71-4.65-1.45c-1.26-.79-2.56-1.61-5.16-1.61h-.59c-2.61 0-3.91.82-5.16 1.61-1.19.74-2.32 1.45-4.66 1.45-2.34 0-3.46-.71-4.65-1.45-1.25-.79-2.56-1.61-5.16-1.61-1.4 0-2.64.2-3.71.6-.51-1.05-.99-2.12-1.41-3.21.55-.63 2.16-1.6 5.12-1.6 2.31 0 3.43.7 4.63 1.44 1.25.79 2.55 1.61 5.18 1.61s3.94-.82 5.19-1.61c1.19-.74 2.31-1.44 4.63-1.44h.59c2.31 0 3.43.7 4.62 1.44 1.26.79 2.57 1.61 5.19 1.61 2.62 0 3.93-.82 5.2-1.61 1.19-.74 2.31-1.44 4.63-1.44h.53c2.3 0 3.43.7 4.62 1.44 1.26.79 2.57 1.61 5.19 1.61 2.62 0 3.93-.82 5.2-1.61 1.18-.74 2.3-1.44 4.62-1.44h.55c2.32 0 3.43.7 4.63 1.44 1.26.79 2.57 1.61 5.19 1.61 2.62 0 3.94-.82 5.2-1.61 1.18-.74 2.31-1.44 4.62-1.44 2.82 0 4.39.8 5.25 1.52-.45 1.12-.92 2.21-1.44 3.29-1.09-.39-2.37-.59-3.81-.59m0 5.44c-2.61 0-3.9.82-5.16 1.6-1.2.75-2.32 1.45-4.66 1.45-2.34 0-3.46-.7-4.65-1.45-1.27-.78-2.56-1.6-5.17-1.6h-.55c-2.6 0-3.9.82-5.16 1.6-1.2.75-2.32 1.45-4.65 1.45-2.33 0-3.45-.7-4.65-1.45-1.26-.78-2.56-1.6-5.16-1.6h-.53c-2.61 0-3.91.82-5.16 1.6-1.2.75-2.33 1.45-4.66 1.45s-3.45-.7-4.65-1.45c-1.26-.78-2.56-1.6-5.16-1.6h-.59c-2.61 0-3.91.82-5.16 1.6-1.19.75-2.32 1.45-4.66 1.45-2.34 0-3.46-.7-4.65-1.45-1.25-.78-2.56-1.6-5.16-1.6-.34 0-.68.01-1 .04a50.1 50.1 0 01-2.26-3.97c.93-.33 2.04-.49 3.26-.49 2.31 0 3.43.7 4.63 1.44 1.25.8 2.55 1.61 5.18 1.61s3.94-.82 5.19-1.61c1.19-.74 2.31-1.44 4.63-1.44h.59c2.31 0 3.43.7 4.62 1.44 1.26.8 2.57 1.61 5.19 1.61 2.62 0 3.93-.82 5.2-1.61 1.19-.74 2.31-1.44 4.63-1.44h.53c2.3 0 3.43.7 4.62 1.44 1.26.8 2.57 1.61 5.19 1.61 2.62 0 3.93-.82 5.2-1.61 1.18-.74 2.3-1.44 4.62-1.44h.55c2.32 0 3.43.7 4.63 1.44 1.26.8 2.57 1.61 5.19 1.61 2.62 0 3.94-.82 5.2-1.61 1.18-.74 2.31-1.44 4.62-1.44 1.27 0 2.4.17 3.36.49-.7 1.36-1.45 2.69-2.27 3.97-.35-.02-.72-.04-1.09-.04m-9.78 8.35c-2.33 0-3.46-.71-4.65-1.45-1.26-.79-2.56-1.61-5.16-1.61h-.56c-2.6 0-3.9.81-5.15 1.61-1.2.74-2.33 1.45-4.66 1.45s-3.46-.71-4.65-1.45c-1.26-.79-2.56-1.61-5.16-1.61h-.52c-2.6 0-3.91.81-5.17 1.61-1.19.74-2.31 1.45-4.65 1.45-2.34 0-3.47-.71-4.65-1.45-1.26-.79-2.56-1.61-5.16-1.61h-.6c-2.6 0-3.9.81-5.16 1.61-1.19.74-2.33 1.45-4.65 1.45-2.32 0-3.46-.71-4.66-1.45-.57-.35-1.15-.72-1.86-1.01a47.972 47.972 0 01-3.7-4.87h.36c2.31 0 3.43.7 4.63 1.44 1.25.8 2.55 1.61 5.18 1.61s3.94-.82 5.19-1.61c1.19-.74 2.31-1.44 4.63-1.44h.59c2.31 0 3.43.7 4.62 1.44 1.26.8 2.57 1.61 5.19 1.61 2.62 0 3.93-.82 5.2-1.61 1.19-.74 2.31-1.44 4.63-1.44h.53c2.3 0 3.43.7 4.62 1.44 1.26.8 2.57 1.61 5.19 1.61 2.62 0 3.93-.82 5.2-1.61 1.18-.74 2.3-1.44 4.62-1.44h.55c2.32 0 3.43.7 4.63 1.44 1.26.8 2.57 1.61 5.19 1.61 2.62 0 3.94-.82 5.2-1.61 1.18-.74 2.31-1.44 4.62-1.44h.45a48.66 48.66 0 01-3.65 4.81c-.08.04-.17.09-.26.14-.62.27-1.15.61-1.66.92-1.2.74-2.33 1.45-4.66 1.45m-7.68 8.84a48.399 48.399 0 01-22.58 5.57c-8.15 0-15.86-2.02-22.62-5.59.64-.16 1.31-.24 2.1-.24h.59c2.31 0 3.43.7 4.62 1.45 1.26.79 2.57 1.61 5.19 1.61 2.62 0 3.93-.82 5.2-1.61 1.19-.74 2.31-1.45 4.63-1.45h.53c2.3 0 3.43.7 4.62 1.45 1.26.79 2.57 1.61 5.19 1.61 2.62 0 3.93-.82 5.2-1.61 1.18-.74 2.3-1.45 4.62-1.45h.55c.8 0 1.51.09 2.17.27m-2.17-1.29h-.55c-2.6 0-3.9.82-5.16 1.61-1.2.74-2.32 1.45-4.65 1.45-2.33 0-3.45-.71-4.65-1.45-1.26-.79-2.56-1.61-5.16-1.61h-.53c-2.61 0-3.91.82-5.16 1.61-1.2.74-2.33 1.45-4.66 1.45s-3.45-.71-4.65-1.45c-1.26-.79-2.56-1.61-5.16-1.61h-.59c-1.23 0-2.24.17-3.19.55l-.14.04a46.62 46.62 0 01-3.65-2.28c.95-.32 1.66-.76 2.36-1.2 1.19-.74 2.31-1.44 4.63-1.44h.59c2.31 0 3.43.7 4.62 1.44 1.26.79 2.57 1.61 5.19 1.61 2.62 0 3.93-.82 5.2-1.61 1.19-.74 2.31-1.44 4.63-1.44h.53c2.3 0 3.43.7 4.62 1.44 1.26.79 2.57 1.61 5.19 1.61 2.62 0 3.93-.82 5.2-1.61 1.18-.74 2.3-1.44 4.62-1.44h.55c2.32 0 3.43.7 4.63 1.44.71.45 1.45.9 2.43 1.22a53.86 53.86 0 01-3.68 2.3c-1.01-.43-2.08-.62-3.38-.62m5.17-3.75c-1.27-.78-2.56-1.61-5.17-1.61h-.55c-2.6 0-3.9.82-5.16 1.61-1.2.75-2.32 1.45-4.65 1.45-2.33 0-3.45-.7-4.65-1.45-1.26-.78-2.56-1.61-5.16-1.61h-.53c-2.61 0-3.91.82-5.16 1.61-1.2.75-2.33 1.45-4.66 1.45s-3.45-.7-4.65-1.45c-1.26-.78-2.56-1.61-5.16-1.61h-.59c-2.61 0-3.91.82-5.16 1.61-.86.54-1.67 1.04-2.9 1.29a49.453 49.453 0 01-5.97-5.12c1.03.57 2.27 1.04 4.26 1.04 2.62 0 3.93-.81 5.19-1.61 1.18-.74 2.31-1.44 4.62-1.44h.6c2.3 0 3.43.7 4.61 1.44 1.27.79 2.57 1.61 5.19 1.61 2.62 0 3.93-.81 5.19-1.61 1.18-.74 2.31-1.44 4.63-1.44h.52c2.31 0 3.43.7 4.62 1.44 1.26.79 2.56 1.61 5.19 1.61 2.63 0 3.94-.81 5.19-1.61 1.19-.74 2.32-1.44 4.62-1.44h.56c2.3 0 3.43.7 4.62 1.44 1.26.79 2.56 1.61 5.19 1.61 2.03 0 3.26-.49 4.31-1.07a48.242 48.242 0 01-6.1 5.23l.02-.08c-1.25-.25-2.06-.76-2.91-1.3m23.07-38.04c0 3.62-.4 7.15-1.15 10.55L85.11 32.77s-.02-.05-.04-.06c-.01 0-.01 0-.02-.01-.01-.02-.03-.04-.04-.05-.01 0-.01-.01-.02-.01-.02-.02-.05-.04-.07-.06h-.01s-.05-.02-.08-.04h-.02s-.06-.02-.08-.02h-.12s-.05 0-.07.01h-.02a.16.16 0 00-.08.03h-.02a.21.21 0 00-.06.04s0 .01-.01.01c-.02.02-.05.04-.07.06v.02c-.02.02-.03.04-.05.05 0 .01 0 .02-.01.03l-3.63 6.85-8.89-14.5s-.03-.04-.04-.06c-.02-.02-.04-.04-.06-.05 0-.01-.01-.01-.01-.02-.02-.01-.05-.03-.08-.04-.02-.02-.05-.03-.09-.04h-.01s-.05-.01-.08-.02h-.13c-.02 0-.05 0-.07.01 0 0-.01 0-.02.01-.03 0-.05.02-.08.03-.01 0-.02.01-.02.01-.02.01-.04.02-.07.04 0 0 0 .01-.01.01-.02.02-.05.04-.06.06 0 0-.03.05-.04.08-.01 0-.01.01-.02.02v.02l-3.72 8.4-2.73-6.56a.502.502 0 00-.42-.32.526.526 0 00-.48.23l-2.8 4.26-6.42-12.28s0-.02-.01-.03l-.02-.02s-.04-.04-.05-.06c-.01-.01-.02-.02-.03-.02a.078.078 0 01-.04-.04c-.01 0-.02-.01-.02-.02-.02-.02-.05-.02-.06-.03-.01 0-.02-.01-.03-.01a.207.207 0 00-.06-.02h-.13c-.02 0-.05 0-.08.01h-.02s-.05.01-.08.03h-.01s-.05.02-.08.04l-.02.01c-.01.02-.04.03-.06.04v.02s-.05.04-.06.06l-.01.01c0 .02-.02.03-.02.05L42.78 39.88l-6.89-13.86a.477.477 0 00-.41-.28.493.493 0 00-.45.21L24.9 39.92l-5.39-5.09a.512.512 0 00-.46-.13c-.17.04-.3.15-.36.31L6.78 64.5c-.71-3.3-1.09-6.73-1.09-10.24-.1-26.85 21.72-48.67 48.55-48.67s48.64 21.82 48.64 48.65m-87-38.35C5.64 26.13 0 39.75 0 54.24c0 14.49 5.64 28.1 15.88 38.34 10.25 10.25 23.87 15.89 38.36 15.89 14.49 0 28.1-5.64 38.34-15.89 10.24-10.24 15.88-23.86 15.88-38.34 0-14.48-5.64-28.11-15.88-38.35C82.34 5.64 68.72 0 54.24 0 39.76 0 26.13 5.64 15.88 15.89z" fill="#fff"/></g><defs><clipPath id="clip0_1_86"><path fill="#fff" d="M0 0h108.46v108.47H0z"/></clipPath></defs></svg>