<svg width="36" height="52" fill="none" xmlns="http://www.w3.org/2000/svg"><path d="M32.57 32.607l-.873-.952-2.579 2.42 1.741 4.782-4.426.48-.277 5.826-3.116-.764-4.89 5.59-4.945-5.85-2.21.934-1.051-5.494-3.786.636 1.272-5.877-4.38-2.19-.569 1.167 3.48 1.737-1.464 6.756 4.423-.74 1.113 5.82 2.803-1.185 5.3 6.267 5.352-6.124 3.878.952.298-6.288 4.972-.54-2.016-5.53 1.95-1.833zM6.905 19.85l2.343 5.819 5.987.964-.203-3.396-8.127-3.388zm3.258 4.652l-.912-2.268 4.547 1.895.06.967-3.692-.594h-.003z" fill="#fff"/><path d="M21.257 23.236l-.717 10.619h-4.8l-1.098 1.116.032 2.397 2.31 1.76h2.314l2.31-1.76v-.302l.723-10.636 4.71-.758 2.343-5.82-8.124 3.384h-.003zm-2.39 14.594h-1.455l-1.463-1.116-.015-1.215.34-.346h3.732l.34.346-.015 1.212-1.464 1.116v.003zm7.253-13.325l-3.7.597.065-.97 4.55-1.895-.912 2.268h-.003z" fill="#fff"/><path d="M19.658 40.319h-3.033l-2.691-1.086-2.857-6.33-1.168.537 3.068 6.807 3.403 1.37h3.526l3.358-1.352 4.04-6.62-.372-3.24-1.263-2.608-1.154.57 1.166 2.411.295 2.57-3.582 5.87-2.736 1.101z" fill="#fff"/><path d="M36 23.84l-2.839-4.707-.492-.34.844-1.701-1.04-.98 1.703-2.727L30.594.508 23.707 8.7l-5.574-1.191-5.548 1.376L5.671.03 2.455 13.191l1.346 2.943-2.001 1.2 1.664 2.378L0 22.159l3.511 3.438L.03 29.295l4.544 2.751.66-1.116-3.165-1.916 3.251-3.456-3.308-3.235 3.804-2.686-.735-1.065-.563.397-.865-1.236 3.438-2.062-.658-1.119-1.52.913-1.1-2.405L6.29 2.919l.422.54-.032-.006-1.564 8.142 1.806 2.172.982-.838-1.41-1.696 1.242-6.46 4.352 5.574 6.064-1.507 5.04 1.077-.348 1.743 1.26.257.44-2.209 4.048-4.813 1.03 6.55-1.505 2.245 1.063.73 1.79-2.67-1.283-8.16.325-.382 2.77 9.974-1.265 2.03-.499-.469-.876.949 1.79 1.686-.333.672-.425-.296-.728 1.072 1.761 1.223 1.954 3.235-3.984 1.913 3.149 3.5-3.786 1.615.498 1.2 5.456-2.328-3.201-3.566L36 23.839z" fill="#fff"/><path d="M8.421 33.261l.594-1.155-.927-.486.98-1.776-1.96-1.227 1.048-1.387-1.021-.788-1.91 2.524 2.122 1.331-1.024 1.86 2.098 1.104z" fill="#fff"/></svg>