<svg width="161" height="54" fill="none" xmlns="http://www.w3.org/2000/svg"><g clip-path="url(#clip0_358_162)" fill="#fff"><path d="M34.115 33.87l-.915-.99-2.702 2.516 1.824 4.97-4.636.5-.29 6.057-3.264-.794-5.122 5.811-5.18-6.081-2.315.97-1.1-5.711-3.965.66 1.332-6.109-4.587-2.277-.596 1.213 3.644 1.806-1.533 7.024 4.633-.77 1.165 6.051 2.936-1.232L18.995 54l5.607-6.367 4.06.99.313-6.537 5.208-.562-2.111-5.75 2.043-1.904zM7.232 20.605l2.454 6.05 6.271 1.003-.213-3.53-8.512-3.523zm3.413 4.838l-.955-2.358 4.762 1.97.062 1.005-3.866-.617h-.003z"/><path d="M22.265 24.127l-.751 11.04h-5.029l-1.15 1.16.035 2.491 2.42 1.831h2.423l2.42-1.83v-.314l.757-11.058 4.933-.788 2.454-6.05-8.509 3.518h-.003zm-2.503 15.172h-1.524l-1.533-1.16-.016-1.263.356-.36h3.91l.355.36-.015 1.26-1.533 1.16v.003zm7.596-13.853l-3.875.62.068-1.008 4.766-1.97-.955 2.358h-.003z"/><path d="M20.59 41.887h-3.177l-2.819-1.13-2.992-6.58-1.224.558 3.215 7.077 3.563 1.424h3.694l3.517-1.405 4.231-6.882-.39-3.37-1.322-2.711-1.209.592 1.221 2.507.31 2.672-3.753 6.103-2.865 1.145z"/><path d="M37.706 24.754l-2.973-4.893-.516-.354.884-1.769-1.088-1.017 1.783-2.836L32.044.496l-7.213 8.517-5.839-1.238-5.81 1.43L5.94 0 2.571 13.683l1.41 3.06-2.096 1.247 1.743 2.473L0 23.006l3.678 3.574L.03 30.425l4.76 2.861.692-1.16-3.316-1.992 3.406-3.593-3.465-3.364 3.984-2.792-.77-1.108-.59.413-.906-1.285 3.6-2.144-.688-1.163-1.592.95-1.153-2.501L6.59 3.002l.442.562-.034-.006-1.638 8.464 1.892 2.259 1.029-.872-1.477-1.762 1.3-6.718 4.56 5.796 6.35-1.567 5.28 1.12-.365 1.812 1.32.267.46-2.296 4.24-5.005 1.08 6.811-1.577 2.333 1.113.76 1.876-2.777-1.345-8.482.34-.398 2.902 10.37-1.325 2.11-.523-.488-.918.987 1.876 1.753-.349.698-.445-.307-.763 1.114 1.845 1.272 2.046 3.364-4.173 1.988 3.298 3.64-3.965 1.678.522 1.248 5.715-2.42-3.353-3.708 3.881-1.85z"/><path d="M8.82 34.549l.622-1.201-.97-.506 1.026-1.846-2.052-1.275 1.097-1.443-1.07-.819-2 2.625 2.223 1.384L6.623 33.4l2.198 1.148zm53.133-21.927h-7.05L53.289 26.97l-1.604-14.26-.009-.087H44.62v30h4.077l-.013-20.115 2.253 20.032.01.083h4.685l2.266-20.133v20.133h4.076l-.021-29.9v-.1zm10.922.003h-6.21l-3.319 30h4.105l.6-5.432h3.44l.6 5.432h4.1l-3.31-29.913-.009-.087h.003zm-1.969 19.302h-2.274l1.137-10.276 1.137 10.276zM82.144 33.6l-2.312-20.891-.009-.084H75.72l3.31 29.913.01.084h6.208l3.32-29.997h-4.102l-2.32 20.974zm8.039 9.022h10.639V37.36h-6.559v-7.673h4.958v-5.268h-4.958v-6.532h6.559v-5.262H90.183v29.997zm23.532-13.509V12.625H103.08v30h4.077v-9.987l3.576 1.89v8.097h4.076v-10.57l-5.56-2.939h4.466v-.003zm-4.076-11.226v7.13h-2.479v-7.13h2.479zm38.893-5.265l-4.327.003-3.366 9.569v-9.569h-4.079v29.997h4.079v-8.138l1.033-2.938 3.452 11.011.019.065h4.277l-5.486-17.502 4.398-12.498zm-27.39.003h-4.076v30h4.076v-30zm0-5.383h-4.076v4.092h4.076V7.242zm2.724 35.38h10.638V32.334h-4.08v5.026h-2.478V17.887h2.481v5.027h4.077V12.625h-10.638v29.997zM161 22.914V12.625h-10.635v12.532l6.558 6.584v5.619h-2.482v-5.026h-4.076v10.288H161V30.044l-6.559-6.584v-5.573h2.482v5.027H161z"/></g><defs><clipPath id="clip0_358_162"><path fill="#fff" d="M0 0h161v54H0z"/></clipPath></defs></svg>