<svg width="49" height="71" fill="none" xmlns="http://www.w3.org/2000/svg"><path d="M43.896 44.405l-1.177-1.283-3.476 3.262 2.346 6.443-5.965.648-.374 7.85-4.2-1.029-6.589 7.533-6.665-7.883-2.979 1.259-1.415-7.405-5.103.857 1.714-7.92-5.901-2.952-.768 1.573 4.689 2.34-1.973 9.107 5.962-.998 1.499 7.843 3.778-1.596L24.44 70.5l7.214-8.253 5.226 1.283.401-8.475 6.702-.728-2.717-7.453 2.629-2.47zM9.306 27.21l3.158 7.843 8.069 1.3-.275-4.577L9.306 27.21zm4.39 6.27l-1.228-3.056 6.128 2.554.08 1.303-4.975-.8h-.004z" fill="#000"/><path d="M28.649 31.776l-.966 14.31h-6.47l-1.48 1.504.043 3.23 3.114 2.373h3.118l3.114-2.373v-.406l.974-14.335 6.348-1.021 3.157-7.843-10.948 4.56h-.004zm-3.221 19.668h-1.961l-1.973-1.505-.02-1.637.458-.466h5.03l.458.466-.02 1.633-1.972 1.504v.005zm9.775-17.96l-4.987.805.087-1.307 6.132-2.554-1.228 3.057h-.004z" fill="#000"/><path d="M26.494 54.798h-4.089l-3.627-1.464-3.85-8.531-1.574.724 4.136 9.174 4.585 1.846h4.753l4.525-1.822 5.445-8.92-.501-4.368-1.703-3.516-1.555.769 1.571 3.25.398 3.462-4.828 7.912-3.686 1.484z" fill="#000"/><path d="M48.518 32.588l-3.826-6.343-.664-.458 1.137-2.293-1.4-1.32L46.06 18.5 41.232 1.144l-9.282 11.04-7.512-1.605-7.477 1.854L7.644.5 3.309 18.237l1.813 3.966-2.696 1.617 2.243 3.206L0 30.324l4.732 4.633L.04 39.94l6.124 3.709.89-1.505-4.266-2.582 4.382-4.657-4.458-4.36 5.126-3.62-.99-1.436-.76.535-1.165-1.665 4.633-2.78-.886-1.508-2.049 1.231-1.483-3.242 3.34-13.667.57.728-.044-.008-2.108 10.973 2.434 2.928 1.324-1.13-1.901-2.285 1.674-8.708 5.866 7.513 8.173-2.03 6.792 1.451-.47 2.349 1.699.346.593-2.976 5.456-6.488 1.388 8.828-2.029 3.025 1.432.985 2.414-3.6-1.73-10.996.438-.514 3.734 13.441-1.706 2.735-.672-.631-1.181 1.279 2.413 2.272-.449.905-.573-.398-.982 1.444 2.374 1.649 2.633 4.36-5.369 2.578 4.244 4.718-5.103 2.176.672 1.617 7.354-3.138-4.315-4.806 4.995-2.397z" fill="#000"/><path d="M11.35 45.286l.8-1.557-1.25-.655 1.32-2.394-2.64-1.653 1.412-1.87-1.376-1.062-2.573 3.403 2.86 1.794-1.38 2.505 2.827 1.489z" fill="#000"/></svg>