<svg width="2046" height="130" fill="none" xmlns="http://www.w3.org/2000/svg"><path fill-rule="evenodd" clip-rule="evenodd" d="M1969.53 127.434l-.01-.003c-8.09-1.822-14.9-4.29-20.38-7.441l-1.33-.76 6.38-24.531 2.21 1.104c3.71 1.856 7.82 3.556 12.33 5.097 4.5 1.426 9.11 2.578 13.83 3.458 4.72.766 9.14 1.146 13.27 1.146 7.21 0 12.41-1.264 15.87-3.535 3.32-2.185 4.98-5.29 4.98-9.585 0-2.38-.55-4.2-1.5-5.587l-.02-.023-.01-.023c-1.01-1.566-2.58-2.981-4.82-4.203l-.03-.017-.03-.017c-2.3-1.358-5.29-2.648-9.01-3.851-3.76-1.217-8.2-2.495-13.33-3.832l-.02-.005-.02-.006c-6.01-1.702-11.43-3.638-16.24-5.814-4.85-2.195-9.05-4.814-12.58-7.87l-.01-.012-.02-.01c-3.44-3.085-6.12-6.66-8.03-10.718l-.01-.032-.02-.032c-1.8-4.21-2.68-8.966-2.68-14.228 0-11.572 4.47-20.61 13.45-26.839C1970.62 3.003 1982.96 0 1998.52 0c7.73 0 15.42.74 23.04 2.218 7.73 1.364 14.44 3.308 20.11 5.853l1.55.698-6.6 24.635-2.18-1.04c-5.21-2.499-10.99-4.41-17.35-5.725l-.01-.004-.02-.003c-6.36-1.426-12.65-2.136-18.88-2.136-7.47 0-12.81 1.164-16.28 3.243l-.01.01-.02.012c-3.3 1.887-4.87 4.588-4.87 8.343 0 2.396.49 4.318 1.39 5.85.91 1.455 2.32 2.806 4.34 4.017 2.21 1.263 5 2.5 8.38 3.701 3.55 1.218 7.77 2.55 12.67 3.999 6.44 1.81 12.18 3.853 17.21 6.137 5.17 2.184 9.54 4.795 13.08 7.857 3.68 2.974 6.5 6.507 8.42 10.595 1.95 4.128 2.88 8.91 2.88 14.292 0 11.802-4.59 21.155-13.76 27.825v.003c-8.98 6.5-21.5 9.62-37.29 9.62-8.43 0-16.69-.854-24.78-2.563l-.01-.003zm63.26-58.234c-3.36-2.912-7.56-5.432-12.6-7.56-4.93-2.24-10.59-4.256-16.97-6.048-4.93-1.456-9.18-2.8-12.77-4.032-3.47-1.232-6.38-2.52-8.73-3.864-2.24-1.344-3.92-2.912-5.04-4.704-1.12-1.904-1.68-4.2-1.68-6.888 0-4.48 1.96-7.84 5.88-10.08 3.92-2.352 9.68-3.528 17.3-3.528 6.38 0 12.82.728 19.32 2.184 5.76 1.192 11.08 2.87 15.96 5.03.63.276 1.24.56 1.85.85l5.54-20.664c-5.49-2.464-12.04-4.368-19.65-5.712A118.893 118.893 0 001998.52 2c-15.35 0-27.22 2.968-35.62 8.904-8.4 5.824-12.6 14.224-12.6 25.2 0 5.04.84 9.52 2.52 13.44 1.79 3.808 4.31 7.168 7.56 10.08 3.36 2.912 7.39 5.432 12.1 7.56 4.7 2.128 10.02 4.032 15.96 5.712 5.15 1.344 9.63 2.632 13.44 3.864 3.8 1.232 6.94 2.576 9.4 4.032 2.47 1.344 4.32 2.968 5.55 4.872 1.23 1.792 1.85 4.032 1.85 6.72 0 4.928-1.96 8.68-5.88 11.256-3.92 2.576-9.58 3.864-16.97 3.864-4.26 0-8.79-.392-13.61-1.176-4.82-.896-9.52-2.072-14.11-3.528-3.87-1.32-7.46-2.759-10.77-4.318-.62-.292-1.23-.59-1.83-.89l-5.38 20.664c5.27 3.024 11.87 5.432 19.83 7.224 7.95 1.68 16.07 2.52 24.36 2.52 15.56 0 27.6-3.08 36.12-9.24 8.62-6.272 12.93-15.008 12.93-26.208 0-5.152-.89-9.632-2.69-13.44-1.79-3.808-4.42-7.112-7.89-9.912zm-163.49 59.12L1826.28 1.68h30.13l29.78 94.971 29.78-94.971h30.13l-43.19 126.64h-33.61zm17.06-25.52h-.34l-31.08-99.12h-25.87l41.66 122.64h30.75l41.83-122.64h-25.87l-31.08 99.12zm-169.04 25.52l43.72-126.64h34.6l43.72 126.64h-30.15l-8.81-28.056h-44.16l-8.77 28.056h-30.15zm37.45-30.056h47.1l8.81 28.056h25.87L1794.22 3.68h-31.75l-42.34 122.64H1746l8.77-28.056zm23.66-74.592h-.34l-16.91 54.096h34.25l-17-54.096zm14.27 52.096l-14.44-45.945-14.36 45.945h28.8zm-211.3 52.552V1.68h32.88l30.1 69.272 30.11-69.272h32.88v126.64h-27.52V49.398l-23.24 52.882h-24.45l-23.24-52.882v78.922h-27.52zm25.52-87.68h.33l26.21 59.64h21.84l26.21-59.64h.34v85.68h23.52V3.68h-29.57l-31.25 71.904h-.34L1612.97 3.68h-29.57v122.64h23.52V40.64zm-164.52 86.794l-.02-.003c-8.08-1.822-14.89-4.29-20.38-7.441l-1.32-.76 6.38-24.531 2.21 1.104c3.71 1.856 7.82 3.556 12.33 5.097 4.5 1.426 9.11 2.578 13.83 3.458 4.72.766 9.14 1.146 13.27 1.146 7.2 0 12.41-1.264 15.86-3.535 3.33-2.185 4.98-5.29 4.98-9.585 0-2.38-.54-4.2-1.49-5.587l-.02-.023-.01-.023c-1.02-1.566-2.59-2.981-4.83-4.203l-.03-.017-.03-.017c-2.29-1.358-5.28-2.648-9-3.851-3.76-1.217-8.21-2.495-13.33-3.832l-.02-.005-.02-.006c-6.02-1.702-11.43-3.638-16.24-5.814-4.85-2.195-9.06-4.814-12.58-7.87l-.02-.012-.01-.01c-3.44-3.085-6.12-6.66-8.03-10.718l-.02-.032-.01-.032c-1.81-4.21-2.68-8.966-2.68-14.228 0-11.572 4.47-20.61 13.45-26.839 8.87-6.262 21.2-9.265 36.76-9.265 7.74 0 15.42.74 23.05 2.218 7.73 1.364 14.44 3.308 20.11 5.853l1.55.698-6.61 24.635-2.17-1.04c-5.21-2.499-10.99-4.41-17.35-5.725l-.01-.004-.02-.003c-6.36-1.426-12.65-2.136-18.88-2.136-7.47 0-12.81 1.164-16.28 3.243l-.02.01-.01.012c-3.31 1.887-4.88 4.588-4.88 8.343 0 2.396.5 4.318 1.39 5.85.92 1.455 2.33 2.806 4.34 4.017 2.22 1.263 5.01 2.5 8.39 3.701 3.54 1.218 7.76 2.55 12.66 3.999 6.45 1.81 12.19 3.853 17.22 6.137 5.16 2.184 9.54 4.795 13.08 7.857 3.68 2.974 6.5 6.507 8.42 10.595 1.94 4.128 2.88 8.91 2.88 14.292 0 11.802-4.59 21.155-13.76 27.825v.003c-8.99 6.5-21.5 9.62-37.3 9.62-8.42 0-16.68-.854-24.77-2.563l-.01-.003zm63.26-58.234c-3.36-2.912-7.56-5.432-12.6-7.56-4.93-2.24-10.59-4.256-16.97-6.048-4.93-1.456-9.19-2.8-12.77-4.032-3.47-1.232-6.38-2.52-8.74-3.864-2.24-1.344-3.92-2.912-5.04-4.704-1.12-1.904-1.68-4.2-1.68-6.888 0-4.48 1.96-7.84 5.88-10.08 3.92-2.352 9.69-3.528 17.31-3.528 6.38 0 12.82.728 19.32 2.184 5.76 1.192 11.08 2.87 15.96 5.03.62.276 1.24.56 1.85.85l5.54-20.664c-5.49-2.464-12.04-4.368-19.66-5.712A118.738 118.738 0 001471.38 2c-15.34 0-27.21 2.968-35.61 8.904-8.4 5.824-12.6 14.224-12.6 25.2 0 5.04.84 9.52 2.52 13.44 1.79 3.808 4.31 7.168 7.56 10.08 3.36 2.912 7.39 5.432 12.09 7.56 4.71 2.128 10.03 4.032 15.96 5.712 5.16 1.344 9.64 2.632 13.44 3.864 3.81 1.232 6.95 2.576 9.41 4.032 2.47 1.344 4.31 2.968 5.55 4.872 1.23 1.792 1.84 4.032 1.84 6.72 0 4.928-1.96 8.68-5.88 11.256-3.92 2.576-9.57 3.864-16.96 3.864-4.26 0-8.8-.392-13.61-1.176-4.82-.896-9.52-2.072-14.11-3.528-3.87-1.32-7.46-2.759-10.77-4.318-.62-.292-1.23-.59-1.83-.89l-5.38 20.664c5.26 3.024 11.87 5.432 19.82 7.224a117.64 117.64 0 0024.36 2.52c15.57 0 27.61-3.08 36.12-9.24 8.63-6.272 12.94-15.008 12.94-26.208 0-5.152-.9-9.632-2.69-13.44s-4.42-7.112-7.89-9.912zm-163.49 59.12L1299.14 1.68h30.14l29.78 94.971 29.77-94.971h30.14l-43.2 126.64h-33.6zm17.05-25.52h-.33l-31.08-99.12h-25.87l41.66 122.64h30.74l41.84-122.64h-25.88l-31.08 99.12zm-169.03 25.52l43.72-126.64h34.6l43.72 126.64h-30.15l-8.81-28.056h-44.16l-8.77 28.056h-30.15zm37.45-30.056h47.09l8.82 28.056h25.87L1267.09 3.68h-31.76L1193 126.32h25.87l8.77-28.056zm23.65-74.592h-.33l-16.91 54.096h34.24l-17-54.096zm14.28 52.096l-14.44-45.945-14.36 45.945h28.8zm-211.3 52.552V1.68h32.88l30.1 69.272 30.1-69.272h32.88v126.64h-27.52V49.398l-23.23 52.882h-24.46l-23.23-52.882v78.922h-27.52zm25.52-87.68h.33l26.21 59.64h21.84l26.21-59.64h.33v85.68h23.52V3.68h-29.56l-31.25 71.904h-.34L1085.83 3.68h-29.56v122.64h23.52V40.64zm-164.526 86.794l-.013-.003c-8.085-1.822-14.895-4.29-20.381-7.441l-1.324-.76 6.382-24.531 2.209 1.104c3.712 1.856 7.82 3.556 12.331 5.097a116.147 116.147 0 0013.83 3.458c4.716.766 9.137 1.146 13.264 1.146 7.209 0 12.414-1.264 15.87-3.535 3.324-2.185 4.978-5.29 4.978-9.585 0-2.38-.542-4.2-1.496-5.587l-.016-.023-.015-.023c-1.013-1.566-2.582-2.981-4.822-4.203l-.031-.017-.029-.017c-2.298-1.358-5.288-2.648-9.006-3.851-3.762-1.217-8.203-2.495-13.33-3.832l-.019-.005-.02-.006c-6.014-1.702-11.43-3.638-16.24-5.814-4.852-2.195-9.054-4.814-12.581-7.87l-.013-.012-.013-.01c-3.44-3.085-6.124-6.66-8.034-10.718l-.015-.032-.014-.032c-1.804-4.21-2.682-8.966-2.682-14.228 0-11.572 4.474-20.61 13.454-26.839C916.354 3.003 928.69 0 944.25 0c7.739 0 15.421.74 23.045 2.217 7.728 1.365 14.44 3.309 20.111 5.854l1.553.698-6.609 24.635-2.172-1.04c-5.214-2.499-10.994-4.41-17.349-5.725l-.016-.004-.016-.003c-6.359-1.426-12.652-2.136-18.883-2.136-7.468 0-12.809 1.164-16.275 3.243l-.018.01-.018.012c-3.303 1.887-4.873 4.588-4.873 8.343 0 2.397.496 4.319 1.391 5.851.915 1.455 2.328 2.805 4.34 4.015 2.214 1.264 5.002 2.5 8.386 3.702 3.543 1.218 7.762 2.55 12.661 3.998 6.446 1.81 12.188 3.854 17.217 6.138 5.167 2.184 9.541 4.795 13.081 7.858 3.679 2.974 6.498 6.506 8.422 10.594 1.942 4.128 2.878 8.91 2.878 14.292 0 11.802-4.588 21.155-13.759 27.825l-.004.003c-8.982 6.5-21.497 9.62-37.293 9.62-8.424 0-16.682-.854-24.773-2.563l-.013-.003zM978.522 69.2c-3.36-2.912-7.56-5.432-12.6-7.56-4.928-2.24-10.584-4.256-16.968-6.048-4.928-1.456-9.184-2.8-12.768-4.032-3.472-1.232-6.384-2.52-8.736-3.864-2.24-1.344-3.92-2.912-5.04-4.704-1.12-1.904-1.68-4.2-1.68-6.888 0-4.48 1.96-7.84 5.88-10.08 3.92-2.352 9.688-3.528 17.304-3.528 6.384 0 12.824.728 19.32 2.184 5.763 1.192 11.084 2.87 15.965 5.03a66.84 66.84 0 011.843.85l5.544-20.664c-5.488-2.464-12.04-4.368-19.656-5.712A118.8 118.8 0 00944.25 2c-15.344 0-27.216 2.968-35.616 8.904-8.4 5.824-12.6 14.224-12.6 25.2 0 5.04.84 9.52 2.52 13.44 1.792 3.808 4.312 7.168 7.56 10.08 3.36 2.912 7.392 5.432 12.096 7.56 4.704 2.128 10.024 4.032 15.96 5.712 5.152 1.344 9.632 2.632 13.44 3.864 3.808 1.232 6.944 2.576 9.408 4.032 2.464 1.344 4.312 2.968 5.544 4.872 1.232 1.792 1.848 4.032 1.848 6.72 0 4.928-1.96 8.68-5.88 11.256-3.92 2.576-9.576 3.864-16.968 3.864-4.256 0-8.792-.392-13.608-1.176a118.133 118.133 0 01-14.112-3.528c-3.866-1.32-7.454-2.759-10.765-4.318a87.478 87.478 0 01-1.835-.89l-5.376 20.664c5.264 3.024 11.872 5.432 19.824 7.224 7.952 1.68 16.072 2.52 24.36 2.52 15.568 0 27.608-3.08 36.12-9.24 8.624-6.272 12.936-15.008 12.936-26.208 0-5.152-.896-9.632-2.688-13.44-1.792-3.808-4.424-7.112-7.896-9.912zm-163.488 59.12L772.011 1.68h30.132l29.78 94.97 29.779-94.97h30.136l-43.196 126.64h-33.608zm17.057-25.52h-.336l-31.08-99.12h-25.872l41.664 122.64h30.744L889.043 3.68h-25.872l-31.08 99.12zm-169.032 25.52L706.776 1.68h34.602l43.717 126.64h-30.146l-8.816-28.056h-44.155l-8.771 28.056h-30.148zm37.448-30.056h47.094l8.816 28.056h25.872L739.953 3.68h-31.752l-42.336 122.64h25.872l8.77-28.056zm23.654-74.592h-.336l-16.91 54.096h34.245l-16.999-54.096zm14.274 52.096l-14.437-45.945-14.363 45.945h28.8zM527.133 128.32V1.68h32.879l30.105 69.272L620.221 1.68h32.88v126.64h-27.52V49.398l-23.238 52.882h-24.452l-23.238-52.882v78.922h-27.52zm25.52-87.68h.336l26.208 59.64h21.84l26.208-59.64h.336v85.68h23.52V3.68h-29.568l-31.248 71.904h-.336L558.701 3.68h-29.568v122.64h23.52V40.64zm-164.522 86.794l-.013-.003c-8.085-1.822-14.895-4.29-20.381-7.441l-1.323-.76 6.382-24.531 2.208 1.104c3.712 1.856 7.82 3.556 12.331 5.097a116.098 116.098 0 0013.83 3.458c4.717.766 9.137 1.146 13.265 1.146 7.208 0 12.413-1.264 15.869-3.535 3.324-2.185 4.978-5.29 4.978-9.585 0-2.38-.542-4.2-1.496-5.587l-.015-.023-.016-.023c-1.013-1.566-2.582-2.981-4.822-4.203l-.03-.017-.03-.017c-2.298-1.358-5.287-2.648-9.006-3.851-3.762-1.217-8.203-2.495-13.329-3.832l-.02-.005-.02-.006c-6.014-1.702-11.43-3.638-16.24-5.814-4.852-2.195-9.054-4.814-12.581-7.87l-.013-.012-.013-.01c-3.439-3.085-6.124-6.66-8.034-10.718l-.015-.032-.014-.032c-1.804-4.21-2.682-8.966-2.682-14.228 0-11.571 4.474-20.609 13.453-26.838C389.22 3.004 401.556 0 417.117 0c7.739 0 15.421.74 23.045 2.217 7.728 1.365 14.441 3.309 20.111 5.854l1.554.698-6.61 24.635-2.172-1.04c-5.214-2.499-10.994-4.41-17.349-5.725l-.016-.004-.016-.003c-6.358-1.426-12.652-2.136-18.883-2.136-7.468 0-12.809 1.164-16.274 3.243l-.019.01-.018.012c-3.303 1.887-4.872 4.588-4.872 8.343 0 2.397.495 4.319 1.39 5.851.915 1.455 2.329 2.805 4.34 4.015 2.215 1.264 5.002 2.501 8.386 3.702 3.543 1.218 7.763 2.55 12.662 3.998 6.445 1.81 12.187 3.854 17.216 6.138 5.167 2.184 9.541 4.795 13.081 7.858 3.68 2.974 6.498 6.506 8.422 10.594 1.942 4.128 2.879 8.91 2.879 14.292 0 11.802-4.589 21.155-13.76 27.825l-.004.003c-8.982 6.5-21.496 9.62-37.292 9.62-8.425 0-16.683-.854-24.774-2.563l-.013-.003zM451.389 69.2c-3.359-2.912-7.56-5.432-12.6-7.56-4.927-2.24-10.583-4.256-16.967-6.048-4.929-1.456-9.185-2.8-12.769-4.032-3.471-1.232-6.384-2.52-8.735-3.864-2.241-1.344-3.921-2.912-5.041-4.704-1.119-1.904-1.679-4.2-1.679-6.888 0-4.48 1.959-7.84 5.88-10.08 3.919-2.352 9.687-3.528 17.303-3.528 6.384 0 12.824.728 19.321 2.184 5.762 1.192 11.084 2.87 15.965 5.03a69.68 69.68 0 011.843.85l5.543-20.664c-5.487-2.464-12.039-4.368-19.655-5.712A118.818 118.818 0 00417.117 2c-15.344 0-27.216 2.968-35.616 8.904-8.399 5.824-12.6 14.224-12.6 25.2 0 5.04.84 9.52 2.521 13.44 1.792 3.808 4.311 7.168 7.56 10.08 3.359 2.912 7.392 5.432 12.095 7.56 4.704 2.128 10.025 4.032 15.961 5.712 5.151 1.344 9.631 2.632 13.44 3.864 3.807 1.232 6.944 2.576 9.407 4.032 2.464 1.344 4.313 2.968 5.545 4.872 1.231 1.792 1.847 4.032 1.847 6.72 0 4.928-1.959 8.68-5.88 11.256-3.919 2.576-9.575 3.864-16.967 3.864-4.257 0-8.792-.392-13.608-1.176a118.038 118.038 0 01-14.112-3.528c-3.867-1.32-7.455-2.759-10.766-4.318a87.478 87.478 0 01-1.835-.89l-5.376 20.664c5.264 3.024 11.872 5.432 19.824 7.224 7.952 1.68 16.072 2.52 24.361 2.52 15.568 0 27.608-3.08 36.12-9.24 8.623-6.272 12.936-15.008 12.936-26.208 0-5.152-.897-9.632-2.689-13.44S454.862 72 451.389 69.2zm-163.488 59.12L244.878 1.68h30.133l29.779 94.97 29.779-94.97h30.136l-43.196 126.64h-33.608zm17.057-25.52h-.336l-31.08-99.12H247.67l41.664 122.64h30.744L361.91 3.68h-25.872l-31.08 99.12zm-169.032 25.52L179.643 1.68h34.603l43.717 126.64h-30.147L219 100.264h-44.155l-8.77 28.056h-30.149zm37.449-30.056h47.093l8.816 28.056h25.872L212.82 3.68h-31.752l-42.336 122.64h25.872l8.771-28.056zm23.653-74.592h-.336l-16.91 54.096h34.245l-16.999-54.096zm14.274 52.096l-14.437-45.945-14.363 45.945h28.8zM0 128.32V1.68h32.88l30.104 69.272L93.088 1.68h32.88v126.64h-27.52V49.398L75.21 102.28H50.758L27.52 49.398v78.922H0zm25.52-87.68h.336l26.208 59.64h21.84l26.208-59.64h.336v85.68h23.52V3.68H94.4L63.152 75.584h-.336L31.568 3.68H2v122.64h23.52V40.64z" fill="#FFB54B"/></svg>