<svg width="1440" height="127" fill="none" xmlns="http://www.w3.org/2000/svg"><mask id="a" maskUnits="userSpaceOnUse" x="-445" y="-2" width="2047" height="131" fill="#000"><path fill="#fff" d="M-445-2h2047v131H-445z"/><path d="M-442.064 125V2.36h29.568l31.248 71.904h.336l31.248-71.904h29.568V125h-23.52V39.32h-.336l-26.208 59.64H-392l-26.208-59.64h-.336V125h-23.52zm136.732 0l42.336-122.64h31.752L-188.908 125h-25.872l-32.256-102.648h-.336L-279.46 125h-25.872zm24.696-28.056V76.448h67.2v20.496h-67.2zM-154.73 125L-196.394 2.36h25.872l31.08 99.12h.336l31.08-99.12h25.872L-123.986 125h-30.744zm123.583 1.68c-8.288 0-16.407-.84-24.36-2.52-7.952-1.792-14.56-4.2-19.824-7.224l5.377-20.664c3.807 1.904 8.007 3.64 12.6 5.208a118.133 118.133 0 0014.111 3.528c4.817.784 9.352 1.176 13.609 1.176 7.392 0 13.047-1.288 16.968-3.864 3.92-2.576 5.88-6.328 5.88-11.256 0-2.688-.617-4.928-1.848-6.72-1.232-1.904-3.08-3.528-5.544-4.872-2.464-1.456-5.6-2.8-9.409-4.032-3.808-1.232-8.288-2.52-13.44-3.864-5.935-1.68-11.255-3.584-15.96-5.712-4.703-2.128-8.735-4.648-12.095-7.56-3.249-2.912-5.769-6.272-7.56-10.08-1.68-3.92-2.52-8.4-2.52-13.44 0-10.976 4.2-19.376 12.6-25.2C-54.163 3.648-42.291.68-26.947.68a118.8 118.8 0 0122.68 2.184C3.35 4.208 9.903 6.112 15.39 8.576L9.846 29.24c-5.377-2.576-11.313-4.536-17.809-5.88-6.496-1.456-12.935-2.184-19.32-2.184-7.615 0-13.383 1.176-17.303 3.528-3.92 2.24-5.88 5.6-5.88 10.08 0 2.688.56 4.984 1.68 6.888 1.12 1.792 2.8 3.36 5.04 4.704 2.352 1.344 5.264 2.632 8.736 3.864 3.583 1.232 7.84 2.576 12.767 4.032 6.384 1.792 12.04 3.808 16.968 6.048 5.04 2.128 9.24 4.648 12.6 7.56 3.472 2.8 6.105 6.104 7.897 9.912 1.792 3.808 2.688 8.288 2.688 13.44 0 11.2-4.313 19.936-12.937 26.208-8.512 6.16-20.552 9.24-36.12 9.24zM85.07 125V2.36h29.568l31.248 71.904h.336L177.469 2.36h29.568V125h-23.52V39.32h-.336l-26.208 59.64h-21.84l-26.208-59.64h-.336V125h-23.52zm136.732 0L264.137 2.36h31.752L338.225 125h-25.872L280.097 22.352h-.336L247.673 125h-25.872zm24.696-28.056V76.448h67.2v20.496h-67.2zM372.403 125L330.739 2.36h25.872l31.08 99.12h.336l31.08-99.12h25.872L403.147 125h-30.744zm123.583 1.68c-8.288 0-16.408-.84-24.36-2.52-7.952-1.792-14.56-4.2-19.824-7.224l5.376-20.664c3.808 1.904 8.008 3.64 12.6 5.208a118.133 118.133 0 0014.112 3.528c4.816.784 9.352 1.176 13.608 1.176 7.392 0 13.048-1.288 16.968-3.864 3.92-2.576 5.88-6.328 5.88-11.256 0-2.688-.616-4.928-1.848-6.72-1.232-1.904-3.08-3.528-5.544-4.872-2.464-1.456-5.6-2.8-9.408-4.032-3.808-1.232-8.288-2.52-13.44-3.864-5.936-1.68-11.256-3.584-15.96-5.712-4.704-2.128-8.736-4.648-12.096-7.56-3.248-2.912-5.768-6.272-7.56-10.08-1.68-3.92-2.52-8.4-2.52-13.44 0-10.976 4.2-19.376 12.6-25.2C472.97 3.648 484.842.68 500.186.68a118.8 118.8 0 0122.68 2.184c7.616 1.344 14.168 3.248 19.656 5.712l-5.544 20.664c-5.376-2.576-11.312-4.536-17.808-5.88-6.496-1.456-12.936-2.184-19.32-2.184-7.616 0-13.384 1.176-17.304 3.528-3.92 2.24-5.88 5.6-5.88 10.08 0 2.688.56 4.984 1.68 6.888 1.12 1.792 2.8 3.36 5.04 4.704 2.352 1.344 5.264 2.632 8.736 3.864 3.584 1.232 7.84 2.576 12.768 4.032 6.384 1.792 12.04 3.808 16.968 6.048 5.04 2.128 9.24 4.648 12.6 7.56 3.472 2.8 6.104 6.104 7.896 9.912 1.792 3.808 2.688 8.288 2.688 13.44 0 11.2-4.312 19.936-12.936 26.208-8.512 6.16-20.552 9.24-36.12 9.24zM612.202 125V2.36h29.568l31.248 71.904h.336L704.602 2.36h29.568V125h-23.52V39.32h-.336l-26.208 59.64h-21.84l-26.208-59.64h-.336V125h-23.52zm136.732 0L791.27 2.36h31.752L865.358 125h-25.872L807.23 22.352h-.336L774.806 125h-25.872zm24.696-28.056V76.448h67.2v20.496h-67.2zM899.535 125L857.871 2.36h25.872l31.08 99.12h.336l31.08-99.12h25.872L930.279 125h-30.744zm123.585 1.68c-8.29 0-16.41-.84-24.361-2.52-7.952-1.792-14.56-4.2-19.824-7.224l5.376-20.664c3.808 1.904 8.008 3.64 12.6 5.208a118.23 118.23 0 0014.109 3.528c4.82.784 9.36 1.176 13.61 1.176 7.39 0 13.05-1.288 16.97-3.864 3.92-2.576 5.88-6.328 5.88-11.256 0-2.688-.62-4.928-1.85-6.72-1.23-1.904-3.08-3.528-5.54-4.872-2.47-1.456-5.6-2.8-9.41-4.032-3.81-1.232-8.29-2.52-13.44-3.864-5.94-1.68-11.26-3.584-15.96-5.712-4.705-2.128-8.737-4.648-12.097-7.56-3.248-2.912-5.768-6.272-7.56-10.08-1.68-3.92-2.52-8.4-2.52-13.44 0-10.976 4.2-19.376 12.6-25.2C1000.1 3.648 1011.98.68 1027.32.68c7.62 0 15.18.728 22.68 2.184 7.62 1.344 14.17 3.248 19.66 5.712l-5.55 20.664c-5.37-2.576-11.31-4.536-17.81-5.88-6.49-1.456-12.93-2.184-19.32-2.184-7.61 0-13.38 1.176-17.3 3.528-3.92 2.24-5.88 5.6-5.88 10.08 0 2.688.56 4.984 1.68 6.888 1.12 1.792 2.8 3.36 5.04 4.704 2.35 1.344 5.26 2.632 8.74 3.864 3.58 1.232 7.84 2.576 12.76 4.032 6.39 1.792 12.04 3.808 16.97 6.048 5.04 2.128 9.24 4.648 12.6 7.56 3.47 2.8 6.11 6.104 7.9 9.912 1.79 3.808 2.69 8.288 2.69 13.44 0 11.2-4.32 19.936-12.94 26.208-8.51 6.16-20.55 9.24-36.12 9.24zm116.21-1.68V2.36h29.57l31.25 71.904h.34l31.24-71.904h29.57V125h-23.52V39.32h-.33l-26.21 59.64h-21.84l-26.21-59.64h-.34V125h-23.52zm136.74 0L1318.4 2.36h31.75L1392.49 125h-25.87l-32.26-102.648h-.33L1301.94 125h-25.87zm24.69-28.056V76.448h67.2v20.496h-67.2zM1426.67 125L1385 2.36h25.88l31.08 99.12h.33l31.08-99.12h25.87L1457.41 125h-30.74zm123.58 1.68c-8.29 0-16.41-.84-24.36-2.52-7.95-1.792-14.56-4.2-19.82-7.224l5.37-20.664c3.81 1.904 8.01 3.64 12.6 5.208 4.6 1.456 9.3 2.632 14.12 3.528 4.81.784 9.35 1.176 13.6 1.176 7.4 0 13.05-1.288 16.97-3.864 3.92-2.576 5.88-6.328 5.88-11.256 0-2.688-.61-4.928-1.85-6.72-1.23-1.904-3.08-3.528-5.54-4.872-2.46-1.456-5.6-2.8-9.41-4.032-3.81-1.232-8.29-2.52-13.44-3.864-5.93-1.68-11.25-3.584-15.96-5.712-4.7-2.128-8.73-4.648-12.09-7.56-3.25-2.912-5.77-6.272-7.56-10.08-1.68-3.92-2.52-8.4-2.52-13.44 0-10.976 4.2-19.376 12.6-25.2 8.4-5.936 20.27-8.904 35.61-8.904 7.62 0 15.18.728 22.68 2.184 7.62 1.344 14.17 3.248 19.66 5.712l-5.55 20.664c-5.37-2.576-11.31-4.536-17.8-5.88-6.5-1.456-12.94-2.184-19.32-2.184-7.62 0-13.39 1.176-17.31 3.528-3.92 2.24-5.88 5.6-5.88 10.08 0 2.688.56 4.984 1.68 6.888 1.12 1.792 2.8 3.36 5.04 4.704 2.35 1.344 5.27 2.632 8.74 3.864 3.58 1.232 7.84 2.576 12.77 4.032 6.38 1.792 12.04 3.808 16.96 6.048 5.04 2.128 9.24 4.648 12.6 7.56 3.48 2.8 6.11 6.104 7.9 9.912 1.79 3.808 2.69 8.288 2.69 13.44 0 11.2-4.31 19.936-12.94 26.208-8.51 6.16-20.55 9.24-36.12 9.24z"/></mask><path d="M-442.064 125h-2v2h2v-2zm0-122.64v-2h-2v2h2zm29.568 0l1.834-.797-.522-1.203h-1.312v2zm31.248 71.904l-1.834.797.522 1.203h1.312v-2zm.336 0v2h1.312l.522-1.203-1.834-.797zm31.248-71.904v-2h-1.312l-.522 1.203 1.834.797zm29.568 0h2v-2h-2v2zm0 122.64v2h2v-2h-2zm-23.52 0h-2v2h2v-2zm0-85.68h2v-2h-2v2zm-.336 0v-2h-1.306l-.525 1.195 1.831.805zm-26.208 59.64v2h1.306l.525-1.195-1.831-.805zm-21.84 0l-1.831.805.525 1.195H-392v-2zm-26.208-59.64l1.831-.805-.525-1.195h-1.306v2zm-.336 0v-2h-2v2h2zm0 85.68v2h2v-2h-2zm-21.52 0V2.36h-4V125h4zm-2-120.64h29.568v-4h-29.568v4zm27.734-1.203l31.248 71.904 3.668-1.594-31.248-71.904-3.668 1.594zm33.082 73.107h.336v-4h-.336v4zm2.17-1.203l31.248-71.904-3.668-1.594-31.248 71.904 3.668 1.594zm29.414-70.701h29.568v-4h-29.568v4zm27.568-2V125h4V2.36h-4zm2 120.64h-23.52v4h23.52v-4zm-21.52 2V39.32h-4V125h4zm-2-87.68h-.336v4h.336v-4zm-2.167 1.195l-26.208 59.64 3.662 1.61 26.208-59.64-3.662-1.61zM-370.16 96.96H-392v4h21.84v-4zm-20.009 1.195l-26.208-59.64-3.662 1.61 26.208 59.64 3.662-1.61zm-28.039-60.835h-.336v4h.336v-4zm-2.336 2V125h4V39.32h-4zm2 83.68h-23.52v4h23.52v-4zm113.212 2l-1.89-.653-.916 2.653h2.806v-2zm42.336-122.64v-2h-1.425l-.465 1.347 1.89.653zm31.752 0l1.891-.653-.465-1.347h-1.426v2zM-188.908 125v2h2.807l-.916-2.653-1.891.653zm-25.872 0l-1.908.6.44 1.4h1.468v-2zm-32.256-102.648l1.908-.6-.44-1.4h-1.468v2zm-.336 0v-2h-1.47l-.439 1.403 1.909.597zM-279.46 125v2h1.471l.438-1.403-1.909-.597zm-1.176-28.056h-2v2h2v-2zm0-20.496v-2h-2v2h2zm67.2 0h2v-2h-2v2zm0 20.496v2h2v-2h-2zm-90.005 28.709l42.336-122.64-3.781-1.306-42.336 122.64 3.781 1.306zM-262.996 4.36h31.752v-4h-31.752v4zm29.862-1.347l42.336 122.64 3.781-1.306-42.336-122.64-3.781 1.306zM-188.908 123h-25.872v4h25.872v-4zm-23.964 1.4l-32.256-102.648-3.816 1.2 32.256 102.648 3.816-1.2zm-34.164-104.048h-.336v4h.336v-4zm-2.245 1.403l-32.088 102.648 3.818 1.194 32.088-102.648-3.818-1.194zM-279.46 123h-25.872v4h25.872v-4zm.824-26.056V76.448h-4v20.496h4zm-2-18.496h67.2v-4h-67.2v4zm65.2-2v20.496h4V76.448h-4zm2 18.496h-67.2v4h67.2v-4zM-154.73 125l-1.894.643.461 1.357h1.433v-2zM-196.394 2.36v-2h-2.792l.898 2.643 1.894-.643zm25.872 0l1.908-.598-.439-1.402h-1.469v2zm31.08 99.12l-1.909.598.44 1.402h1.469v-2zm.336 0v2h1.469l.439-1.402-1.908-.598zm31.08-99.12v-2h-1.469l-.44 1.402 1.909.598zm25.872 0l1.893.646.902-2.646h-2.795v2zM-123.986 125v2h1.431l.462-1.354-1.893-.646zm-28.85-.643L-194.5 1.717l-3.788 1.286 41.664 122.64 3.788-1.286zM-196.394 4.36h25.872v-4h-25.872v4zm23.963-1.402l31.08 99.12 3.817-1.196-31.08-99.12-3.817 1.196zm32.989 100.522h.336v-4h-.336v4zm2.244-1.402l31.08-99.12-3.817-1.196-31.08 99.12 3.817 1.196zm29.172-97.718h25.872v-4h-25.872v4zm23.979-2.646l-41.832 122.64 3.786 1.292 41.832-122.64-3.786-1.292zM-123.986 123h-30.744v4h30.744v-4zm68.48 1.16l-.44 1.951.013.003.013.003.413-1.957zm-19.825-7.224l-1.935-.504-.384 1.478 1.323.76.996-1.734zm5.377-20.664l.894-1.789-2.208-1.104-.622 2.39 1.936.503zm12.6 5.208l-.647 1.893.021.007.021.006.605-1.906zm14.111 3.528l-.365 1.966.022.004.022.004.322-1.974zm34.609-20.664l-1.68 1.087.016.023.015.023 1.649-1.133zm-5.544-4.872l-1.018 1.722.03.017.03.017.957-1.756zm-22.848-7.896l-.545 1.924.02.006.02.005.505-1.935zm-15.96-5.712l.824-1.822-.825 1.822zm-12.096-7.56l-1.336 1.49.013.01.013.011 1.31-1.511zm-7.56-10.08l-1.839.788.014.032.015.032 1.81-.852zm10.08-38.64l1.14 1.644.006-.005.008-.006-1.154-1.633zm58.296-6.72l-.381 1.963.016.004.017.003.348-1.97zm19.655 5.712l1.932.518.442-1.645-1.554-.698-.82 1.825zM9.846 29.24l-.865 1.804 2.172 1.04.624-2.326-1.931-.518zm-17.808-5.88l-.438 1.952.016.003.016.003.406-1.958zm-36.624 1.344l.992 1.736.018-.01.019-.011-1.03-1.715zm-4.2 16.968l-1.724 1.014.013.023.014.023 1.697-1.06zm5.04 4.704l-1.03 1.715.019.01.018.011.992-1.736zm8.736 3.864l-.67 1.885.01.003.01.003.65-1.891zm12.767 4.032l-.566 1.918.013.004.013.004.54-1.926zm16.968 6.048l-.827 1.82.025.012.025.01.777-1.842zm12.6 7.56l-1.31 1.511.027.024.028.022 1.255-1.557zm7.897 9.912l-1.81.852 1.81-.852zM4.974 117.44l1.172 1.62.004-.003-1.176-1.617zm-36.12 7.24c-8.152 0-16.134-.826-23.947-2.477l-.827 3.914c8.09 1.709 16.35 2.563 24.774 2.563v-4zm-23.92-2.471c-7.82-1.762-14.226-4.11-19.268-7.007l-1.993 3.468c5.486 3.151 12.296 5.619 20.38 7.441l.88-3.902zm-18.329-4.769l5.376-20.664-3.871-1.008-5.376 20.664 3.871 1.008zm2.546-19.38c3.898 1.95 8.183 3.72 12.848 5.313l1.293-3.786c-4.519-1.543-8.635-3.245-12.352-5.104l-1.789 3.578zm12.89 5.326a120.031 120.031 0 0014.35 3.588l.732-3.932a116.141 116.141 0 01-13.873-3.469l-1.209 3.813zm14.395 3.596c4.907.799 9.552 1.202 13.93 1.202v-4c-4.135 0-8.562-.381-13.287-1.15l-.643 3.948zm13.93 1.202c7.575 0 13.682-1.312 18.066-4.193l-2.197-3.342c-3.456 2.271-8.661 3.535-15.87 3.535v4zm18.066-4.193c4.516-2.967 6.781-7.366 6.781-12.927h-4c0 4.295-1.654 7.4-4.978 9.585l2.197 3.342zm6.781-12.927c0-2.996-.69-5.656-2.2-7.853l-3.296 2.266c.954 1.387 1.496 3.207 1.496 5.587h4zm-2.168-7.806c-1.451-2.243-3.578-4.076-6.266-5.542l-1.915 3.512c2.24 1.222 3.81 2.637 4.822 4.203l3.359-2.174zm-6.206-5.508c-2.63-1.554-5.912-2.952-9.81-4.213l-1.231 3.806c3.719 1.203 6.708 2.493 9.006 3.85l2.035-3.443zm-9.81-4.213c-3.854-1.247-8.373-2.546-13.55-3.896l-1.01 3.87c5.126 1.338 9.567 2.615 13.329 3.832l1.231-3.806zm-13.51-3.885c-5.859-1.658-11.083-3.53-15.681-5.61l-1.649 3.644c4.81 2.176 10.226 4.112 16.24 5.814l1.09-3.848zm-15.681-5.61c-4.556-2.061-8.418-4.482-11.61-7.25l-2.62 3.023c3.527 3.057 7.729 5.676 12.581 7.871l1.649-3.644zm-11.585-7.227c-3.057-2.74-5.412-5.886-7.086-9.443l-3.62 1.704c1.911 4.059 4.596 7.633 8.035 10.717l2.67-2.978zm-7.057-9.379c-1.556-3.63-2.358-7.834-2.358-12.652h-4c0 5.262.877 10.018 2.681 14.228l3.677-1.576zm-2.358-12.652c0-10.377 3.923-18.137 11.74-23.556l-2.28-3.288c-8.984 6.23-13.46 15.27-13.46 26.844h4zm11.754-23.567C-53.475 5.611-42.07 2.68-26.946 2.68v-4c-15.565 0-27.904 3.005-36.77 9.27l2.308 3.267zm34.462-8.537c7.487 0 14.92.716 22.299 2.147l.761-3.926a120.8 120.8 0 00-23.06-2.221v4zm22.332 2.154C2.883 6.157 9.269 8.02 14.57 10.4l1.639-3.649C10.534 4.204 3.816 2.26-3.92.894l-.695 3.94zm18.072 3.224L7.914 28.722l3.863 1.036 5.544-20.664-3.863-1.036zM10.71 27.436C5.172 24.783-.92 22.775-7.557 21.401l-.81 3.918c6.354 1.314 12.134 3.226 17.348 5.725l1.729-3.608zm-18.235-6.028c-6.633-1.486-13.22-2.232-19.758-2.232v4c6.231 0 12.525.71 18.883 2.136l.875-3.904zm-19.758-2.232c-7.763 0-13.958 1.189-18.332 3.813l2.058 3.43c3.465-2.08 8.806-3.243 16.275-3.243v-4zm-18.296 3.792c-4.537 2.592-6.888 6.611-6.888 11.816h4c0-3.755 1.57-6.456 4.873-8.343l-1.985-3.473zm-6.888 11.816c0 2.967.62 5.63 1.957 7.902l3.447-2.028c-.903-1.536-1.404-3.465-1.404-5.874h-4zm1.984 7.948c1.323 2.116 3.26 3.89 5.707 5.359l2.059-3.43c-2.032-1.22-3.456-2.58-4.373-4.049l-3.392 2.12zm5.744 5.38c2.485 1.42 5.513 2.754 9.06 4.013l1.337-3.77c-3.397-1.205-6.193-2.447-8.412-3.715l-1.985 3.472zm9.078 4.02c3.62 1.244 7.905 2.596 12.852 4.058l1.133-3.836c-4.909-1.45-9.136-2.785-12.684-4.005l-1.3 3.782zm12.878 4.066c6.307 1.77 11.864 3.753 16.68 5.943l1.656-3.642c-5.039-2.29-10.794-4.339-17.255-6.153l-1.081 3.852zm16.73 5.965c4.89 2.064 8.9 4.481 12.069 7.228l2.62-3.022c-3.551-3.078-7.942-5.7-13.133-7.892l-1.555 3.686zM6.07 69.436c3.25 2.621 5.687 5.689 7.342 9.207l3.62-1.704c-1.93-4.098-4.758-7.638-8.451-10.617L6.07 69.437zm7.342 9.207c1.642 3.488 2.497 7.666 2.497 12.588h4c0-5.382-.936-10.164-2.878-14.292l-3.62 1.704zm2.497 12.588c0 10.598-4.035 18.717-12.112 24.591l2.353 3.234c9.171-6.67 13.76-16.023 13.76-27.825h-4zM3.801 115.82c-8.042 5.82-19.608 8.86-34.947 8.86v4c15.796 0 28.31-3.12 37.292-9.62l-2.345-3.24zM85.069 125h-2v2h2v-2zm0-122.64v-2h-2v2h2zm29.568 0l1.834-.797-.523-1.203h-1.311v2zm31.248 71.904l-1.834.797.522 1.203h1.312v-2zm.336 0v2h1.311l.523-1.203-1.834-.797zM177.469 2.36v-2h-1.312l-.522 1.203 1.834.797zm29.568 0h2v-2h-2v2zm0 122.64v2h2v-2h-2zm-23.52 0h-2v2h2v-2zm0-85.68h2v-2h-2v2zm-.336 0v-2h-1.306l-.525 1.195 1.831.805zm-26.208 59.64v2h1.306l.525-1.195-1.831-.805zm-21.84 0l-1.831.805.525 1.195h1.306v-2zm-26.208-59.64l1.831-.805-.525-1.195h-1.306v2zm-.336 0v-2h-2v2h2zm0 85.68v2h2v-2h-2zm-21.52 0V2.36h-4V125h4zm-2-120.64h29.568v-4H85.069v4zm27.734-1.203l31.248 71.904 3.668-1.594-31.248-71.904-3.668 1.594zm33.082 73.107h.336v-4h-.336v4zm2.17-1.203l31.248-71.904-3.668-1.594-31.248 71.904 3.668 1.594zM177.469 4.36h29.568v-4h-29.568v4zm27.568-2V125h4V2.36h-4zm2 120.64h-23.52v4h23.52v-4zm-21.52 2V39.32h-4V125h4zm-2-87.68h-.336v4h.336v-4zm-2.167 1.195l-26.208 59.64 3.662 1.61 26.208-59.64-3.662-1.61zM156.973 96.96h-21.84v4h21.84v-4zm-20.009 1.195l-26.208-59.64-3.662 1.61 26.208 59.64 3.662-1.61zM108.925 37.32h-.336v4h.336v-4zm-2.336 2V125h4V39.32h-4zm2 83.68h-23.52v4h23.52v-4zm113.212 2l-1.89-.653-.916 2.653h2.806v-2zM264.137 2.36v-2h-1.425l-.465 1.347 1.89.653zm31.752 0l1.891-.653-.465-1.347h-1.426v2zM338.225 125v2h2.806l-.915-2.653-1.891.653zm-25.872 0l-1.908.6.44 1.4h1.468v-2zM280.097 22.352l1.908-.6-.44-1.4h-1.468v2zm-.336 0v-2h-1.47l-.439 1.403 1.909.597zM247.673 125v2h1.47l.439-1.403-1.909-.597zm-1.176-28.056h-2v2h2v-2zm0-20.496v-2h-2v2h2zm67.2 0h2v-2h-2v2zm0 20.496v2h2v-2h-2zm-90.005 28.709l42.336-122.64-3.781-1.306-42.336 122.64 3.781 1.306zM264.137 4.36h31.752v-4h-31.752v4zm29.862-1.347l42.336 122.64 3.781-1.306L297.78 1.707l-3.781 1.306zM338.225 123h-25.872v4h25.872v-4zm-23.964 1.4L282.005 21.752l-3.816 1.2L310.445 125.6l3.816-1.2zM280.097 20.352h-.336v4h.336v-4zm-2.245 1.403l-32.088 102.648 3.818 1.194L281.67 22.949l-3.818-1.194zM247.673 123h-25.872v4h25.872v-4zm.824-26.056V76.448h-4v20.496h4zm-2-18.496h67.2v-4h-67.2v4zm65.2-2v20.496h4V76.448h-4zm2 18.496h-67.2v4h67.2v-4zM372.403 125l-1.894.643.461 1.357h1.433v-2zM330.739 2.36v-2h-2.792l.898 2.643 1.894-.643zm25.872 0l1.908-.598L358.08.36h-1.469v2zm31.08 99.12l-1.909.598.44 1.402h1.469v-2zm.336 0v2h1.469l.439-1.402-1.908-.598zm31.08-99.12v-2h-1.469l-.44 1.402 1.909.598zm25.872 0l1.893.646.902-2.646h-2.795v2zM403.147 125v2h1.431l.462-1.354-1.893-.646zm-28.851-.643L332.632 1.717l-3.787 1.286 41.664 122.64 3.787-1.286zM330.739 4.36h25.872v-4h-25.872v4zm23.963-1.402l31.08 99.12 3.817-1.196-31.08-99.12-3.817 1.196zm32.989 100.522h.336v-4h-.336v4zm2.244-1.402l31.08-99.12-3.817-1.196-31.08 99.12 3.817 1.196zM419.107 4.36h25.872v-4h-25.872v4zm23.979-2.646l-41.832 122.64 3.786 1.292 41.832-122.64-3.786-1.292zM403.147 123h-30.744v4h30.744v-4zm68.479 1.16l-.439 1.951.013.003.013.003.413-1.957zm-19.824-7.224l-1.935-.504-.385 1.478 1.324.76.996-1.734zm5.376-20.664l.895-1.789-2.209-1.104-.621 2.39 1.935.503zm12.6 5.208l-.646 1.893.021.007.021.006.604-1.906zm14.112 3.528l-.366 1.966.023.004.022.004.321-1.974zm34.608-20.664l-1.679 1.087.015.023.016.023 1.648-1.133zm-5.544-4.872l-1.017 1.722.029.017.031.017.957-1.756zm-22.848-7.896l-.544 1.924.02.006.019.005.505-1.935zm-15.96-5.712l.825-1.822-.825 1.822zm-12.096-7.56l-1.335 1.49.013.01.012.011 1.31-1.511zm-7.56-10.08l-1.838.788.014.032.015.032 1.809-.852zm10.08-38.64l1.14 1.644.007-.005.008-.006-1.155-1.633zm58.296-6.72l-.381 1.963.017.004.017.003.347-1.97zm19.656 5.712l1.932.518.441-1.645-1.554-.698-.819 1.825zm-5.544 20.664l-.864 1.804 2.172 1.04.624-2.326-1.932-.518zm-17.808-5.88l-.437 1.952.016.003.016.003.405-1.958zm-36.624 1.344l.993 1.736.018-.01.018-.011-1.029-1.715zm-4.2 16.968l-1.724 1.014.014.023.014.023 1.696-1.06zm5.04 4.704l-1.029 1.715.019.01.018.011.992-1.736zm8.736 3.864l-.669 1.885.01.003.009.003.65-1.891zm12.768 4.032l-.566 1.918.013.004.013.004.54-1.926zm16.968 6.048l-.827 1.82.024.012.025.01.778-1.842zm12.6 7.56l-1.31 1.511.027.024.028.022 1.255-1.557zm7.896 9.912l-1.809.852 1.809-.852zm-10.248 39.648l1.173 1.62.004-.003-1.177-1.617zm-36.12 7.24c-8.152 0-16.133-.826-23.946-2.477l-.827 3.914c8.091 1.709 16.349 2.563 24.773 2.563v-4zm-23.92-2.471c-7.819-1.762-14.225-4.11-19.267-7.007l-1.993 3.468c5.486 3.151 12.296 5.619 20.381 7.441l.879-3.902zm-18.328-4.769l5.376-20.664-3.871-1.008-5.376 20.664 3.871 1.008zm2.546-19.38c3.898 1.95 8.183 3.72 12.848 5.313l1.293-3.786c-4.519-1.543-8.635-3.245-12.352-5.104l-1.789 3.578zm12.89 5.326a120.01 120.01 0 0014.35 3.588l.732-3.932a116.098 116.098 0 01-13.873-3.469l-1.209 3.813zm14.395 3.596c4.907.799 9.551 1.202 13.929 1.202v-4c-4.134 0-8.562-.381-13.286-1.15l-.643 3.948zm13.929 1.202c7.576 0 13.683-1.312 18.067-4.193l-2.197-3.342c-3.456 2.271-8.662 3.535-15.87 3.535v4zm18.067-4.193c4.516-2.967 6.781-7.366 6.781-12.927h-4c0 4.295-1.654 7.4-4.978 9.585l2.197 3.342zm6.781-12.927c0-2.996-.689-5.656-2.2-7.853l-3.296 2.266c.954 1.387 1.496 3.207 1.496 5.587h4zm-2.169-7.806c-1.451-2.243-3.577-4.076-6.265-5.542l-1.915 3.512c2.24 1.222 3.809 2.637 4.822 4.203l3.358-2.174zm-6.205-5.508c-2.63-1.554-5.913-2.952-9.81-4.213l-1.231 3.806c3.718 1.203 6.708 2.493 9.006 3.85l2.035-3.443zm-9.81-4.213c-3.854-1.247-8.373-2.546-13.551-3.896l-1.01 3.87c5.127 1.338 9.568 2.615 13.33 3.832l1.231-3.806zm-13.511-3.885c-5.858-1.658-11.082-3.53-15.68-5.61l-1.649 3.644c4.81 2.176 10.226 4.112 16.24 5.814l1.089-3.848zm-15.68-5.61c-4.556-2.061-8.418-4.482-11.611-7.25l-2.62 3.023c3.528 3.057 7.73 5.676 12.582 7.871l1.649-3.644zm-11.586-7.227c-3.056-2.74-5.411-5.886-7.085-9.443l-3.619 1.704c1.91 4.059 4.594 7.633 8.034 10.717l2.67-2.978zm-7.056-9.379c-1.556-3.63-2.359-7.834-2.359-12.652h-4c0 5.262.878 10.018 2.682 14.228l3.677-1.576zm-2.359-12.652c0-10.377 3.924-18.137 11.74-23.556l-2.279-3.288c-8.984 6.23-13.461 15.27-13.461 26.844h4zm11.755-23.567c7.933-5.606 19.338-8.537 34.461-8.537v-4c-15.565 0-27.903 3.005-36.77 9.27l2.309 3.267zm34.461-8.537c7.488 0 14.92.716 22.299 2.147l.762-3.926a120.795 120.795 0 00-23.061-2.221v4zm22.333 2.154c7.497 1.323 13.882 3.186 19.184 5.566l1.638-3.649c-5.674-2.547-12.392-4.492-20.127-5.857l-.695 3.94zm18.072 3.224l-5.544 20.664 3.863 1.036 5.544-20.664-3.863-1.036zm-2.748 19.378c-5.538-2.653-11.63-4.661-18.267-6.035l-.811 3.918c6.355 1.314 12.135 3.226 17.349 5.725l1.729-3.608zm-18.235-6.028c-6.634-1.486-13.22-2.232-19.758-2.232v4c6.231 0 12.524.71 18.883 2.136l.875-3.904zm-19.758-2.232c-7.763 0-13.959 1.189-18.333 3.813l2.058 3.43c3.466-2.08 8.807-3.243 16.275-3.243v-4zm-18.296 3.792c-4.537 2.592-6.888 6.611-6.888 11.816h4c0-3.755 1.57-6.456 4.873-8.343l-1.985-3.473zm-6.888 11.816c0 2.967.62 5.63 1.956 7.902l3.448-2.028c-.904-1.536-1.404-3.465-1.404-5.874h-4zm1.984 7.948c1.323 2.116 3.259 3.89 5.707 5.359l2.058-3.43c-2.032-1.22-3.455-2.58-4.373-4.049l-3.392 2.12zm5.744 5.38c2.484 1.42 5.512 2.754 9.059 4.013l1.338-3.77c-3.397-1.205-6.193-2.447-8.412-3.715l-1.985 3.472zm9.078 4.02c3.619 1.244 7.905 2.596 12.852 4.058l1.133-3.836c-4.909-1.45-9.136-2.785-12.685-4.005l-1.3 3.782zm12.878 4.066c6.307 1.77 11.864 3.753 16.681 5.943l1.655-3.642c-5.039-2.29-10.794-4.339-17.255-6.153l-1.081 3.852zm16.73 5.965c4.89 2.064 8.899 4.481 12.068 7.228l2.62-3.022c-3.55-3.078-7.941-5.7-13.132-7.892l-1.556 3.686zm12.123 7.274c3.251 2.621 5.686 5.689 7.342 9.207l3.619-1.704c-1.929-4.098-4.757-7.638-8.45-10.617l-2.511 3.114zm7.342 9.207c1.641 3.488 2.497 7.666 2.497 12.588h4c0-5.382-.936-10.164-2.878-14.292l-3.619 1.704zm2.497 12.588c0 10.598-4.035 18.717-12.112 24.591l2.353 3.234c9.171-6.67 13.759-16.023 13.759-27.825h-4zm-12.108 24.588c-8.042 5.82-19.608 8.86-34.948 8.86v4c15.796 0 28.311-3.12 37.293-9.62l-2.345-3.24zm81.268 9.18h-2v2h2v-2zm0-122.64v-2h-2v2h2zm29.568 0l1.834-.797-.523-1.203h-1.311v2zm31.248 71.904l-1.835.797.523 1.203h1.312v-2zm.336 0v2h1.311l.523-1.203-1.834-.797zM704.602 2.36v-2h-1.312l-.523 1.203 1.835.797zm29.568 0h2v-2h-2v2zm0 122.64v2h2v-2h-2zm-23.52 0h-2v2h2v-2zm0-85.68h2v-2h-2v2zm-.336 0v-2h-1.306l-.525 1.195 1.831.805zm-26.208 59.64v2h1.305l.526-1.195-1.831-.805zm-21.84 0l-1.831.805.525 1.195h1.306v-2zm-26.208-59.64l1.831-.805-.526-1.195h-1.305v2zm-.336 0v-2h-2v2h2zm0 85.68v2h2v-2h-2zm-21.52 0V2.36h-4V125h4zm-2-120.64h29.568v-4h-29.568v4zm27.733-1.203l31.248 71.904 3.669-1.594-31.248-71.904-3.669 1.594zm33.083 73.107h.336v-4h-.336v4zm2.17-1.203l31.248-71.904-3.669-1.594-31.248 71.904 3.669 1.594zM704.602 4.36h29.568v-4h-29.568v4zm27.568-2V125h4V2.36h-4zm2 120.64h-23.52v4h23.52v-4zm-21.52 2V39.32h-4V125h4zm-2-87.68h-.336v4h.336v-4zm-2.167 1.195l-26.208 59.64 3.662 1.61 26.208-59.64-3.662-1.61zM684.106 96.96h-21.84v4h21.84v-4zm-20.009 1.195l-26.208-59.64-3.662 1.61 26.208 59.64 3.662-1.61zM636.058 37.32h-.336v4h.336v-4zm-2.336 2V125h4V39.32h-4zm2 83.68h-23.52v4h23.52v-4zm113.212 2l-1.891-.653-.915 2.653h2.806v-2zM791.27 2.36v-2h-1.426l-.465 1.347 1.891.653zm31.752 0l1.89-.653-.465-1.347h-1.425v2zM865.358 125v2h2.806l-.916-2.653-1.89.653zm-25.872 0l-1.908.6.44 1.4h1.468v-2zM807.23 22.352l1.908-.6-.44-1.4h-1.468v2zm-.336 0v-2h-1.47l-.439 1.403 1.909.597zM774.806 125v2h1.47l.439-1.403-1.909-.597zm-1.176-28.056h-2v2h2v-2zm0-20.496v-2h-2v2h2zm67.2 0h2v-2h-2v2zm0 20.496v2h2v-2h-2zm-90.006 28.709l42.337-122.64-3.782-1.306-42.336 122.64 3.781 1.306zM791.27 4.36h31.752v-4H791.27v4zm29.861-1.347l42.336 122.64 3.781-1.306-42.336-122.64-3.781 1.306zM865.358 123h-25.872v4h25.872v-4zm-23.964 1.4L809.138 21.752l-3.816 1.2L837.578 125.6l3.816-1.2zM807.23 20.352h-.336v4h.336v-4zm-2.245 1.403l-32.088 102.648 3.818 1.194 32.088-102.648-3.818-1.194zM774.806 123h-25.872v4h25.872v-4zm.824-26.056V76.448h-4v20.496h4zm-2-18.496h67.2v-4h-67.2v4zm65.2-2v20.496h4V76.448h-4zm2 18.496h-67.2v4h67.2v-4zM899.535 125l-1.893.643.461 1.357h1.432v-2zM857.871 2.36v-2h-2.791l.898 2.643 1.893-.643zm25.872 0l1.909-.598-.44-1.402h-1.469v2zm31.08 99.12l-1.908.598.439 1.402h1.469v-2zm.336 0v2h1.469l.44-1.402-1.909-.598zm31.08-99.12v-2h-1.468l-.44 1.402 1.908.598zm25.872 0l1.893.646.903-2.646h-2.796v2zM930.279 125v2h1.431l.462-1.354-1.893-.646zm-28.85-.643L859.765 1.717l-3.787 1.286 41.664 122.64 3.787-1.286zM857.871 4.36h25.872v-4h-25.872v4zm23.964-1.402l31.08 99.12 3.817-1.196-31.08-99.12-3.817 1.196zm32.988 100.522h.336v-4h-.336v4zm2.245-1.402l31.08-99.12-3.817-1.196-31.08 99.12 3.817 1.196zM946.239 4.36h25.872v-4h-25.872v4zm23.98-2.646l-41.833 122.64 3.786 1.292 41.832-122.64-3.785-1.292zM930.279 123h-30.744v4h30.744v-4zm68.48 1.16l-.44 1.951.014.003.013.003.413-1.957zm-19.824-7.224l-1.935-.504-.385 1.478 1.324.76.996-1.734zm5.376-20.664l.895-1.789-2.209-1.104-.621 2.39 1.935.503zm12.6 5.208l-.646 1.893.021.007.021.006.604-1.906zm14.109 3.528l-.36 1.966.02.004.02.004.32-1.974zm34.61-20.664l-1.68 1.087.02.023.01.023 1.65-1.133zm-5.54-4.872l-1.02 1.722.03.017.03.017.96-1.756zm-22.85-7.896l-.55 1.924.02.006.02.005.51-1.935zm-15.96-5.712l.82-1.822-.82 1.822zm-12.097-7.56l-1.335 1.49.013.01.012.011 1.31-1.511zm-7.56-10.08l-1.838.788.014.032.014.032 1.81-.852zm10.08-38.64l1.14 1.644.007-.005.007-.006-1.154-1.633zM1050 2.864l-.38 1.963.01.004.02.003.35-1.97zm19.66 5.712l1.93.518.44-1.645-1.56-.698-.81 1.825zm-5.55 20.664l-.86 1.804 2.17 1.04.62-2.326-1.93-.518zm-17.81-5.88l-.43 1.952.01.003.02.003.4-1.958zm-36.62 1.344l.99 1.736.02-.01.02-.011-1.03-1.715zm-4.2 16.968l-1.72 1.014.01.023.01.023 1.7-1.06zm5.04 4.704l-1.03 1.715.02.01.02.011.99-1.736zm8.74 3.864l-.67 1.885.01.003v.003l.66-1.891zm12.76 4.032l-.56 1.918.01.004.01.004.54-1.926zm16.97 6.048l-.83 1.82.03.012.02.01.78-1.842zm12.6 7.56l-1.31 1.511.03.024.03.022 1.25-1.557zm7.9 9.912l-1.81.852 1.81-.852zm-10.25 39.648l1.17 1.62.01-.003-1.18-1.617zm-36.12 7.24c-8.15 0-16.13-.826-23.948-2.477l-.826 3.914c8.094 1.709 16.344 2.563 24.774 2.563v-4zm-23.921-2.471c-7.819-1.762-14.225-4.11-19.268-7.007l-1.992 3.468c5.485 3.151 12.295 5.619 20.38 7.441l.88-3.902zm-18.328-4.769l5.376-20.664-3.871-1.008L977 116.432l3.871 1.008zm2.546-19.38c3.898 1.95 8.182 3.72 12.848 5.313l1.292-3.786c-4.518-1.543-8.634-3.245-12.351-5.104l-1.789 3.578zm12.89 5.326a119.915 119.915 0 0014.353 3.588l.73-3.932c-4.74-.881-9.36-2.038-13.874-3.469l-1.209 3.813zm14.393 3.596c4.91.799 9.55 1.202 13.93 1.202v-4c-4.13 0-8.56-.381-13.29-1.15l-.64 3.948zm13.93 1.202c7.58 0 13.68-1.312 18.07-4.193l-2.2-3.342c-3.46 2.271-8.66 3.535-15.87 3.535v4zm18.07-4.193c4.51-2.967 6.78-7.366 6.78-12.927h-4c0 4.295-1.66 7.4-4.98 9.585l2.2 3.342zm6.78-12.927c0-2.996-.69-5.656-2.2-7.853l-3.3 2.266c.96 1.387 1.5 3.207 1.5 5.587h4zm-2.17-7.806c-1.45-2.243-3.58-4.076-6.27-5.542l-1.91 3.512c2.24 1.222 3.81 2.637 4.82 4.203l3.36-2.174zm-6.21-5.508c-2.63-1.554-5.91-2.952-9.81-4.213l-1.23 3.806c3.72 1.203 6.71 2.493 9.01 3.85l2.03-3.443zm-9.81-4.213c-3.85-1.247-8.37-2.546-13.55-3.896l-1.01 3.87c5.13 1.338 9.57 2.615 13.33 3.832l1.23-3.806zm-13.51-3.885c-5.85-1.658-11.08-3.53-15.68-5.61l-1.65 3.644c4.81 2.176 10.23 4.112 16.24 5.814l1.09-3.848zm-15.68-5.61c-4.552-2.061-8.414-4.482-11.607-7.25l-2.62 3.023c3.528 3.057 7.729 5.676 12.577 7.871l1.65-3.644zm-11.582-7.227c-3.056-2.74-5.411-5.886-7.085-9.443l-3.62 1.704c1.911 4.059 4.595 7.633 8.035 10.717l2.67-2.978zm-7.057-9.379c-1.555-3.63-2.358-7.834-2.358-12.652h-4c0 5.262.878 10.018 2.682 14.228l3.676-1.576zm-2.358-12.652c0-10.377 3.924-18.137 11.74-23.556l-2.279-3.288c-8.985 6.23-13.461 15.27-13.461 26.844h4zm11.754-23.567c7.933-5.606 19.343-8.537 34.463-8.537v-4c-15.57 0-27.905 3.005-36.771 9.27l2.308 3.267zm34.463-8.537c7.49 0 14.92.716 22.3 2.147l.76-3.926a120.83 120.83 0 00-23.06-2.221v4zm22.33 2.154c7.5 1.323 13.88 3.186 19.19 5.566l1.63-3.649c-5.67-2.547-12.39-4.492-20.12-5.857l-.7 3.94zm18.07 3.224l-5.54 20.664 3.86 1.036 5.55-20.664-3.87-1.036zm-2.74 19.378c-5.54-2.653-11.63-4.661-18.27-6.035l-.81 3.918c6.35 1.314 12.13 3.226 17.35 5.725l1.73-3.608zm-18.24-6.028c-6.63-1.486-13.22-2.232-19.76-2.232v4c6.23 0 12.53.71 18.89 2.136l.87-3.904zm-19.76-2.232c-7.76 0-13.96 1.189-18.33 3.813l2.06 3.43c3.46-2.08 8.8-3.243 16.27-3.243v-4zm-18.29 3.792c-4.54 2.592-6.89 6.611-6.89 11.816h4c0-3.755 1.57-6.456 4.87-8.343l-1.98-3.473zm-6.89 11.816c0 2.967.62 5.63 1.96 7.902l3.44-2.028c-.9-1.536-1.4-3.465-1.4-5.874h-4zm1.98 7.948c1.33 2.116 3.26 3.89 5.71 5.359l2.06-3.43c-2.03-1.22-3.46-2.58-4.37-4.049l-3.4 2.12zm5.75 5.38c2.48 1.42 5.51 2.754 9.06 4.013l1.33-3.77c-3.39-1.205-6.19-2.447-8.41-3.715l-1.98 3.472zm9.07 4.02c3.62 1.244 7.91 2.596 12.86 4.058l1.13-3.836c-4.91-1.45-9.14-2.785-12.68-4.005l-1.31 3.782zm12.88 4.066c6.31 1.77 11.87 3.753 16.68 5.943l1.66-3.642c-5.04-2.29-10.8-4.339-17.26-6.153l-1.08 3.852zm16.73 5.965c4.89 2.064 8.9 4.481 12.07 7.228l2.62-3.022c-3.55-3.078-7.94-5.7-13.13-7.892l-1.56 3.686zm12.13 7.274c3.25 2.621 5.68 5.689 7.34 9.207l3.62-1.704c-1.93-4.098-4.76-7.638-8.45-10.617l-2.51 3.114zm7.34 9.207c1.64 3.488 2.5 7.666 2.5 12.588h4c0-5.382-.94-10.164-2.88-14.292l-3.62 1.704zm2.5 12.588c0 10.598-4.04 18.717-12.12 24.591l2.36 3.234c9.17-6.67 13.76-16.023 13.76-27.825h-4zm-12.11 24.588c-8.05 5.82-19.61 8.86-34.95 8.86v4c15.8 0 28.31-3.12 37.29-9.62l-2.34-3.24zm81.26 9.18h-2v2h2v-2zm0-122.64v-2h-2v2h2zm29.57 0l1.84-.797-.53-1.203h-1.31v2zm31.25 71.904l-1.83.797.52 1.203h1.31v-2zm.34 0v2h1.31l.52-1.203-1.83-.797zm31.24-71.904v-2h-1.31l-.52 1.203 1.83.797zm29.57 0h2v-2h-2v2zm0 122.64v2h2v-2h-2zm-23.52 0h-2v2h2v-2zm0-85.68h2v-2h-2v2zm-.33 0v-2h-1.31l-.52 1.195 1.83.805zm-26.21 59.64v2h1.3l.53-1.195-1.83-.805zm-21.84 0l-1.83.805.52 1.195h1.31v-2zm-26.21-59.64l1.83-.805-.52-1.195h-1.31v2zm-.34 0v-2h-2v2h2zm0 85.68v2h2v-2h-2zm-21.52 0V2.36h-4V125h4zm-2-120.64h29.57v-4h-29.57v4zm27.74-1.203l31.25 71.904 3.66-1.594-31.24-71.904-3.67 1.594zm33.08 73.107h.34v-4h-.34v4zm2.17-1.203l31.25-71.904-3.67-1.594-31.25 71.904 3.67 1.594zm29.41-70.701h29.57v-4h-29.57v4zm27.57-2V125h4V2.36h-4zm2 120.64h-23.52v4h23.52v-4zm-21.52 2V39.32h-4V125h4zm-2-87.68h-.33v4h.33v-4zm-2.16 1.195l-26.21 59.64 3.66 1.61 26.21-59.64-3.66-1.61zm-24.38 58.445h-21.84v4h21.84v-4zm-20.01 1.195l-26.21-59.64-3.66 1.61 26.21 59.64 3.66-1.61zm-28.04-60.835h-.34v4h.34v-4zm-2.34 2V125h4V39.32h-4zm2 83.68h-23.52v4h23.52v-4zm113.22 2l-1.89-.653-.92 2.653h2.81v-2zM1318.4 2.36v-2h-1.42l-.47 1.347 1.89.653zm31.75 0l1.9-.653-.47-1.347h-1.43v2zM1392.49 125v2h2.81l-.92-2.653-1.89.653zm-25.87 0l-1.91.6.44 1.4h1.47v-2zm-32.26-102.648l1.91-.6-.44-1.4h-1.47v2zm-.33 0v-2h-1.47l-.44 1.403 1.91.597zM1301.94 125v2h1.47l.44-1.403-1.91-.597zm-1.18-28.056h-2v2h2v-2zm0-20.496v-2h-2v2h2zm67.2 0h2v-2h-2v2zm0 20.496v2h2v-2h-2zm-90 28.709l42.33-122.64-3.78-1.306-42.33 122.64 3.78 1.306zM1318.4 4.36h31.75v-4h-31.75v4zm29.86-1.347l42.34 122.64 3.78-1.306-42.33-122.64-3.79 1.306zM1392.49 123h-25.87v4h25.87v-4zm-23.96 1.4l-32.26-102.648-3.82 1.2 32.26 102.648 3.82-1.2zm-34.17-104.048h-.33v4h.33v-4zm-2.24 1.403l-32.09 102.648 3.82 1.194 32.09-102.648-3.82-1.194zM1301.94 123h-25.87v4h25.87v-4zm.82-26.056V76.448h-4v20.496h4zm-2-18.496h67.2v-4h-67.2v4zm65.2-2v20.496h4V76.448h-4zm2 18.496h-67.2v4h67.2v-4zM1426.67 125l-1.9.643.47 1.357h1.43v-2zM1385 2.36v-2h-2.79l.9 2.643 1.89-.643zm25.88 0l1.9-.598-.43-1.402h-1.47v2zm31.08 99.12l-1.91.598.44 1.402h1.47v-2zm.33 0v2h1.47l.44-1.402-1.91-.598zm31.08-99.12v-2h-1.47l-.44 1.402 1.91.598zm25.87 0l1.9.646.9-2.646h-2.8v2zM1457.41 125v2h1.43l.47-1.354-1.9-.646zm-28.85-.643L1386.9 1.717l-3.79 1.286 41.66 122.64 3.79-1.286zM1385 4.36h25.88v-4H1385v4zm23.97-1.402l31.08 99.12 3.81-1.196-31.08-99.12-3.81 1.196zm32.99 100.522h.33v-4h-.33v4zm2.24-1.402l31.08-99.12-3.82-1.196-31.08 99.12 3.82 1.196zm29.17-97.718h25.87v-4h-25.87v4zm23.98-2.646l-41.83 122.64 3.79 1.292 41.83-122.64-3.79-1.292zM1457.41 123h-30.74v4h30.74v-4zm68.48 1.16l-.44 1.951.02.003.01.003.41-1.957zm-19.82-7.224l-1.94-.504-.38 1.478 1.32.76 1-1.734zm5.37-20.664l.9-1.789-2.21-1.104-.62 2.39 1.93.503zm12.6 5.208l-.64 1.893.02.007.02.006.6-1.906zm14.12 3.528l-.37 1.966.02.004.02.004.33-1.974zm34.6-20.664l-1.68 1.087.02.023.02.023 1.64-1.133zm-5.54-4.872l-1.02 1.722.03.017.03.017.96-1.756zm-22.85-7.896l-.54 1.924.02.006.02.005.5-1.935zm-15.96-5.712l.83-1.822-.83 1.822zm-12.09-7.56l-1.34 1.49.01.01.02.011 1.31-1.511zm-7.56-10.08l-1.84.788.01.032.02.032 1.81-.852zm10.08-38.64l1.14 1.644v-.005l.01-.006-1.15-1.633zm58.29-6.72l-.38 1.963.02.004.01.003.35-1.97zm19.66 5.712l1.93.518.44-1.645-1.55-.698-.82 1.825zm-5.55 20.664l-.86 1.804 2.17 1.04.63-2.326-1.94-.518zm-17.8-5.88l-.44 1.952.01.003.02.003.41-1.958zm-36.63 1.344l.99 1.736.02-.01.02-.011-1.03-1.715zm-4.2 16.968l-1.72 1.014.01.023.02.023 1.69-1.06zm5.04 4.704l-1.03 1.715.02.01.02.011.99-1.736zm8.74 3.864l-.67 1.885.01.003.01.003.65-1.891zm12.77 4.032l-.57 1.918.01.004.02.004.54-1.926zm16.96 6.048l-.82 1.82.02.012.03.01.77-1.842zm12.6 7.56l-1.31 1.511.03.024.03.022 1.25-1.557zm7.9 9.912l-1.81.852 1.81-.852zm-10.25 39.648l1.17 1.62.01-.003-1.18-1.617zm-36.12 7.24c-8.15 0-16.13-.826-23.94-2.477l-.83 3.914c8.09 1.709 16.35 2.563 24.77 2.563v-4zm-23.92-2.471c-7.82-1.762-14.22-4.11-19.27-7.007l-1.99 3.468c5.49 3.151 12.3 5.619 20.38 7.441l.88-3.902zM1508 117.44l5.38-20.664-3.87-1.008-5.38 20.664 3.87 1.008zm2.55-19.38c3.9 1.95 8.18 3.72 12.85 5.313l1.29-3.786c-4.52-1.543-8.63-3.245-12.35-5.104l-1.79 3.578zm12.89 5.326c4.67 1.482 9.45 2.677 14.35 3.588l.73-3.932a116.29 116.29 0 01-13.87-3.469l-1.21 3.813zm14.39 3.596c4.91.799 9.56 1.202 13.93 1.202v-4c-4.13 0-8.56-.381-13.28-1.15l-.65 3.948zm13.93 1.202c7.58 0 13.69-1.312 18.07-4.193l-2.2-3.342c-3.45 2.271-8.66 3.535-15.87 3.535v4zm18.07-4.193c4.52-2.967 6.78-7.366 6.78-12.927h-4c0 4.295-1.65 7.4-4.98 9.585l2.2 3.342zm6.78-12.927c0-2.996-.69-5.656-2.2-7.853l-3.29 2.266c.95 1.387 1.49 3.207 1.49 5.587h4zm-2.17-7.806c-1.45-2.243-3.57-4.076-6.26-5.542l-1.92 3.512c2.24 1.222 3.81 2.637 4.82 4.203l3.36-2.174zm-6.2-5.508c-2.63-1.554-5.92-2.952-9.81-4.213l-1.23 3.806c3.72 1.203 6.7 2.493 9 3.85l2.04-3.443zm-9.81-4.213c-3.86-1.247-8.38-2.546-13.55-3.896l-1.01 3.87c5.12 1.338 9.56 2.615 13.33 3.832l1.23-3.806zm-13.51-3.885c-5.86-1.658-11.09-3.53-15.68-5.61l-1.65 3.644c4.81 2.176 10.22 4.112 16.24 5.814l1.09-3.848zm-15.68-5.61c-4.56-2.061-8.42-4.482-11.61-7.25l-2.62 3.023c3.52 3.057 7.73 5.676 12.58 7.871l1.65-3.644zm-11.59-7.227c-3.06-2.74-5.41-5.886-7.08-9.443l-3.62 1.704c1.91 4.059 4.59 7.633 8.03 10.717l2.67-2.978zm-7.06-9.379c-1.55-3.63-2.35-7.834-2.35-12.652h-4c0 5.262.87 10.018 2.68 14.228l3.67-1.576zm-2.35-12.652c0-10.377 3.92-18.137 11.74-23.556l-2.28-3.288c-8.99 6.23-13.46 15.27-13.46 26.844h4zm11.75-23.567c7.93-5.606 19.34-8.537 34.46-8.537v-4c-15.56 0-27.9 3.005-36.77 9.27l2.31 3.267zm34.46-8.537c7.49 0 14.92.716 22.3 2.147l.76-3.926a120.774 120.774 0 00-23.06-2.221v4zm22.33 2.154c7.5 1.323 13.89 3.186 19.19 5.566l1.64-3.649c-5.68-2.547-12.4-4.492-20.13-5.857l-.7 3.94zm18.08 3.224l-5.55 20.664 3.87 1.036 5.54-20.664-3.86-1.036zm-2.75 19.378c-5.54-2.653-11.63-4.661-18.27-6.035l-.81 3.918c6.36 1.314 12.14 3.226 17.35 5.725l1.73-3.608zm-18.24-6.028c-6.63-1.486-13.22-2.232-19.75-2.232v4c6.23 0 12.52.71 18.88 2.136l.87-3.904zm-19.75-2.232c-7.77 0-13.96 1.189-18.34 3.813l2.06 3.43c3.47-2.08 8.81-3.243 16.28-3.243v-4zm-18.3 3.792c-4.54 2.592-6.89 6.611-6.89 11.816h4c0-3.755 1.57-6.456 4.87-8.343l-1.98-3.473zm-6.89 11.816c0 2.967.62 5.63 1.96 7.902l3.45-2.028c-.91-1.536-1.41-3.465-1.41-5.874h-4zm1.99 7.948c1.32 2.116 3.25 3.89 5.7 5.359l2.06-3.43c-2.03-1.22-3.45-2.58-4.37-4.049l-3.39 2.12zm5.74 5.38c2.48 1.42 5.51 2.754 9.06 4.013l1.34-3.77c-3.4-1.205-6.2-2.447-8.42-3.715l-1.98 3.472zm9.08 4.02c3.62 1.244 7.9 2.596 12.85 4.058l1.13-3.836c-4.91-1.45-9.13-2.785-12.68-4.005l-1.3 3.782zm12.88 4.066c6.3 1.77 11.86 3.753 16.68 5.943l1.65-3.642c-5.04-2.29-10.79-4.339-17.25-6.153l-1.08 3.852zm16.73 5.965c4.89 2.064 8.89 4.481 12.06 7.228l2.62-3.022c-3.55-3.078-7.94-5.7-13.13-7.892l-1.55 3.686zm12.12 7.274c3.25 2.621 5.69 5.689 7.34 9.207l3.62-1.704c-1.93-4.098-4.76-7.638-8.45-10.617l-2.51 3.114zm7.34 9.207c1.64 3.488 2.5 7.666 2.5 12.588h4c0-5.382-.94-10.164-2.88-14.292l-3.62 1.704zm2.5 12.588c0 10.598-4.04 18.717-12.11 24.591l2.35 3.234c9.17-6.67 13.76-16.023 13.76-27.825h-4zm-12.11 24.588c-8.04 5.82-19.61 8.86-34.95 8.86v4c15.8 0 28.31-3.12 37.29-9.62l-2.34-3.24z" fill="#FFB54B" mask="url(#a)"/></svg>