<svg width="38" height="56" viewBox="0 0 38 56" fill="none" xmlns="http://www.w3.org/2000/svg">
<path d="M19.0049 0L0.814941 31.5H37.1849L19.0049 0Z" fill="url(#paint0_linear_358_143)"/>
<path d="M4.09 45.64C2.08 45.64 0.54 44.3 0.54 41.83C0.54 39.39 2.12 37.97 4.09 37.97C5.15 37.97 5.89 38.43 6.37 38.91L5.59 39.86C5.22 39.51 4.8 39.24 4.14 39.24C2.9 39.24 2.05 40.2 2.05 41.78C2.05 43.4 2.79 44.36 4.24 44.36C4.6 44.36 4.96 44.26 5.17 44.09V42.63H3.85V41.42H6.49V44.75C5.99 45.25 5.11 45.64 4.09 45.64ZM11.018 45.64C9.04797 45.64 7.70797 44.18 7.70797 41.77C7.70797 39.36 9.04797 37.97 11.018 37.97C12.978 37.97 14.318 39.37 14.318 41.77C14.318 44.18 12.978 45.64 11.018 45.64ZM11.018 44.36C12.118 44.36 12.818 43.35 12.818 41.77C12.818 40.19 12.118 39.24 11.018 39.24C9.90797 39.24 9.21797 40.19 9.21797 41.77C9.21797 43.35 9.90797 44.36 11.018 44.36ZM19.5089 45.5V39.33H17.4189V38.1H23.0789V39.33H20.9889V45.5H19.5089ZM26.8676 45.64C24.8976 45.64 23.5576 44.18 23.5576 41.77C23.5576 39.36 24.8976 37.97 26.8676 37.97C28.8276 37.97 30.1676 39.37 30.1676 41.77C30.1676 44.18 28.8276 45.64 26.8676 45.64ZM26.8676 44.36C27.9676 44.36 28.6676 43.35 28.6676 41.77C28.6676 40.19 27.9676 39.24 26.8676 39.24C25.7576 39.24 25.0676 40.19 25.0676 41.77C25.0676 43.35 25.7576 44.36 26.8676 44.36ZM31.6229 45.5V38.1H34.0529C35.6829 38.1 36.9429 38.67 36.9429 40.43C36.9429 42.12 35.6829 42.87 34.0929 42.87H33.1029V45.5H31.6229ZM33.1029 41.7H33.9929C35.0129 41.7 35.5029 41.27 35.5029 40.43C35.5029 39.56 34.9629 39.28 33.9429 39.28H33.1029V41.7Z" fill="#ED1E79"/>
<defs>
<linearGradient id="paint0_linear_358_143" x1="0.814941" y1="15.75" x2="37.1849" y2="15.75" gradientUnits="userSpaceOnUse">
<stop stop-color="#FF00D1"/>
<stop offset="1" stop-color="#F7931E"/>
</linearGradient>
</defs>
</svg>
