<svg width="109" height="109" viewBox="0 0 109 109" fill="none" xmlns="http://www.w3.org/2000/svg">
<g clip-path="url(#clip0_1_86)">
<path d="M54.56 107.25C83.936 107.25 107.75 83.436 107.75 54.06C107.75 24.684 83.936 0.869995 54.56 0.869995C25.184 0.869995 1.37 24.684 1.37 54.06C1.37 83.436 25.184 107.25 54.56 107.25Z" fill="black"/>
<path d="M54.75 1.03C55.96 1.04 57.17 1.09 58.36 1.18L58.04 4.72C56.95 4.64 55.86 4.59 54.74 4.58V1.03H54.75ZM59.38 1.27C60.57 1.38 61.76 1.54 62.95 1.73L62.33 5.23C61.25 5.05 60.16 4.91 59.06 4.8L59.39 1.27H59.38ZM63.95 1.91C65.15 2.12 66.32 2.38 67.48 2.68L66.55 6.11C65.49 5.84 64.42 5.6 63.33 5.4L63.95 1.91ZM68.47 2.93C69.63 3.25 70.78 3.62 71.91 4.01L70.69 7.35C69.65 6.99 68.6 6.65 67.54 6.36L68.46 2.93H68.47ZM76.21 5.74L74.71 8.96C73.7 8.51 72.68 8.09 71.65 7.71L72.87 4.37C73.99 4.79 75.11 5.25 76.21 5.74ZM80.33 7.84L78.55 10.92C77.59 10.38 76.62 9.87 75.62 9.4L77.12 6.18C78.21 6.7 79.27 7.25 80.33 7.85M84.26 10.31L82.23 13.21C81.31 12.59 80.39 12 79.44 11.44L81.21 8.36C82.26 8.97 83.26 9.62 84.26 10.31ZM87.97 13.09L85.69 15.81C84.83 15.11 83.96 14.44 83.07 13.81L85.1 10.9C86.08 11.6 87.04 12.32 87.97 13.1M91.41 16.19L88.9 18.7C88.12 17.93 87.31 17.18 86.47 16.47L88.75 13.75C89.66 14.53 90.55 15.34 91.41 16.19ZM94.59 19.56L91.87 21.84C91.15 21.01 90.4 20.2 89.62 19.42L92.14 16.91C92.99 17.77 93.81 18.65 94.59 19.56ZM97.46 23.19L94.55 25.23C93.91 24.34 93.23 23.47 92.53 22.62L95.25 20.33C96.03 21.26 96.76 22.21 97.47 23.19M100.01 27.06L96.93 28.84C96.36 27.89 95.77 26.97 95.15 26.06L98.05 24.02C98.74 25.01 99.39 26.02 100.01 27.05M102.2 31.13L98.98 32.63C98.5 31.64 97.99 30.67 97.44 29.7L100.52 27.92C101.12 28.97 101.68 30.04 102.2 31.12M104.03 35.37L100.7 36.59C100.31 35.55 99.88 34.54 99.41 33.54L102.63 32.03C103.13 33.13 103.6 34.24 104.02 35.37M105.48 39.77L102.05 40.69C101.75 39.63 101.41 38.59 101.04 37.54L104.38 36.32C104.78 37.46 105.15 38.6 105.48 39.76M106.53 44.26L103.03 44.89C102.83 43.81 102.58 42.73 102.31 41.67L105.74 40.74C106.04 41.91 106.31 43.08 106.54 44.26M107.19 48.85L103.66 49.17C103.55 48.07 103.39 46.98 103.22 45.9L106.71 45.28C106.91 46.46 107.08 47.65 107.19 48.85ZM107.45 53.47H103.9C103.88 52.37 103.83 51.28 103.74 50.19L107.27 49.87C107.37 51.07 107.42 52.27 107.44 53.47M107.31 58.1L103.77 57.8C103.84 56.71 103.89 55.6 103.89 54.5H107.45C107.45 55.7 107.4 56.9 107.31 58.1ZM106.77 62.7L103.28 62.09C103.45 61.01 103.59 59.91 103.68 58.81L107.21 59.11C107.11 60.31 106.96 61.5 106.76 62.69M105.85 67.23L102.41 66.32C102.68 65.26 102.92 64.18 103.11 63.09L106.61 63.69C106.4 64.88 106.15 66.06 105.86 67.23M104.53 71.66L101.19 70.46C101.55 69.42 101.87 68.37 102.16 67.31L105.6 68.21C105.28 69.38 104.93 70.53 104.52 71.66M102.82 75.97L99.6 74.48C100.04 73.47 100.46 72.45 100.84 71.42L104.18 72.62C103.77 73.75 103.31 74.87 102.82 75.97ZM100.75 80.1L97.66 78.33C98.2 77.37 98.71 76.39 99.18 75.4L102.4 76.89C101.89 77.97 101.34 79.04 100.75 80.1ZM98.31 84.04L95.4 82.02C96.02 81.11 96.6 80.18 97.15 79.23L100.24 80.99C99.63 82.03 98.98 83.05 98.31 84.05M95.55 87.77L92.82 85.5C93.52 84.64 94.18 83.76 94.82 82.87L97.73 84.89C97.03 85.87 96.31 86.83 95.55 87.77ZM92.47 91.22L89.95 88.73C90.71 87.93 91.45 87.12 92.16 86.28L94.88 88.55C94.11 89.47 93.3 90.36 92.46 91.23M89.11 94.42L86.81 91.71C87.64 90.99 88.44 90.24 89.23 89.46L91.76 91.96C90.9 92.82 90.02 93.63 89.11 94.42ZM85.5 97.3L83.44 94.4C84.33 93.75 85.19 93.07 86.03 92.36L88.34 95.07C87.41 95.84 86.47 96.59 85.5 97.29M81.63 99.86L79.83 96.79C80.78 96.22 81.7 95.62 82.6 94.99L84.66 97.89C83.67 98.59 82.66 99.24 81.62 99.87M77.56 102.08L76.04 98.87C77.03 98.39 78 97.87 78.95 97.32L80.74 100.38C79.69 100.99 78.63 101.55 77.56 102.08ZM73.31 103.93L72.08 100.61C73.11 100.21 74.11 99.78 75.12 99.31L76.64 102.52C75.55 103.03 74.43 103.5 73.31 103.93ZM68.93 105.39L67.98 101.97C69.05 101.67 70.09 101.33 71.13 100.95L72.37 104.28C71.23 104.68 70.1 105.06 68.94 105.39M64.43 106.48L63.78 102.98C64.87 102.77 65.94 102.52 67 102.24L67.95 105.67C66.79 105.98 65.62 106.25 64.43 106.48ZM59.85 107.16L59.52 103.62C60.61 103.51 61.71 103.35 62.79 103.17L63.43 106.67C62.25 106.87 61.05 107.03 59.85 107.16ZM55.23 107.45L55.21 103.89C56.32 103.87 57.4 103.82 58.5 103.72L58.83 107.25C57.63 107.36 56.43 107.42 55.23 107.44M54.2 107.45C52.99 107.45 51.79 107.4 50.6 107.32L50.88 103.78C51.97 103.85 53.07 103.89 54.19 103.89L54.21 107.44H54.2M49.58 107.24C48.38 107.14 47.18 107 46 106.82L46.58 103.32C47.66 103.48 48.76 103.61 49.86 103.71L49.57 107.25L49.58 107.24ZM44.99 106.65C43.8 106.45 42.63 106.19 41.46 105.91L42.35 102.47C43.41 102.72 44.49 102.96 45.58 103.15L44.99 106.65ZM40.47 105.66C39.3 105.36 38.15 105.01 37.02 104.62L38.19 101.27C39.24 101.63 40.29 101.95 41.36 102.23L40.47 105.67V105.66ZM32.7 102.94L34.17 99.71C35.18 100.15 36.2 100.56 37.23 100.94L36.05 104.29C34.91 103.88 33.79 103.43 32.7 102.94ZM28.55 100.89L30.29 97.79C31.26 98.33 32.24 98.83 33.23 99.29L31.76 102.53C30.67 102.02 29.6 101.47 28.54 100.89M24.58 98.48L26.59 95.55C27.51 96.16 28.45 96.74 29.39 97.29L27.65 100.38C26.6 99.78 25.59 99.14 24.58 98.47M20.86 95.72L23.11 92.97C23.97 93.66 24.86 94.33 25.75 94.96L23.75 97.89C22.76 97.2 21.8 96.47 20.87 95.72M17.38 92.66L19.87 90.13C20.67 90.9 21.49 91.62 22.33 92.33L20.08 95.08C19.16 94.31 18.27 93.5 17.39 92.67M16.56 91.85C15.75 91.03 14.96 90.19 14.21 89.32L16.9 87.01C17.6 87.81 18.33 88.59 19.08 89.34C19.12 89.36 19.13 89.39 19.16 89.42L16.67 91.96C16.67 91.96 16.6 91.89 16.56 91.85ZM11.29 85.72L14.17 83.65C14.82 84.53 15.51 85.39 16.22 86.24L13.53 88.55C12.76 87.63 12.01 86.69 11.29 85.73M8.71 81.89L11.77 80.08C12.34 81.02 12.95 81.94 13.58 82.84L10.7 84.9C10 83.92 9.34 82.91 8.71 81.89ZM6.47 77.83L9.68 76.3C10.17 77.28 10.69 78.25 11.24 79.2L8.19 81.01C7.57 79.96 7 78.91 6.47 77.83ZM4.6 73.6L7.93 72.35C8.32 73.37 8.76 74.39 9.23 75.38L6.02 76.92C5.5 75.83 5.03 74.72 4.59 73.6M3.1 69.22L6.52 68.26C6.83 69.32 7.18 70.36 7.56 71.39L4.23 72.64C3.81 71.51 3.44 70.37 3.1 69.21M1.99 64.71L5.49 64.06C5.69 65.14 5.96 66.21 6.24 67.27L2.82 68.23C2.51 67.07 2.23 65.9 1.99 64.71ZM1.29 60.14L4.82 59.78C4.94 60.89 5.1 61.97 5.3 63.05L1.8 63.71C1.59 62.53 1.43 61.34 1.29 60.14ZM0.98 55.52L4.54 55.47C4.56 56.58 4.63 57.68 4.73 58.77L1.2 59.13C1.1 57.94 1.02 56.73 0.99 55.53M0.98 54.23C0.98 53.11 1.02 52 1.09 50.9L4.63 51.16C4.57 52.18 4.54 53.2 4.54 54.23V54.46L0.99 54.51C0.99 54.41 0.99 54.32 0.99 54.23M1.57 46.3L5.08 46.87C4.91 47.96 4.79 49.05 4.71 50.15L1.17 49.88C1.27 48.68 1.4 47.48 1.57 46.29M2.45 41.75L5.9 42.62C5.64 43.68 5.42 44.77 5.23 45.86L1.73 45.29C1.93 44.1 2.18 42.92 2.45 41.75ZM3.73 37.29L7.08 38.46C6.73 39.5 6.42 40.56 6.14 41.63L2.7 40.76C3 39.59 3.34 38.44 3.73 37.29ZM5.38 32.97L8.63 34.43C8.2 35.44 7.78 36.46 7.42 37.5L4.06 36.33C4.46 35.19 4.91 34.08 5.39 32.97M7.43 28.81L10.52 30.55C10 31.52 9.51 32.5 9.05 33.51L5.81 32.05C6.32 30.96 6.85 29.88 7.43 28.82M9.82 24.86L12.76 26.85C12.15 27.77 11.57 28.71 11.02 29.66L7.92 27.93C8.52 26.88 9.14 25.86 9.81 24.86M12.54 21.12L15.3 23.36C14.6 24.23 13.95 25.11 13.33 26.01L10.39 24.01C11.07 23.03 11.79 22.06 12.54 21.12ZM15.57 17.63L18.12 20.1C17.36 20.9 16.63 21.73 15.94 22.57L13.19 20.32C13.95 19.4 14.75 18.5 15.58 17.63M16.58 16.6C17.35 15.85 18.11 15.11 18.92 14.41L21.25 17.09C20.52 17.74 19.8 18.41 19.1 19.11C19.02 19.19 18.94 19.28 18.85 19.36L16.3 16.89C16.39 16.79 16.49 16.69 16.58 16.6ZM22.49 11.48L24.58 14.36C23.69 15.01 22.84 15.7 22 16.42L19.67 13.73C20.59 12.94 21.53 12.19 22.48 11.47M26.32 8.87L28.15 11.92C27.22 12.5 26.29 13.11 25.4 13.75L23.31 10.88C24.3 10.18 25.3 9.51 26.32 8.88M30.36 6.63L31.91 9.82C30.93 10.32 29.96 10.85 29.01 11.4L27.18 8.35C28.22 7.74 29.27 7.16 30.35 6.62M34.57 4.73L35.84 8.05C34.82 8.46 33.81 8.89 32.82 9.36L31.26 6.17C32.35 5.65 33.45 5.17 34.57 4.72M38.95 3.2L39.92 6.61C38.87 6.93 37.82 7.28 36.79 7.67L35.53 4.35C36.65 3.93 37.8 3.54 38.96 3.2M43.44 2.08L44.12 5.56C43.04 5.78 41.97 6.04 40.91 6.33L39.92 2.92C41.08 2.6 42.26 2.32 43.44 2.08ZM48.01 1.35L48.37 4.89C47.28 5.01 46.19 5.18 45.1 5.38L44.42 1.89C45.6 1.68 46.79 1.49 48 1.36M53.67 1.01V4.56C52.23 4.57 50.8 4.64 49.38 4.78L49 1.25C50.55 1.11 52.1 1.02 53.66 1.01M47.87 50.39L43.2 40.98L53.45 20.68L56.61 37.11L47.87 50.39ZM79.47 63.76L74.79 52.46L83.6 35.84L79.47 63.76ZM67.49 34.84L70.84 27.29L73.15 48.49L67.49 34.84ZM79.09 65.48H54.28L63.82 28.65L79.09 65.48ZM7.44 65.48L34.87 27.66L37.91 65.48H7.5H7.44ZM94.22 69.42C91.61 69.42 90.32 70.24 89.06 71.03C87.86 71.77 86.74 72.49 84.4 72.49C82.06 72.49 80.94 71.78 79.75 71.03C78.48 70.25 77.19 69.42 74.58 69.42H74.03C71.43 69.42 70.13 70.24 68.87 71.03C67.67 71.77 66.55 72.49 64.22 72.49C61.89 72.49 60.77 71.78 59.57 71.03C58.31 70.25 57.01 69.42 54.41 69.42H53.88C51.27 69.42 49.97 70.24 48.72 71.03C47.52 71.77 46.39 72.49 44.06 72.49C41.73 72.49 40.61 71.78 39.41 71.03C38.15 70.25 36.85 69.42 34.25 69.42H33.66C31.05 69.42 29.75 70.24 28.5 71.03C27.31 71.77 26.18 72.49 23.84 72.49C21.5 72.49 20.38 71.78 19.19 71.03C17.94 70.25 16.63 69.42 14.03 69.42C11.43 69.42 9.48 70.21 8.52 71.02C7.97 69.54 7.5 68.04 7.11 66.51H101.25C100.85 68.03 100.38 69.52 99.85 70.97C98.82 70.2 97.06 69.42 94.22 69.42ZM94.22 74.67C91.61 74.67 90.32 75.49 89.06 76.28C87.86 77.02 86.74 77.73 84.4 77.73C82.06 77.73 80.94 77.02 79.75 76.28C78.48 75.49 77.19 74.67 74.58 74.67H74.03C71.43 74.67 70.13 75.49 68.87 76.28C67.67 77.02 66.55 77.73 64.22 77.73C61.89 77.73 60.77 77.02 59.57 76.28C58.31 75.49 57.01 74.67 54.41 74.67H53.88C51.27 74.67 49.97 75.49 48.72 76.28C47.52 77.02 46.39 77.73 44.06 77.73C41.73 77.73 40.61 77.02 39.41 76.28C38.15 75.49 36.85 74.67 34.25 74.67H33.66C31.05 74.67 29.75 75.49 28.5 76.28C27.31 77.02 26.18 77.73 23.84 77.73C21.5 77.73 20.38 77.02 19.19 76.28C17.94 75.49 16.63 74.67 14.03 74.67C12.63 74.67 11.39 74.87 10.32 75.27C9.81 74.22 9.33 73.15 8.91 72.06C9.46 71.43 11.07 70.46 14.03 70.46C16.34 70.46 17.46 71.16 18.66 71.9C19.91 72.69 21.21 73.51 23.84 73.51C26.47 73.51 27.78 72.69 29.03 71.9C30.22 71.16 31.34 70.46 33.66 70.46H34.25C36.56 70.46 37.68 71.16 38.87 71.9C40.13 72.69 41.44 73.51 44.06 73.51C46.68 73.51 47.99 72.69 49.26 71.9C50.45 71.16 51.57 70.46 53.89 70.46H54.42C56.72 70.46 57.85 71.16 59.04 71.9C60.3 72.69 61.61 73.51 64.23 73.51C66.85 73.51 68.16 72.69 69.43 71.9C70.61 71.16 71.73 70.46 74.05 70.46H74.6C76.92 70.46 78.03 71.16 79.23 71.9C80.49 72.69 81.8 73.51 84.42 73.51C87.04 73.51 88.36 72.69 89.62 71.9C90.8 71.16 91.93 70.46 94.24 70.46C97.06 70.46 98.63 71.26 99.49 71.98C99.04 73.1 98.57 74.19 98.05 75.27C96.96 74.88 95.68 74.68 94.24 74.68M94.24 80.12C91.63 80.12 90.34 80.94 89.08 81.72C87.88 82.47 86.76 83.17 84.42 83.17C82.08 83.17 80.96 82.47 79.77 81.72C78.5 80.94 77.21 80.12 74.6 80.12H74.05C71.45 80.12 70.15 80.94 68.89 81.72C67.69 82.47 66.57 83.17 64.24 83.17C61.91 83.17 60.79 82.47 59.59 81.72C58.33 80.94 57.03 80.12 54.43 80.12H53.9C51.29 80.12 49.99 80.94 48.74 81.72C47.54 82.47 46.41 83.17 44.08 83.17C41.75 83.17 40.63 82.47 39.43 81.72C38.17 80.94 36.87 80.12 34.27 80.12H33.68C31.07 80.12 29.77 80.94 28.52 81.72C27.33 82.47 26.2 83.17 23.86 83.17C21.52 83.17 20.4 82.47 19.21 81.72C17.96 80.94 16.65 80.12 14.05 80.12C13.71 80.12 13.37 80.13 13.05 80.16C12.24 78.87 11.48 77.55 10.79 76.19C11.72 75.86 12.83 75.7 14.05 75.7C16.36 75.7 17.48 76.4 18.68 77.14C19.93 77.94 21.23 78.75 23.86 78.75C26.49 78.75 27.8 77.93 29.05 77.14C30.24 76.4 31.36 75.7 33.68 75.7H34.27C36.58 75.7 37.7 76.4 38.89 77.14C40.15 77.94 41.46 78.75 44.08 78.75C46.7 78.75 48.01 77.93 49.28 77.14C50.47 76.4 51.59 75.7 53.91 75.7H54.44C56.74 75.7 57.87 76.4 59.06 77.14C60.32 77.94 61.63 78.75 64.25 78.75C66.87 78.75 68.18 77.93 69.45 77.14C70.63 76.4 71.75 75.7 74.07 75.7H74.62C76.94 75.7 78.05 76.4 79.25 77.14C80.51 77.94 81.82 78.75 84.44 78.75C87.06 78.75 88.38 77.93 89.64 77.14C90.82 76.4 91.95 75.7 94.26 75.7C95.53 75.7 96.66 75.87 97.62 76.19C96.92 77.55 96.17 78.88 95.35 80.16C95 80.14 94.63 80.12 94.26 80.12M84.48 88.47C82.15 88.47 81.02 87.76 79.83 87.02C78.57 86.23 77.27 85.41 74.67 85.41H74.11C71.51 85.41 70.21 86.22 68.96 87.02C67.76 87.76 66.63 88.47 64.3 88.47C61.97 88.47 60.84 87.76 59.65 87.02C58.39 86.23 57.09 85.41 54.49 85.41H53.97C51.37 85.41 50.06 86.22 48.8 87.02C47.61 87.76 46.49 88.47 44.15 88.47C41.81 88.47 40.68 87.76 39.5 87.02C38.24 86.23 36.94 85.41 34.34 85.41H33.74C31.14 85.41 29.84 86.22 28.58 87.02C27.39 87.76 26.25 88.47 23.93 88.47C21.61 88.47 20.47 87.76 19.27 87.02C18.7 86.67 18.12 86.3 17.41 86.01C16.08 84.48 14.85 82.85 13.71 81.14H14.07C16.38 81.14 17.5 81.84 18.7 82.58C19.95 83.38 21.25 84.19 23.88 84.19C26.51 84.19 27.82 83.37 29.07 82.58C30.26 81.84 31.38 81.14 33.7 81.14H34.29C36.6 81.14 37.72 81.84 38.91 82.58C40.17 83.38 41.48 84.19 44.1 84.19C46.72 84.19 48.03 83.37 49.3 82.58C50.49 81.84 51.61 81.14 53.93 81.14H54.46C56.76 81.14 57.89 81.84 59.08 82.58C60.34 83.38 61.65 84.19 64.27 84.19C66.89 84.19 68.2 83.37 69.47 82.58C70.65 81.84 71.77 81.14 74.09 81.14H74.64C76.96 81.14 78.07 81.84 79.27 82.58C80.53 83.38 81.84 84.19 84.46 84.19C87.08 84.19 88.4 83.37 89.66 82.58C90.84 81.84 91.97 81.14 94.28 81.14C94.43 81.14 94.58 81.14 94.73 81.14C93.61 82.82 92.4 84.42 91.08 85.95C91 85.99 90.91 86.04 90.82 86.09C90.2 86.36 89.67 86.7 89.16 87.01C87.96 87.75 86.83 88.46 84.5 88.46M76.82 97.3C70.06 100.85 62.39 102.87 54.24 102.87C46.09 102.87 38.38 100.85 31.62 97.28C32.26 97.12 32.93 97.04 33.72 97.04H34.31C36.62 97.04 37.74 97.74 38.93 98.49C40.19 99.28 41.5 100.1 44.12 100.1C46.74 100.1 48.05 99.28 49.32 98.49C50.51 97.75 51.63 97.04 53.95 97.04H54.48C56.78 97.04 57.91 97.74 59.1 98.49C60.36 99.28 61.67 100.1 64.29 100.1C66.91 100.1 68.22 99.28 69.49 98.49C70.67 97.75 71.79 97.04 74.11 97.04H74.66C75.46 97.04 76.17 97.13 76.83 97.31M74.66 96.02H74.11C71.51 96.02 70.21 96.84 68.95 97.63C67.75 98.37 66.63 99.08 64.3 99.08C61.97 99.08 60.85 98.37 59.65 97.63C58.39 96.84 57.09 96.02 54.49 96.02H53.96C51.35 96.02 50.05 96.84 48.8 97.63C47.6 98.37 46.47 99.08 44.14 99.08C41.81 99.08 40.69 98.37 39.49 97.63C38.23 96.84 36.93 96.02 34.33 96.02H33.74C32.51 96.02 31.5 96.19 30.55 96.57L30.41 96.61C29.16 95.9 27.92 95.14 26.76 94.33C27.71 94.01 28.42 93.57 29.12 93.13C30.31 92.39 31.43 91.69 33.75 91.69H34.34C36.65 91.69 37.77 92.39 38.96 93.13C40.22 93.92 41.53 94.74 44.15 94.74C46.77 94.74 48.08 93.92 49.35 93.13C50.54 92.39 51.66 91.69 53.98 91.69H54.51C56.81 91.69 57.94 92.39 59.13 93.13C60.39 93.92 61.7 94.74 64.32 94.74C66.94 94.74 68.25 93.92 69.52 93.13C70.7 92.39 71.82 91.69 74.14 91.69H74.69C77.01 91.69 78.12 92.39 79.32 93.13C80.03 93.58 80.77 94.03 81.75 94.35C80.56 95.17 79.32 95.93 78.07 96.65C77.06 96.22 75.99 96.03 74.69 96.03M79.86 92.28C78.59 91.5 77.3 90.67 74.69 90.67H74.14C71.54 90.67 70.24 91.49 68.98 92.28C67.78 93.03 66.66 93.73 64.33 93.73C62 93.73 60.88 93.03 59.68 92.28C58.42 91.5 57.12 90.67 54.52 90.67H53.99C51.38 90.67 50.08 91.49 48.83 92.28C47.63 93.03 46.5 93.73 44.17 93.73C41.84 93.73 40.72 93.03 39.52 92.28C38.26 91.5 36.96 90.67 34.36 90.67H33.77C31.16 90.67 29.86 91.49 28.61 92.28C27.75 92.82 26.94 93.32 25.71 93.57C23.58 92.02 21.59 90.31 19.74 88.45C20.77 89.02 22.01 89.49 24 89.49C26.62 89.49 27.93 88.68 29.19 87.88C30.37 87.14 31.5 86.44 33.81 86.44H34.41C36.71 86.44 37.84 87.14 39.02 87.88C40.29 88.67 41.59 89.49 44.21 89.49C46.83 89.49 48.14 88.68 49.4 87.88C50.58 87.14 51.71 86.44 54.03 86.44H54.55C56.86 86.44 57.98 87.14 59.17 87.88C60.43 88.67 61.73 89.49 64.36 89.49C66.99 89.49 68.3 88.68 69.55 87.88C70.74 87.14 71.87 86.44 74.17 86.44H74.73C77.03 86.44 78.16 87.14 79.35 87.88C80.61 88.67 81.91 89.49 84.54 89.49C86.57 89.49 87.8 89 88.85 88.42C86.97 90.33 84.92 92.08 82.75 93.65L82.77 93.57C81.52 93.32 80.71 92.81 79.86 92.27M102.93 54.23C102.93 57.85 102.53 61.38 101.78 64.78L85.11 32.77C85.11 32.77 85.09 32.72 85.07 32.71C85.06 32.71 85.06 32.71 85.05 32.7C85.04 32.68 85.02 32.66 85.01 32.65C85 32.65 85 32.64 84.99 32.64C84.97 32.62 84.94 32.6 84.92 32.58H84.91C84.91 32.58 84.86 32.56 84.83 32.54H84.81C84.81 32.54 84.75 32.52 84.73 32.52H84.72C84.72 32.52 84.68 32.52 84.66 32.52H84.61C84.61 32.52 84.56 32.52 84.54 32.53C84.53 32.53 84.52 32.53 84.52 32.53C84.5 32.53 84.47 32.54 84.44 32.56H84.42C84.4 32.57 84.38 32.58 84.36 32.6C84.36 32.6 84.36 32.61 84.35 32.61C84.33 32.63 84.3 32.65 84.28 32.67C84.28 32.67 84.28 32.68 84.28 32.69C84.26 32.71 84.25 32.73 84.23 32.74C84.23 32.75 84.23 32.76 84.22 32.77L80.59 39.62L71.7 25.12C71.7 25.12 71.67 25.08 71.66 25.06C71.64 25.04 71.62 25.02 71.6 25.01C71.6 25 71.59 25 71.59 24.99C71.57 24.98 71.54 24.96 71.51 24.95C71.49 24.93 71.46 24.92 71.42 24.91C71.42 24.91 71.4167 24.91 71.41 24.91C71.41 24.91 71.36 24.9 71.33 24.89H71.21C71.21 24.89 71.21 24.89 71.2 24.89C71.18 24.89 71.15 24.89 71.13 24.9C71.13 24.9 71.12 24.9 71.11 24.91C71.08 24.91 71.06 24.93 71.03 24.94C71.02 24.94 71.01 24.95 71.01 24.95C70.99 24.96 70.97 24.97 70.94 24.99C70.94 24.99 70.94 25 70.93 25C70.91 25.02 70.88 25.04 70.87 25.06C70.87 25.06 70.84 25.11 70.83 25.14C70.82 25.14 70.82 25.15 70.81 25.16C70.81 25.16 70.81 25.16 70.81 25.18L67.09 33.58L64.36 27.02C64.29 26.84 64.13 26.72 63.94 26.7C63.76 26.68 63.57 26.77 63.46 26.93L60.66 31.19L54.24 18.91C54.24 18.91 54.24 18.89 54.23 18.88C54.23 18.88 54.2233 18.8733 54.21 18.86C54.21 18.86 54.17 18.82 54.16 18.8C54.15 18.79 54.14 18.78 54.13 18.78C54.11 18.77 54.1 18.76 54.09 18.74C54.08 18.74 54.07 18.73 54.07 18.72C54.05 18.7 54.02 18.7 54.01 18.69C54 18.69 53.99 18.68 53.98 18.68C53.96 18.67 53.93 18.66 53.92 18.66C53.91 18.66 53.9 18.66 53.89 18.66C53.87 18.66 53.84 18.66 53.82 18.66C53.81 18.66 53.8 18.66 53.79 18.66C53.77 18.66 53.74 18.66 53.71 18.67H53.69C53.69 18.67 53.64 18.68 53.61 18.7H53.6C53.6 18.7 53.55 18.72 53.52 18.74L53.5 18.75C53.49 18.77 53.46 18.78 53.44 18.79C53.44 18.79 53.44 18.7967 53.44 18.81C53.44 18.81 53.39 18.85 53.38 18.87L53.37 18.88C53.37 18.9 53.35 18.91 53.35 18.93L42.78 39.88L35.89 26.02C35.82 25.86 35.66 25.75 35.48 25.74C35.3 25.72 35.13 25.81 35.03 25.95L24.9 39.92L19.51 34.83C19.39 34.72 19.22 34.66 19.05 34.7C18.88 34.74 18.75 34.85 18.69 35.01L6.78 64.5C6.07 61.2 5.69 57.77 5.69 54.26C5.59 27.41 27.41 5.59 54.24 5.59C81.07 5.59 102.88 27.41 102.88 54.24M15.88 15.89C5.64 26.13 0 39.75 0 54.24C0 68.73 5.64 82.34 15.88 92.58C26.13 102.83 39.75 108.47 54.24 108.47C68.73 108.47 82.34 102.83 92.58 92.58C102.82 82.34 108.46 68.72 108.46 54.24C108.46 39.76 102.82 26.13 92.58 15.89C82.34 5.64 68.72 0 54.24 0C39.76 0 26.13 5.64 15.88 15.89Z" fill="white"/>
</g>
<defs>
<clipPath id="clip0_1_86">
<rect width="108.46" height="108.47" fill="white"/>
</clipPath>
</defs>
</svg>
