<svg width="136" height="136" viewBox="0 0 136 136" fill="none" xmlns="http://www.w3.org/2000/svg">
<g clip-path="url(#clip0_1_48)">
<path d="M62.52 5.75001L58.64 0.61001L61.21 0.44001L63.43 3.82001L65.3 0.17001L67.75 0.0100098L64.58 5.62001L64.85 9.62001L62.78 9.76001L62.51 5.76001L62.52 5.75001Z" fill="black"/>
<path d="M68.68 4.66C68.75 3.91 68.94 3.24 69.25 2.66C69.56 2.08 69.96 1.59 70.45 1.21C70.94 0.829996 71.5 0.549996 72.14 0.379996C72.78 0.209996 73.46 0.159996 74.19 0.229996C74.92 0.299996 75.58 0.479996 76.18 0.759996C76.77 1.05 77.28 1.43 77.69 1.9C78.1 2.37 78.4 2.92 78.59 3.55C78.78 4.18 78.84 4.87 78.77 5.62C78.7 6.37 78.51 7.04 78.2 7.62C77.89 8.2 77.49 8.69 77 9.07C76.51 9.45 75.95 9.73 75.31 9.9C74.67 10.07 73.99 10.12 73.26 10.05C72.53 9.98 71.87 9.8 71.27 9.52C70.67 9.24 70.17 8.85 69.77 8.38C69.36 7.91 69.06 7.36 68.87 6.73C68.68 6.1 68.62 5.41 68.69 4.66H68.68ZM70.82 4.86C70.78 5.3 70.81 5.71 70.91 6.09C71.01 6.47 71.18 6.8 71.41 7.1C71.64 7.39 71.93 7.63 72.27 7.81C72.61 7.99 73 8.11 73.44 8.15C73.88 8.19 74.29 8.15 74.66 8.04C75.03 7.92 75.36 7.74 75.64 7.5C75.92 7.26 76.15 6.96 76.32 6.6C76.49 6.24 76.6 5.85 76.64 5.41C76.68 4.98 76.64 4.57 76.55 4.19C76.46 3.81 76.28 3.47 76.05 3.18C75.82 2.89 75.53 2.65 75.19 2.47C74.85 2.29 74.46 2.17 74.02 2.13C73.58 2.09 73.17 2.13 72.8 2.24C72.43 2.36 72.1 2.54 71.82 2.78C71.54 3.02 71.31 3.32 71.14 3.68C70.97 4.04 70.86 4.43 70.82 4.86Z" fill="black"/>
<path d="M87.95 9.17C87.8 9.71 87.59 10.18 87.3 10.59C87.01 11 86.67 11.32 86.25 11.57C85.83 11.82 85.37 11.97 84.84 12.02C84.31 12.08 83.73 12.02 83.11 11.85C82.48 11.68 81.95 11.43 81.52 11.11C81.09 10.79 80.77 10.42 80.54 10C80.31 9.58 80.18 9.12 80.14 8.62C80.1 8.12 80.16 7.61 80.3 7.07L81.83 1.5L83.83 2.05L82.33 7.54C82.25 7.82 82.23 8.09 82.25 8.36C82.27 8.62 82.34 8.86 82.46 9.08C82.57 9.3 82.73 9.49 82.93 9.65C83.13 9.81 83.36 9.93 83.63 10C83.89 10.07 84.15 10.09 84.4 10.05C84.65 10.01 84.88 9.93 85.09 9.8C85.3 9.67 85.48 9.5 85.64 9.28C85.79 9.07 85.91 8.82 85.99 8.54L87.49 3.05L89.49 3.6L87.96 9.17H87.95Z" fill="black"/>
<path d="M100.65 11.44C100.59 11.13 100.46 10.84 100.26 10.58C100.06 10.32 99.79 10.1 99.45 9.92001C99.11 9.74001 98.75 9.63001 98.39 9.61001C98.03 9.59001 97.67 9.64001 97.33 9.76001C96.99 9.88001 96.67 10.08 96.37 10.34C96.07 10.6 95.82 10.93 95.62 11.31C95.41 11.7 95.28 12.09 95.23 12.48C95.18 12.87 95.19 13.24 95.28 13.59C95.37 13.94 95.51 14.26 95.73 14.54C95.94 14.83 96.22 15.05 96.54 15.23C96.92 15.43 97.29 15.53 97.66 15.53C98.03 15.53 98.39 15.44 98.72 15.26L99.64 17.21C99.03 17.51 98.39 17.64 97.72 17.59C97.06 17.54 96.44 17.36 95.87 17.05C95.22 16.7 94.68 16.28 94.24 15.79C93.8 15.3 93.49 14.75 93.29 14.16C93.09 13.57 93.03 12.95 93.09 12.29C93.15 11.63 93.36 10.97 93.72 10.31C94.07 9.65001 94.51 9.10001 95.02 8.69001C95.53 8.28001 96.08 7.98001 96.69 7.81001C97.29 7.64001 97.92 7.60001 98.57 7.69001C99.22 7.78001 99.88 8.00001 100.52 8.34001C100.75 8.46001 100.99 8.62001 101.22 8.80001C101.45 8.98001 101.66 9.18001 101.86 9.40001C102.06 9.63001 102.23 9.88001 102.37 10.15C102.51 10.43 102.61 10.73 102.67 11.05L100.65 11.45V11.44Z" fill="black"/>
<path d="M107.77 13.26L109.14 14.29L106.74 24.25L104.88 22.84L105.43 20.76L102.52 18.56L100.7 19.68L98.88 18.3L107.78 13.25L107.77 13.26ZM106.76 15.92L104.09 17.56L105.92 18.94L106.76 15.91V15.92Z" fill="black"/>
<path d="M114.01 18.25L115.94 20.3L113.92 27.68L113.94 27.7L118.7 23.23L120.12 24.74L113.27 31.17L111.42 29.2L113.49 21.63L113.47 21.61L108.59 26.19L107.17 24.68L114.02 18.25H114.01Z" fill="black"/>
<path d="M121.17 42.56C120.59 42.18 120.08 41.74 119.63 41.24C119.18 40.74 118.79 40.18 118.45 39.58C118.09 38.94 117.85 38.3 117.75 37.64C117.65 36.98 117.67 36.36 117.82 35.76C117.97 35.16 118.25 34.59 118.66 34.07C119.07 33.55 119.6 33.11 120.25 32.74C120.9 32.37 121.56 32.14 122.21 32.06C122.86 31.98 123.49 32.03 124.09 32.21C124.69 32.39 125.24 32.69 125.74 33.12C126.24 33.55 126.68 34.08 127.04 34.72C127.41 35.37 127.67 36.02 127.83 36.66C127.98 37.3 127.99 37.94 127.83 38.57L125.72 38.08C125.84 37.69 125.87 37.3 125.83 36.92C125.79 36.54 125.63 36.12 125.37 35.65C125.15 35.27 124.89 34.95 124.58 34.72C124.27 34.48 123.94 34.32 123.58 34.23C123.22 34.14 122.84 34.13 122.45 34.19C122.06 34.25 121.68 34.39 121.3 34.61C120.91 34.83 120.6 35.09 120.34 35.39C120.09 35.69 119.91 36.02 119.8 36.37C119.69 36.73 119.66 37.1 119.71 37.48C119.76 37.87 119.89 38.25 120.11 38.64C120.33 39.03 120.57 39.35 120.82 39.58C121.07 39.82 121.29 39.99 121.48 40.11L122.81 39.36L121.98 37.89L123.64 36.95L125.45 40.15L121.18 42.57L121.17 42.56Z" fill="black"/>
<path d="M125.47 42.16C126.18 41.91 126.86 41.8 127.52 41.84C128.18 41.88 128.79 42.04 129.34 42.32C129.89 42.6 130.38 43 130.8 43.51C131.22 44.02 131.55 44.62 131.8 45.31C132.04 46 132.16 46.68 132.15 47.34C132.14 48 132 48.62 131.75 49.18C131.49 49.75 131.12 50.25 130.63 50.69C130.14 51.13 129.54 51.48 128.83 51.72C128.12 51.96 127.44 52.08 126.78 52.04C126.12 52 125.51 51.84 124.96 51.56C124.41 51.28 123.92 50.88 123.5 50.37C123.08 49.86 122.75 49.26 122.5 48.57C122.26 47.88 122.14 47.2 122.15 46.54C122.16 45.88 122.3 45.27 122.55 44.7C122.8 44.13 123.18 43.63 123.67 43.19C124.16 42.75 124.76 42.41 125.47 42.16ZM126.18 44.19C125.76 44.34 125.4 44.54 125.1 44.79C124.8 45.04 124.56 45.33 124.39 45.66C124.22 45.99 124.12 46.35 124.1 46.74C124.08 47.13 124.14 47.53 124.29 47.95C124.44 48.37 124.64 48.72 124.9 49.01C125.16 49.3 125.46 49.52 125.8 49.67C126.14 49.82 126.51 49.9 126.9 49.91C127.29 49.92 127.7 49.85 128.11 49.7C128.52 49.56 128.88 49.36 129.18 49.11C129.49 48.86 129.72 48.57 129.89 48.23C130.06 47.9 130.16 47.54 130.18 47.15C130.2 46.76 130.14 46.36 130 45.94C129.85 45.52 129.65 45.17 129.39 44.88C129.13 44.59 128.83 44.37 128.49 44.22C128.15 44.07 127.78 43.99 127.39 43.98C126.99 43.98 126.59 44.04 126.18 44.19Z" fill="black"/>
<path d="M132.98 59.01L132.67 56.35L134.49 56.14L135.36 63.52L133.54 63.73L133.23 61.07L125.72 61.95L125.48 59.89L132.99 59.01H132.98Z" fill="black"/>
<path d="M130.83 65.01C131.58 65.04 132.26 65.19 132.86 65.46C133.46 65.73 133.97 66.1 134.38 66.57C134.79 67.04 135.1 67.58 135.31 68.21C135.52 68.84 135.61 69.52 135.58 70.25C135.55 70.98 135.41 71.66 135.16 72.27C134.91 72.88 134.56 73.4 134.12 73.84C133.67 74.28 133.14 74.61 132.52 74.84C131.9 75.07 131.22 75.17 130.46 75.15C129.71 75.12 129.03 74.97 128.43 74.7C127.83 74.43 127.32 74.06 126.91 73.59C126.5 73.12 126.19 72.58 125.98 71.95C125.77 71.32 125.68 70.64 125.71 69.91C125.74 69.18 125.88 68.5 126.13 67.89C126.38 67.28 126.73 66.76 127.18 66.32C127.62 65.88 128.16 65.55 128.78 65.32C129.4 65.09 130.08 64.99 130.84 65.01H130.83ZM130.75 67.16C130.31 67.14 129.9 67.2 129.53 67.32C129.16 67.44 128.83 67.63 128.55 67.88C128.27 68.13 128.05 68.43 127.89 68.78C127.73 69.13 127.64 69.53 127.62 69.97C127.6 70.41 127.66 70.81 127.8 71.18C127.94 71.55 128.14 71.86 128.4 72.12C128.66 72.39 128.97 72.59 129.33 72.74C129.69 72.89 130.09 72.97 130.54 72.99C130.97 73.01 131.38 72.95 131.75 72.83C132.12 72.71 132.45 72.52 132.73 72.27C133.01 72.02 133.23 71.72 133.39 71.37C133.55 71.02 133.64 70.62 133.66 70.18C133.68 69.74 133.61 69.34 133.48 68.97C133.34 68.61 133.14 68.29 132.88 68.03C132.62 67.76 132.31 67.56 131.94 67.41C131.57 67.26 131.17 67.18 130.74 67.16H130.75Z" fill="black"/>
<path d="M131.69 83.43L132.37 80.84L134.14 81.3L132.27 88.49L130.5 88.03L131.18 85.44L123.86 83.53L124.38 81.53L131.7 83.44L131.69 83.43Z" fill="black"/>
<path d="M131.62 90.49L130.81 92.4L127.59 91.03L126.02 94.73L129.24 96.1L128.43 98.01L119.78 94.33L120.59 92.43L124.33 94.02L125.9 90.32L122.16 88.73L122.97 86.82L131.62 90.5V90.49Z" fill="black"/>
<path d="M126.93 100.72L123.57 106.14L121.95 105.13L124.22 101.46L122.73 100.54L120.58 104L118.96 102.99L121.11 99.53L119.49 98.52L117.09 102.39L115.47 101.38L118.96 95.75L126.95 100.7L126.93 100.72Z" fill="black"/>
<path d="M119.05 112.2L116.82 114.4L110.97 111.56L110.95 111.58L113.71 117.47L111.49 119.66L104.89 112.97L106.36 111.51L111.42 116.64L111.44 116.62L108.13 109.76L109.25 108.65L116 112.11L116.02 112.09L110.96 106.96L112.43 105.5L119.03 112.19L119.05 112.2Z" fill="black"/>
<path d="M106.7 117.5C107.12 118.13 107.39 118.76 107.51 119.41C107.63 120.06 107.63 120.69 107.49 121.29C107.35 121.9 107.09 122.47 106.7 123C106.31 123.53 105.81 124 105.2 124.41C104.59 124.82 103.96 125.09 103.32 125.24C102.68 125.39 102.05 125.41 101.44 125.3C100.83 125.19 100.25 124.95 99.7 124.58C99.15 124.21 98.67 123.71 98.26 123.09C97.84 122.46 97.57 121.83 97.45 121.18C97.33 120.53 97.33 119.9 97.47 119.3C97.61 118.69 97.87 118.12 98.26 117.59C98.65 117.06 99.15 116.59 99.76 116.18C100.37 115.77 101 115.5 101.64 115.35C102.28 115.2 102.91 115.18 103.52 115.29C104.13 115.4 104.71 115.64 105.26 116.01C105.81 116.38 106.29 116.88 106.7 117.51V117.5ZM104.91 118.69C104.67 118.32 104.39 118.02 104.07 117.79C103.75 117.56 103.41 117.4 103.05 117.32C102.69 117.24 102.31 117.23 101.93 117.3C101.55 117.37 101.17 117.53 100.8 117.78C100.43 118.02 100.14 118.31 99.92 118.63C99.7 118.95 99.56 119.3 99.5 119.67C99.44 120.04 99.45 120.41 99.54 120.79C99.63 121.17 99.79 121.55 100.04 121.92C100.28 122.28 100.56 122.58 100.88 122.81C101.2 123.04 101.54 123.2 101.9 123.29C102.26 123.37 102.63 123.38 103.02 123.31C103.4 123.24 103.78 123.08 104.14 122.84C104.51 122.59 104.8 122.31 105.02 121.99C105.24 121.67 105.38 121.32 105.44 120.95C105.5 120.58 105.49 120.21 105.4 119.82C105.31 119.43 105.14 119.06 104.9 118.7L104.91 118.69Z" fill="black"/>
<path d="M88.85 126.11C88.63 125.6 88.5 125.1 88.47 124.6C88.44 124.1 88.5 123.63 88.67 123.18C88.84 122.73 89.11 122.32 89.48 121.94C89.85 121.56 90.34 121.25 90.93 120.99C91.53 120.73 92.1 120.59 92.63 120.57C93.16 120.55 93.65 120.63 94.09 120.82C94.53 121 94.92 121.28 95.27 121.64C95.62 122 95.89 122.44 96.12 122.95L98.43 128.24L96.53 129.07L94.25 123.85C94.13 123.58 93.98 123.35 93.8 123.16C93.62 122.97 93.41 122.83 93.18 122.73C92.95 122.63 92.71 122.58 92.46 122.58C92.21 122.58 91.95 122.64 91.7 122.75C91.45 122.86 91.24 123.01 91.07 123.19C90.9 123.38 90.77 123.58 90.69 123.82C90.61 124.05 90.57 124.3 90.59 124.57C90.6 124.83 90.67 125.1 90.79 125.37L93.07 130.59L91.17 131.42L88.86 126.13L88.85 126.11Z" fill="black"/>
<path d="M88.18 132.45L85.45 133.12L80.02 127.73H79.99L81.54 134.08L79.53 134.57L77.3 125.44L79.93 124.8L85.5 130.32H85.53L83.94 123.82L85.95 123.33L88.18 132.46V132.45Z" fill="black"/>
<path d="M74.56 133.26L77.23 133.03L77.39 134.85L69.99 135.5L69.83 133.68L72.5 133.45L71.84 125.91L73.9 125.73L74.56 133.27V133.26Z" fill="black"/>
<path d="M64.82 135.38L63.11 135.29L59.55 125.68L61.88 125.81L62.58 127.84L66.22 128.04L67.11 126.1L69.39 126.23L64.81 135.39L64.82 135.38ZM64.18 132.61L65.48 129.76L63.19 129.63L64.18 132.61Z" fill="black"/>
<path d="M57.33 134.64L55.29 134.29L56.87 125.03L58.91 125.38L57.33 134.64Z" fill="black"/>
<path d="M52.55 133.87L49.86 133.06L47.91 125.66H47.88L46 131.91L44.02 131.32L46.72 122.32L49.31 123.1L51.32 130.68H51.35L53.27 124.28L55.25 124.87L52.55 133.87Z" fill="black"/>
<path d="M36.54 125.76L38.88 127.07L37.99 128.67L31.51 125.04L32.41 123.44L34.75 124.75L38.45 118.15L40.26 119.16L36.56 125.76H36.54Z" fill="black"/>
<path d="M32.95 120.5C32.49 121.09 31.97 121.55 31.39 121.88C30.81 122.21 30.22 122.4 29.6 122.46C28.98 122.52 28.36 122.45 27.73 122.25C27.1 122.05 26.5 121.72 25.92 121.27C25.34 120.82 24.88 120.31 24.54 119.75C24.19 119.19 23.98 118.6 23.89 117.98C23.8 117.36 23.84 116.74 24.02 116.1C24.2 115.46 24.52 114.85 24.98 114.26C25.44 113.67 25.96 113.21 26.54 112.88C27.12 112.56 27.71 112.36 28.33 112.3C28.95 112.24 29.58 112.31 30.2 112.51C30.83 112.71 31.43 113.04 32.01 113.49C32.59 113.94 33.05 114.45 33.4 115.01C33.75 115.57 33.96 116.16 34.05 116.78C34.14 117.4 34.1 118.02 33.92 118.66C33.74 119.3 33.42 119.91 32.96 120.5H32.95ZM31.26 119.17C31.53 118.82 31.73 118.46 31.85 118.09C31.97 117.72 32.01 117.34 31.97 116.97C31.93 116.6 31.82 116.24 31.63 115.91C31.44 115.57 31.17 115.26 30.82 114.99C30.47 114.72 30.11 114.53 29.74 114.43C29.37 114.33 28.99 114.3 28.63 114.36C28.26 114.41 27.91 114.54 27.58 114.75C27.25 114.95 26.94 115.23 26.67 115.58C26.4 115.92 26.21 116.28 26.09 116.66C25.97 117.04 25.93 117.41 25.96 117.78C26 118.15 26.11 118.51 26.3 118.85C26.49 119.19 26.76 119.5 27.11 119.77C27.46 120.04 27.82 120.23 28.19 120.33C28.56 120.43 28.94 120.46 29.3 120.4C29.67 120.35 30.02 120.22 30.36 120.01C30.7 119.8 31 119.53 31.27 119.19L31.26 119.17Z" fill="black"/>
<path d="M20.28 116.09L17.91 113.53C17.58 113.17 17.3 112.81 17.07 112.43C16.84 112.05 16.7 111.67 16.64 111.29C16.58 110.91 16.62 110.52 16.76 110.13C16.9 109.74 17.18 109.36 17.58 108.98C17.98 108.61 18.38 108.36 18.77 108.24C19.16 108.12 19.55 108.1 19.92 108.17C20.29 108.24 20.66 108.41 21.01 108.66C21.37 108.91 21.71 109.21 22.05 109.58L23.08 110.69L25.77 108.2L27.18 109.72L20.28 116.1V116.09ZM21.8 111.87L20.86 110.86C20.73 110.72 20.6 110.6 20.46 110.5C20.32 110.4 20.17 110.32 20.01 110.28C19.85 110.24 19.7 110.23 19.53 110.28C19.37 110.32 19.2 110.41 19.04 110.56C18.87 110.72 18.76 110.89 18.73 111.07C18.7 111.25 18.71 111.43 18.77 111.61C18.83 111.79 18.92 111.97 19.05 112.14C19.18 112.31 19.31 112.47 19.44 112.61L20.16 113.39L21.8 111.88V111.87Z" fill="black"/>
<path d="M11.69 106.24L10.6 104.26L15.15 100.04V100.02L8.91 101.21L7.98 99.52L12.45 94.83V94.81L6.26 96.41L5.25 94.57L14.8 92.44L15.69 94.06L10.99 99.01V99.03L17.7 97.7L18.56 99.26L11.68 106.24H11.69Z" fill="black"/>
<path d="M4.80001 92.63L4.07001 90.69L12.86 87.37L13.59 89.31L4.80001 92.63Z" fill="black"/>
<path d="M4.49 86.02L5.19 88.61L3.42 89.09L1.48 81.92L3.25 81.44L3.95 84.03L11.25 82.05L11.79 84.05L4.49 86.03V86.02Z" fill="black"/>
<path d="M1.05001 79.84L0.810006 77.78L4.29001 77.37L3.82001 73.38L0.340006 73.79L0.100006 71.73L9.43001 70.63L9.67001 72.69L5.64001 73.17L6.11001 77.16L10.14 76.68L10.38 78.74L1.05001 79.84Z" fill="black"/>
<path d="M0 64.08L0.41 60.98L6.77 59.64V59.61L0.98 56.65L1.39 53.56L10.7 54.8L10.43 56.85L3.29 55.9V55.93L10.11 59.32L9.9 60.89L2.44 62.3V62.33L9.58 63.28L9.31 65.33L0 64.09L0 64.08Z" fill="black"/>
<path d="M3.21001 47.47L3.74001 45.84L13.94 44.89L13.21 47.11L11.07 47.26L9.93001 50.73L11.58 52.1L10.87 54.27L3.21001 47.48V47.47ZM6.06001 47.57L8.48001 49.57L9.20001 47.39L6.07001 47.57H6.06001Z" fill="black"/>
<path d="M5.5 40.87L6.58 38.77L13.12 39.54V39.52L8.75 34.59L9.77 32.62L16.33 40.38L15.57 41.85L5.5 40.87Z" fill="black"/>
<path d="M10.99 30.85L14.72 25.67L16.27 26.79L13.75 30.29L15.17 31.31L17.55 28L19.1 29.12L16.72 32.43L18.27 33.55L20.93 29.86L22.48 30.98L18.61 36.35L10.99 30.86V30.85Z" fill="black"/>
<path d="M16.58 23.43L19.09 20.8C19.42 20.45 19.77 20.16 20.13 19.91C20.49 19.66 20.87 19.5 21.25 19.42C21.63 19.34 22.02 19.35 22.42 19.47C22.82 19.59 23.21 19.83 23.61 20.21C24.09 20.67 24.38 21.18 24.47 21.75C24.56 22.32 24.43 22.89 24.06 23.45L28.58 24.47L26.86 26.26L22.79 25.08L22.08 25.82L24.79 28.42L23.36 29.92L16.57 23.42L16.58 23.43ZM20.82 24.62L21.66 23.74C21.79 23.61 21.92 23.46 22.05 23.3C22.18 23.14 22.29 22.98 22.35 22.81C22.41 22.64 22.44 22.47 22.41 22.29C22.38 22.11 22.28 21.93 22.09 21.76C21.92 21.59 21.75 21.5 21.58 21.47C21.41 21.44 21.25 21.46 21.09 21.51C20.93 21.57 20.78 21.66 20.62 21.78C20.47 21.9 20.33 22.03 20.2 22.16L19.26 23.14L20.8 24.62H20.82Z" fill="black"/>
<path d="M23.19 16.89L24.77 15.55L30.85 22.71L29.27 24.05L23.19 16.89Z" fill="black"/>
<path d="M33.24 12.41C32.93 12.32 32.62 12.3 32.3 12.36C31.98 12.42 31.66 12.56 31.34 12.77C31.02 12.99 30.76 13.25 30.57 13.56C30.38 13.87 30.26 14.21 30.21 14.57C30.16 14.93 30.18 15.3 30.28 15.69C30.38 16.07 30.55 16.45 30.79 16.8C31.04 17.17 31.32 17.46 31.64 17.69C31.96 17.92 32.29 18.07 32.64 18.16C32.99 18.25 33.34 18.27 33.69 18.21C34.04 18.15 34.37 18.02 34.68 17.81C35.03 17.57 35.29 17.29 35.46 16.96C35.63 16.63 35.72 16.27 35.71 15.89L37.86 15.98C37.84 16.66 37.66 17.29 37.3 17.85C36.94 18.41 36.5 18.88 35.97 19.24C35.36 19.65 34.74 19.94 34.1 20.1C33.46 20.26 32.83 20.29 32.22 20.19C31.61 20.09 31.02 19.86 30.47 19.49C29.92 19.12 29.43 18.63 29.01 18.01C28.59 17.39 28.31 16.75 28.17 16.11C28.03 15.47 28.03 14.84 28.17 14.23C28.31 13.62 28.56 13.05 28.94 12.51C29.32 11.97 29.82 11.5 30.43 11.08C30.65 10.93 30.89 10.8 31.16 10.67C31.43 10.55 31.7 10.45 31.99 10.38C32.28 10.31 32.58 10.28 32.89 10.28C33.2 10.28 33.51 10.33 33.83 10.43L33.25 12.4L33.24 12.41Z" fill="black"/>
<path d="M35.44 8.24L37.31 7.35L38.98 10.88L40.61 5.79L43.06 4.63L41.15 10.37L47.4 12.97L44.78 14.21L39.42 11.81L41.33 15.84L39.46 16.73L35.44 8.24Z" fill="black"/>
<path d="M50.17 4.82001C49.95 4.67001 49.68 4.58001 49.38 4.57001C49.07 4.56001 48.8 4.59001 48.55 4.66001C48.41 4.70001 48.26 4.77001 48.12 4.85001C47.98 4.93001 47.85 5.03001 47.74 5.14001C47.63 5.25001 47.55 5.38001 47.5 5.53001C47.45 5.67001 47.45 5.83001 47.5 6.00001C47.58 6.27001 47.75 6.45001 48 6.53001C48.25 6.61001 48.54 6.65001 48.88 6.66001C49.22 6.66001 49.58 6.66001 49.97 6.66001C50.36 6.66001 50.73 6.69001 51.1 6.78001C51.47 6.87001 51.8 7.04001 52.1 7.29001C52.4 7.54001 52.63 7.93001 52.79 8.45001C52.94 8.95001 52.99 9.41001 52.91 9.84001C52.84 10.27 52.68 10.66 52.44 11C52.2 11.34 51.89 11.64 51.5 11.89C51.12 12.14 50.69 12.33 50.23 12.48C49.65 12.66 49.08 12.74 48.52 12.71C47.96 12.68 47.41 12.54 46.86 12.28L47.79 10.3C48.08 10.51 48.4 10.64 48.75 10.69C49.1 10.74 49.45 10.72 49.78 10.62C49.94 10.57 50.1 10.5 50.25 10.41C50.4 10.32 50.53 10.22 50.64 10.1C50.75 9.98001 50.82 9.85001 50.87 9.71001C50.91 9.57001 50.91 9.42001 50.87 9.25001C50.79 8.98001 50.62 8.80001 50.36 8.71001C50.1 8.62001 49.8 8.56001 49.46 8.55001C49.11 8.54001 48.74 8.53001 48.34 8.53001C47.94 8.53001 47.56 8.49001 47.19 8.40001C46.82 8.31001 46.48 8.15001 46.18 7.90001C45.88 7.66001 45.65 7.29001 45.5 6.79001C45.35 6.31001 45.32 5.86001 45.39 5.43001C45.47 5.01001 45.63 4.63001 45.87 4.28001C46.11 3.94001 46.42 3.64001 46.8 3.39001C47.18 3.14001 47.58 2.95001 48.02 2.81001C48.53 2.65001 49.04 2.57001 49.56 2.57001C50.08 2.57001 50.58 2.68001 51.06 2.90001L50.16 4.80001L50.17 4.82001Z" fill="black"/>
</g>
<defs>
<clipPath id="clip0_1_48">
<rect width="135.59" height="135.5" fill="white"/>
</clipPath>
</defs>
</svg>
