<svg width="161" height="54" viewBox="0 0 161 54" fill="none" xmlns="http://www.w3.org/2000/svg">
<g clip-path="url(#clip0_358_162)">
<path d="M34.1146 33.8697L33.1998 32.8799L30.4985 35.3962L32.322 40.3668L27.686 40.8663L27.3955 46.9229L24.1317 46.1286L19.0104 51.94L13.8305 45.8586L11.5155 46.8298L10.4153 41.1176L6.4499 41.7785L7.78199 35.6692L3.19541 33.3918L2.59891 34.605L6.24283 36.4108L4.70985 43.4354L9.34278 42.6659L10.508 48.7162L13.4441 47.4845L18.995 54.0002L24.6015 47.6334L28.6627 48.6232L28.9748 42.0857L34.1826 41.5241L32.0717 35.7747L34.1146 33.8697Z" fill="white"/>
<path d="M7.23242 20.6055L9.68643 26.6558L15.9574 27.658L15.7442 24.1271L7.23242 20.6055ZM10.6445 25.4426L9.68952 23.0846L14.4523 25.0548L14.5141 26.0601L10.6476 25.4426H10.6445Z" fill="white"/>
<path d="M22.265 24.1269L21.514 35.1664H16.4854L15.3357 36.3269L15.3697 38.8184L17.7897 40.649H20.2128L22.6328 38.8184V38.505L23.39 27.4468L28.3228 26.6587L30.7768 20.6084L22.2681 24.1269H22.265ZM19.7616 39.2993H18.2378L16.7049 38.1389L16.6894 36.876L17.0448 36.5161H20.9546L21.31 36.876L21.2945 38.1357L19.7616 39.2962V39.2993ZM27.3585 25.4456L23.4827 26.0661L23.5507 25.0577L28.3166 23.0875L27.3616 25.4456H27.3585Z" fill="white"/>
<path d="M20.59 41.8868H17.4128L14.5941 40.7574L11.6023 34.1765L10.3784 34.7349L13.5927 41.8123L17.1563 43.2364H20.8496L24.3668 41.8309L28.598 34.949L28.2086 31.5795L26.8857 28.8677L25.6773 29.4603L26.8981 31.9673L27.2072 34.6388L23.4551 40.7418L20.59 41.8868Z" fill="white"/>
<path d="M37.7064 24.7536L34.7331 19.8606L34.217 19.5069L35.1009 17.7383L34.013 16.7206L35.7963 13.8847L32.0442 0.496438L24.8306 9.01344L18.9923 7.77545L13.1818 9.20581L5.9403 0L2.57145 13.6831L3.9808 16.7424L1.88532 17.9897L3.62847 20.4625L0 23.0068L3.67792 26.5811L0.0309069 30.4254L4.79056 33.2861L5.48288 32.1257L2.16657 30.1338L5.57251 26.5408L2.10785 23.1774L6.09174 20.385L5.32216 19.2773L4.73184 19.69L3.82627 18.4054L7.42692 16.2614L6.7377 15.0979L5.14599 16.0473L3.99317 13.5465L6.58934 3.00345L7.03131 3.56504L6.99731 3.55884L5.35925 12.0231L7.25075 14.2819L8.27995 13.41L6.8026 11.6477L8.10378 4.93025L12.6625 10.7262L19.0139 9.15927L24.2928 10.2794L23.9281 12.0914L25.2478 12.3582L25.7083 10.0622L29.9487 5.05746L31.0274 11.868L29.4511 14.2012L30.5638 14.9614L32.4398 12.1844L31.0954 3.70156L31.4354 3.30441L34.3375 13.6738L33.0116 15.7836L32.4893 15.2965L31.5714 16.2832L33.4474 18.0362L33.0982 18.7343L32.6531 18.4271L31.8897 19.541L33.7348 20.8131L35.7809 24.1765L31.6084 26.1654L34.9062 29.8049L30.9409 31.4835L31.4632 32.7308L37.1779 30.3106L33.8245 26.6028L37.7064 24.7536Z" fill="white"/>
<path d="M8.82085 34.5487L9.44208 33.348L8.47161 32.8422L9.49771 30.9961L7.4455 29.7209L8.54269 28.2781L7.47331 27.459L5.47364 30.0839L7.69584 31.4677L6.62338 33.4007L8.82085 34.5487Z" fill="white"/>
<path d="M61.9526 12.6221H54.9027L53.2894 26.9691L51.6853 12.7089L51.6761 12.6221H44.62V42.6224H48.6967L48.6843 22.5074L50.9374 42.5386L50.9467 42.6224H55.6322L57.8976 22.4888V42.6224H61.9742L61.9526 12.7214V12.6221Z" fill="white"/>
<path d="M72.8751 12.625H66.6659L63.3465 42.6253H67.4509L68.0505 37.1925H71.4905L72.0901 42.6253H76.1914L72.8813 12.7119L72.872 12.625H72.8751ZM70.9063 31.9271H68.6316L69.769 21.6509L70.9063 31.9271Z" fill="white"/>
<path d="M82.1442 33.5995L79.8324 12.7088L79.8231 12.625H75.7187L79.0288 42.5385L79.0381 42.6222H85.2473L88.5667 12.625H84.4653L82.1442 33.5995Z" fill="white"/>
<path d="M90.1834 42.6222H100.822V37.36H94.2631V29.6869H99.2206V24.4185H94.2631V17.8872H100.822V12.625H90.1834V42.6222Z" fill="white"/>
<path d="M113.715 29.1129V12.625H103.08V42.6253H107.157V32.6376L110.733 34.5272V42.6253H114.809V32.0543L109.249 29.116H113.715V29.1129ZM109.639 17.8872V25.0173H107.16V17.8872H109.639Z" fill="white"/>
<path d="M148.532 12.6221L144.205 12.6252L140.839 22.194V12.6252H136.76V42.6224H140.839V34.4839L141.872 31.5456L145.324 42.5573L145.343 42.6224H149.62L144.134 25.1199L148.532 12.6221Z" fill="white"/>
<path d="M121.142 12.625H117.066V42.6253H121.142V12.625Z" fill="white"/>
<path d="M121.142 7.2417H117.066V11.3342H121.142V7.2417Z" fill="white"/>
<path d="M123.866 42.6222H134.504V32.3336H130.424V37.36H127.946V17.8872H130.427V22.9137H134.504V12.625H123.866V42.6222Z" fill="white"/>
<path d="M161 22.9137V12.625H150.365V25.1569L156.923 31.741V37.36H154.441V32.3336H150.365V42.6222H161V30.0438L154.441 23.4598V17.8872H156.923V22.9137H161Z" fill="white"/>
</g>
<defs>
<clipPath id="clip0_358_162">
<rect width="161" height="54" fill="white"/>
</clipPath>
</defs>
</svg>
