<svg width="36" height="52" viewBox="0 0 36 52" fill="none" xmlns="http://www.w3.org/2000/svg">
<path d="M32.5708 32.6074L31.6974 31.6554L29.1184 34.0757L30.8594 38.8567L26.4331 39.3371L26.1557 45.1626L23.0397 44.3986L18.1502 49.9883L13.2046 44.139L10.9944 45.0731L9.94395 39.5789L6.15804 40.2145L7.42985 34.3383L3.05083 32.1478L2.48132 33.3147L5.96034 35.0516L4.49673 41.8082L8.92001 41.0681L10.0325 46.8876L12.8357 45.7028L18.1354 51.97L23.4882 45.846L27.3656 46.7981L27.6636 40.51L32.6357 39.9698L30.6203 34.4398L32.5708 32.6074Z" fill="white"/>
<path d="M6.90515 19.8492L9.2481 25.6687L15.2353 26.6327L15.0317 23.2365L6.90515 19.8492ZM10.1629 24.5019L9.25105 22.2337L13.7983 24.1288L13.8573 25.0957L10.1658 24.5019H10.1629Z" fill="white"/>
<path d="M21.2573 23.2365L20.5403 33.8549H15.7393L14.6416 34.971L14.6741 37.3675L16.9846 39.1282H19.298L21.6085 37.3675V37.066L22.3314 26.4297L27.0409 25.6717L29.3839 19.8522L21.2603 23.2365H21.2573ZM18.8672 37.83H17.4124L15.9488 36.7139L15.9341 35.4992L16.2734 35.1531H20.0062L20.3455 35.4992L20.3308 36.7109L18.8672 37.827V37.83ZM26.1203 24.5048L22.42 25.1017L22.4849 24.1318L27.035 22.2367L26.1232 24.5048H26.1203Z" fill="white"/>
<path d="M19.6582 40.319H16.6248L13.9336 39.2327L11.0772 32.9028L9.90869 33.44L12.9775 40.2473L16.3798 41.6172H19.9061L23.2641 40.2653L27.3038 33.6459L26.932 30.4049L25.669 27.7966L24.5152 28.3666L25.6808 30.778L25.9759 33.3475L22.3936 39.2177L19.6582 40.319Z" fill="white"/>
<path d="M36 23.8393L33.1613 19.133L32.6685 18.7928L33.5125 17.0917L32.4738 16.1128L34.1764 13.3851L30.5941 0.507543L23.7069 8.69963L18.1328 7.50887L12.5852 8.88466L5.67148 0.0300446L2.45508 13.1911L3.80066 16.1337L1.8 17.3334L3.46426 19.7119L0 22.1591L3.51148 25.5971L0.0295082 29.2947L4.57377 32.0463L5.23475 30.9302L2.06852 29.0142L5.32033 25.5583L2.01246 22.3233L5.81607 19.6373L5.08131 18.5719L4.5177 18.9688L3.65311 17.7333L7.09082 15.6711L6.43279 14.552L4.91311 15.4652L3.81246 13.0598L6.29115 2.91891L6.71311 3.45908L6.68066 3.45311L5.11672 11.5945L6.92262 13.7671L7.90525 12.9285L6.49475 11.2334L7.73705 4.7722L12.0895 10.347L18.1534 8.8399L23.1934 9.91725L22.8452 11.6601L24.1052 11.9168L24.5449 9.70835L28.5934 4.89456L29.6233 11.4452L28.1184 13.6895L29.1807 14.4207L30.9718 11.7497L29.6882 3.59039L30.0128 3.2084L32.7836 13.1821L31.5177 15.2115L31.019 14.743L30.1426 15.692L31.9338 17.3782L31.6003 18.0497L31.1754 17.7542L30.4466 18.8256L32.2082 20.0492L34.1616 23.2842L30.178 25.1972L33.3266 28.6979L29.5407 30.3124L30.0393 31.5121L35.4954 29.1843L32.2938 25.618L36 23.8393Z" fill="white"/>
<path d="M8.42145 33.261L9.01456 32.106L8.088 31.6196L9.06768 29.8439L7.10833 28.6173L8.15587 27.2296L7.13489 26.4417L5.22571 28.9665L7.34735 30.2975L6.32341 32.1567L8.42145 33.261Z" fill="white"/>
</svg>
