<svg width="49" height="71" viewBox="0 0 49 71" fill="none" xmlns="http://www.w3.org/2000/svg">
<path d="M43.896 44.4049L42.7189 43.1218L39.2431 46.3837L41.5895 52.8271L35.6242 53.4746L35.2504 61.3257L31.0508 60.296L24.4612 67.8293L17.796 59.9461L14.8173 61.205L13.4015 53.8004L8.29923 54.6571L10.0133 46.7376L4.1116 43.7855L3.34407 45.3581L8.03278 47.6989L6.06026 56.8049L12.0216 55.8074L13.5208 63.6504L17.2988 62.0537L24.4413 70.5L31.6553 62.2467L36.8809 63.5298L37.2825 55.0553L43.9835 54.3273L41.2673 46.8744L43.896 44.4049Z" fill="black"/>
<path d="M9.30611 27.2105L12.4637 35.0535L20.5328 36.3527L20.2584 31.7756L9.30611 27.2105ZM13.6966 33.4809L12.4677 30.4242L18.596 32.9782L18.6756 34.2813L13.7005 33.4809H13.6966Z" fill="black"/>
<path d="M28.6489 31.7756L27.6825 46.0861H21.2121L19.7328 47.5903L19.7765 50.82L22.8904 53.193H26.0082L29.1221 50.82V50.4138L30.0964 36.0792L36.4435 35.0576L39.6011 27.2145L28.6528 31.7756H28.6489ZM25.4276 51.4435H23.467L21.4945 49.9392L21.4746 48.3022L21.932 47.8357H26.9627L27.42 48.3022L27.4001 49.9352L25.4276 51.4394V51.4435ZM35.2027 33.4849L30.2157 34.2894L30.3032 32.9822L36.4355 30.4282L35.2067 33.4849H35.2027Z" fill="black"/>
<path d="M26.4936 54.7978H22.4054L18.7785 53.3338L14.9289 44.803L13.3541 45.527L17.49 54.7013L22.0753 56.5474H26.8277L31.3533 54.7254L36.7976 45.8045L36.2966 41.4365L34.5945 37.9212L33.0395 38.6895L34.6104 41.9393L35.0081 45.4023L30.1802 53.3137L26.4936 54.7978Z" fill="black"/>
<path d="M48.5176 32.588L44.6919 26.2452L44.0277 25.7867L45.1651 23.4941L43.7653 22.1749L46.0599 18.4987L41.232 1.14353L31.95 12.1841L24.4378 10.5793L16.9613 12.4335L7.64351 0.5L3.30874 18.2373L5.12219 22.2031L2.42588 23.8199L4.66882 27.0255L0 30.3236L4.73245 34.957L0.0397685 39.9404L6.16412 43.6487L7.05494 42.1445L2.78777 39.5623L7.17027 34.9047L2.71221 30.5448L7.83838 26.925L6.84814 25.4891L6.08856 26.024L4.92334 24.3589L9.55638 21.5796L8.66954 20.0714L6.62146 21.3021L5.13809 18.0603L8.47865 4.39336L9.04734 5.12135L9.00359 5.11331L6.89586 16.0855L9.32969 19.0136L10.654 17.8834L8.75305 15.5988L10.4273 6.89106L16.2932 14.4043L24.4656 12.3731L31.2581 13.8251L30.7888 16.174L32.4869 16.5199L33.0795 13.5436L38.5357 7.05596L39.9236 15.8844L37.8954 18.909L39.3271 19.8944L41.741 16.2946L40.0111 5.29832L40.4486 4.7835L44.1828 18.2252L42.4768 20.9602L41.8047 20.3288L40.6235 21.6078L43.0375 23.8803L42.5881 24.7852L42.0154 24.387L41.0332 25.831L43.4073 27.48L46.04 31.8399L40.6713 34.4181L44.9146 39.1359L39.8123 41.3119L40.4844 42.9288L47.8376 39.7915L43.5227 34.9852L48.5176 32.588Z" fill="black"/>
<path d="M11.3498 45.2857L12.1491 43.7291L10.9004 43.0735L12.2207 40.6804L9.58009 39.0273L10.9919 37.1571L9.61589 36.0953L7.04286 39.4979L9.90222 41.2918L8.52225 43.7975L11.3498 45.2857Z" fill="black"/>
</svg>
