<svg width="1440" height="127" viewBox="0 0 1440 127" fill="none" xmlns="http://www.w3.org/2000/svg">
<mask id="path-1-outside-1_4_690" maskUnits="userSpaceOnUse" x="-445" y="-2" width="2047" height="131" fill="black">
<rect fill="white" x="-445" y="-2" width="2047" height="131"/>
<path d="M-442.064 125V2.36H-412.496L-381.248 74.264H-380.912L-349.664 2.36H-320.096V125H-343.616V39.32H-343.952L-370.16 98.96H-392L-418.208 39.32H-418.544V125H-442.064ZM-305.332 125L-262.996 2.36H-231.244L-188.908 125H-214.78L-247.036 22.352H-247.372L-279.46 125H-305.332ZM-280.636 96.944V76.448H-213.436V96.944H-280.636ZM-154.73 125L-196.394 2.36H-170.522L-139.442 101.48H-139.106L-108.026 2.36H-82.1542L-123.986 125H-154.73ZM-31.1465 126.68C-39.4345 126.68 -47.5545 125.84 -55.5065 124.16C-63.4585 122.368 -70.0665 119.96 -75.3305 116.936L-69.9545 96.272C-66.1465 98.176 -61.9465 99.912 -57.3545 101.48C-52.7625 102.936 -48.0585 104.112 -43.2425 105.008C-38.4265 105.792 -33.8905 106.184 -29.6345 106.184C-22.2425 106.184 -16.5865 104.896 -12.6665 102.32C-8.7465 99.744 -6.7865 95.992 -6.7865 91.064C-6.7865 88.376 -7.4025 86.136 -8.6345 84.344C-9.8665 82.44 -11.7145 80.816 -14.1785 79.472C-16.6425 78.016 -19.7785 76.672 -23.5865 75.44C-27.3945 74.208 -31.8745 72.92 -37.0265 71.576C-42.9625 69.896 -48.2825 67.992 -52.9865 65.864C-57.6905 63.736 -61.7225 61.216 -65.0825 58.304C-68.3305 55.392 -70.8505 52.032 -72.6425 48.224C-74.3225 44.304 -75.1625 39.824 -75.1625 34.784C-75.1625 23.808 -70.9625 15.408 -62.5625 9.58399C-54.1625 3.648 -42.2905 0.679998 -26.9465 0.679998C-19.3305 0.679998 -11.7705 1.408 -4.26649 2.86399C3.3495 4.20799 9.9015 6.112 15.3895 8.576L9.84551 29.24C4.4695 26.664 -1.4665 24.704 -7.9625 23.36C-14.4585 21.904 -20.8985 21.176 -27.2825 21.176C-34.8985 21.176 -40.6665 22.352 -44.5865 24.704C-48.5065 26.944 -50.4665 30.304 -50.4665 34.784C-50.4665 37.472 -49.9065 39.768 -48.7865 41.672C-47.6665 43.464 -45.9865 45.032 -43.7465 46.376C-41.3945 47.72 -38.4825 49.008 -35.0105 50.24C-31.4265 51.472 -27.1705 52.816 -22.2425 54.272C-15.8585 56.064 -10.2025 58.08 -5.2745 60.32C-0.234495 62.448 3.9655 64.968 7.3255 67.88C10.7975 70.68 13.4295 73.984 15.2215 77.792C17.0135 81.6 17.9095 86.08 17.9095 91.232C17.9095 102.432 13.5975 111.168 4.9735 117.44C-3.5385 123.6 -15.5785 126.68 -31.1465 126.68ZM85.0688 125V2.36H114.637L145.885 74.264H146.221L177.469 2.36H207.037V125H183.517V39.32H183.181L156.973 98.96H135.133L108.925 39.32H108.589V125H85.0688ZM221.801 125L264.137 2.36H295.889L338.225 125H312.353L280.097 22.352H279.761L247.673 125H221.801ZM246.497 96.944V76.448H313.697V96.944H246.497ZM372.403 125L330.739 2.36H356.611L387.691 101.48H388.027L419.107 2.36H444.979L403.147 125H372.403ZM495.986 126.68C487.698 126.68 479.578 125.84 471.626 124.16C463.674 122.368 457.066 119.96 451.802 116.936L457.178 96.272C460.986 98.176 465.186 99.912 469.778 101.48C474.37 102.936 479.074 104.112 483.89 105.008C488.706 105.792 493.242 106.184 497.498 106.184C504.89 106.184 510.546 104.896 514.466 102.32C518.386 99.744 520.346 95.992 520.346 91.064C520.346 88.376 519.73 86.136 518.498 84.344C517.266 82.44 515.418 80.816 512.954 79.472C510.49 78.016 507.354 76.672 503.546 75.44C499.738 74.208 495.258 72.92 490.106 71.576C484.17 69.896 478.85 67.992 474.146 65.864C469.442 63.736 465.41 61.216 462.05 58.304C458.802 55.392 456.282 52.032 454.49 48.224C452.81 44.304 451.97 39.824 451.97 34.784C451.97 23.808 456.17 15.408 464.57 9.58399C472.97 3.648 484.842 0.679998 500.186 0.679998C507.802 0.679998 515.362 1.408 522.866 2.86399C530.482 4.20799 537.034 6.112 542.522 8.576L536.978 29.24C531.602 26.664 525.666 24.704 519.17 23.36C512.674 21.904 506.234 21.176 499.85 21.176C492.234 21.176 486.466 22.352 482.546 24.704C478.626 26.944 476.666 30.304 476.666 34.784C476.666 37.472 477.226 39.768 478.346 41.672C479.466 43.464 481.146 45.032 483.386 46.376C485.738 47.72 488.65 49.008 492.122 50.24C495.706 51.472 499.962 52.816 504.89 54.272C511.274 56.064 516.93 58.08 521.858 60.32C526.898 62.448 531.098 64.968 534.458 67.88C537.93 70.68 540.562 73.984 542.354 77.792C544.146 81.6 545.042 86.08 545.042 91.232C545.042 102.432 540.73 111.168 532.106 117.44C523.594 123.6 511.554 126.68 495.986 126.68ZM612.202 125V2.36H641.77L673.018 74.264H673.354L704.602 2.36H734.17V125H710.65V39.32H710.314L684.106 98.96H662.266L636.058 39.32H635.722V125H612.202ZM748.934 125L791.27 2.36H823.022L865.358 125H839.486L807.23 22.352H806.894L774.806 125H748.934ZM773.63 96.944V76.448H840.83V96.944H773.63ZM899.535 125L857.871 2.36H883.743L914.823 101.48H915.159L946.239 2.36H972.111L930.279 125H899.535ZM1023.12 126.68C1014.83 126.68 1006.71 125.84 998.759 124.16C990.807 122.368 984.199 119.96 978.935 116.936L984.311 96.272C988.119 98.176 992.319 99.912 996.911 101.48C1001.5 102.936 1006.21 104.112 1011.02 105.008C1015.84 105.792 1020.38 106.184 1024.63 106.184C1032.02 106.184 1037.68 104.896 1041.6 102.32C1045.52 99.744 1047.48 95.992 1047.48 91.064C1047.48 88.376 1046.86 86.136 1045.63 84.344C1044.4 82.44 1042.55 80.816 1040.09 79.472C1037.62 78.016 1034.49 76.672 1030.68 75.44C1026.87 74.208 1022.39 72.92 1017.24 71.576C1011.3 69.896 1005.98 67.992 1001.28 65.864C996.575 63.736 992.543 61.216 989.183 58.304C985.935 55.392 983.415 52.032 981.623 48.224C979.943 44.304 979.103 39.824 979.103 34.784C979.103 23.808 983.303 15.408 991.703 9.58399C1000.1 3.648 1011.98 0.679998 1027.32 0.679998C1034.94 0.679998 1042.5 1.408 1050 2.86399C1057.62 4.20799 1064.17 6.112 1069.66 8.576L1064.11 29.24C1058.74 26.664 1052.8 24.704 1046.3 23.36C1039.81 21.904 1033.37 21.176 1026.98 21.176C1019.37 21.176 1013.6 22.352 1009.68 24.704C1005.76 26.944 1003.8 30.304 1003.8 34.784C1003.8 37.472 1004.36 39.768 1005.48 41.672C1006.6 43.464 1008.28 45.032 1010.52 46.376C1012.87 47.72 1015.78 49.008 1019.26 50.24C1022.84 51.472 1027.1 52.816 1032.02 54.272C1038.41 56.064 1044.06 58.08 1048.99 60.32C1054.03 62.448 1058.23 64.968 1061.59 67.88C1065.06 70.68 1067.7 73.984 1069.49 77.792C1071.28 81.6 1072.18 86.08 1072.18 91.232C1072.18 102.432 1067.86 111.168 1059.24 117.44C1050.73 123.6 1038.69 126.68 1023.12 126.68ZM1139.33 125V2.36H1168.9L1200.15 74.264H1200.49L1231.73 2.36H1261.3V125H1237.78V39.32H1237.45L1211.24 98.96H1189.4L1163.19 39.32H1162.85V125H1139.33ZM1276.07 125L1318.4 2.36H1350.15L1392.49 125H1366.62L1334.36 22.352H1334.03L1301.94 125H1276.07ZM1300.76 96.944V76.448H1367.96V96.944H1300.76ZM1426.67 125L1385 2.36H1410.88L1441.96 101.48H1442.29L1473.37 2.36H1499.24L1457.41 125H1426.67ZM1550.25 126.68C1541.96 126.68 1533.84 125.84 1525.89 124.16C1517.94 122.368 1511.33 119.96 1506.07 116.936L1511.44 96.272C1515.25 98.176 1519.45 99.912 1524.04 101.48C1528.64 102.936 1533.34 104.112 1538.16 105.008C1542.97 105.792 1547.51 106.184 1551.76 106.184C1559.16 106.184 1564.81 104.896 1568.73 102.32C1572.65 99.744 1574.61 95.992 1574.61 91.064C1574.61 88.376 1574 86.136 1572.76 84.344C1571.53 82.44 1569.68 80.816 1567.22 79.472C1564.76 78.016 1561.62 76.672 1557.81 75.44C1554 74.208 1549.52 72.92 1544.37 71.576C1538.44 69.896 1533.12 67.992 1528.41 65.864C1523.71 63.736 1519.68 61.216 1516.32 58.304C1513.07 55.392 1510.55 52.032 1508.76 48.224C1507.08 44.304 1506.24 39.824 1506.24 34.784C1506.24 23.808 1510.44 15.408 1518.84 9.58399C1527.24 3.648 1539.11 0.679998 1554.45 0.679998C1562.07 0.679998 1569.63 1.408 1577.13 2.86399C1584.75 4.20799 1591.3 6.112 1596.79 8.576L1591.24 29.24C1585.87 26.664 1579.93 24.704 1573.44 23.36C1566.94 21.904 1560.5 21.176 1554.12 21.176C1546.5 21.176 1540.73 22.352 1536.81 24.704C1532.89 26.944 1530.93 30.304 1530.93 34.784C1530.93 37.472 1531.49 39.768 1532.61 41.672C1533.73 43.464 1535.41 45.032 1537.65 46.376C1540 47.72 1542.92 49.008 1546.39 50.24C1549.97 51.472 1554.23 52.816 1559.16 54.272C1565.54 56.064 1571.2 58.08 1576.12 60.32C1581.16 62.448 1585.36 64.968 1588.72 67.88C1592.2 70.68 1594.83 73.984 1596.62 77.792C1598.41 81.6 1599.31 86.08 1599.31 91.232C1599.31 102.432 1595 111.168 1586.37 117.44C1577.86 123.6 1565.82 126.68 1550.25 126.68Z"/>
</mask>
<path d="M-442.064 125H-444.064V127H-442.064V125ZM-442.064 2.36V0.360001H-444.064V2.36H-442.064ZM-412.496 2.36L-410.662 1.56286L-411.184 0.360001H-412.496V2.36ZM-381.248 74.264L-383.082 75.0611L-382.56 76.264H-381.248V74.264ZM-380.912 74.264V76.264H-379.6L-379.078 75.0611L-380.912 74.264ZM-349.664 2.36V0.360001H-350.976L-351.498 1.56286L-349.664 2.36ZM-320.096 2.36H-318.096V0.360001H-320.096V2.36ZM-320.096 125V127H-318.096V125H-320.096ZM-343.616 125H-345.616V127H-343.616V125ZM-343.616 39.32H-341.616V37.32H-343.616V39.32ZM-343.952 39.32V37.32H-345.258L-345.783 38.5154L-343.952 39.32ZM-370.16 98.96V100.96H-368.854L-368.329 99.7646L-370.16 98.96ZM-392 98.96L-393.831 99.7646L-393.306 100.96H-392V98.96ZM-418.208 39.32L-416.377 38.5154L-416.902 37.32H-418.208V39.32ZM-418.544 39.32V37.32H-420.544V39.32H-418.544ZM-418.544 125V127H-416.544V125H-418.544ZM-440.064 125V2.36H-444.064V125H-440.064ZM-442.064 4.36H-412.496V0.360001H-442.064V4.36ZM-414.33 3.15714L-383.082 75.0611L-379.414 73.4669L-410.662 1.56286L-414.33 3.15714ZM-381.248 76.264H-380.912V72.264H-381.248V76.264ZM-379.078 75.0611L-347.83 3.15714L-351.498 1.56286L-382.746 73.4669L-379.078 75.0611ZM-349.664 4.36H-320.096V0.360001H-349.664V4.36ZM-322.096 2.36V125H-318.096V2.36H-322.096ZM-320.096 123H-343.616V127H-320.096V123ZM-341.616 125V39.32H-345.616V125H-341.616ZM-343.616 37.32H-343.952V41.32H-343.616V37.32ZM-345.783 38.5154L-371.991 98.1554L-368.329 99.7646L-342.121 40.1246L-345.783 38.5154ZM-370.16 96.96H-392V100.96H-370.16V96.96ZM-390.169 98.1554L-416.377 38.5154L-420.039 40.1246L-393.831 99.7646L-390.169 98.1554ZM-418.208 37.32H-418.544V41.32H-418.208V37.32ZM-420.544 39.32V125H-416.544V39.32H-420.544ZM-418.544 123H-442.064V127H-418.544V123ZM-305.332 125L-307.222 124.347L-308.138 127H-305.332V125ZM-262.996 2.36V0.360001H-264.421L-264.886 1.70737L-262.996 2.36ZM-231.244 2.36L-229.353 1.70737L-229.818 0.360001H-231.244V2.36ZM-188.908 125V127H-186.101L-187.017 124.347L-188.908 125ZM-214.78 125L-216.688 125.6L-216.248 127H-214.78V125ZM-247.036 22.352L-245.128 21.7524L-245.568 20.352H-247.036V22.352ZM-247.372 22.352V20.352H-248.842L-249.281 21.7553L-247.372 22.352ZM-279.46 125V127H-277.989L-277.551 125.597L-279.46 125ZM-280.636 96.944H-282.636V98.944H-280.636V96.944ZM-280.636 76.448V74.448H-282.636V76.448H-280.636ZM-213.436 76.448H-211.436V74.448H-213.436V76.448ZM-213.436 96.944V98.944H-211.436V96.944H-213.436ZM-303.441 125.653L-261.105 3.01262L-264.886 1.70737L-307.222 124.347L-303.441 125.653ZM-262.996 4.36H-231.244V0.360001H-262.996V4.36ZM-233.134 3.01262L-190.798 125.653L-187.017 124.347L-229.353 1.70737L-233.134 3.01262ZM-188.908 123H-214.78V127H-188.908V123ZM-212.872 124.4L-245.128 21.7524L-248.944 22.9516L-216.688 125.6L-212.872 124.4ZM-247.036 20.352H-247.372V24.352H-247.036V20.352ZM-249.281 21.7553L-281.369 124.403L-277.551 125.597L-245.463 22.9487L-249.281 21.7553ZM-279.46 123H-305.332V127H-279.46V123ZM-278.636 96.944V76.448H-282.636V96.944H-278.636ZM-280.636 78.448H-213.436V74.448H-280.636V78.448ZM-215.436 76.448V96.944H-211.436V76.448H-215.436ZM-213.436 94.944H-280.636V98.944H-213.436V94.944ZM-154.73 125L-156.624 125.643L-156.163 127H-154.73V125ZM-196.394 2.36V0.360001H-199.186L-198.288 3.00333L-196.394 2.36ZM-170.522 2.36L-168.614 1.7616L-169.053 0.360001H-170.522V2.36ZM-139.442 101.48L-141.351 102.078L-140.911 103.48H-139.442V101.48ZM-139.106 101.48V103.48H-137.637L-137.198 102.078L-139.106 101.48ZM-108.026 2.36V0.360001H-109.495L-109.935 1.7616L-108.026 2.36ZM-82.1542 2.36L-80.2613 3.00566L-79.3589 0.360001H-82.1542V2.36ZM-123.986 125V127H-122.555L-122.093 125.646L-123.986 125ZM-152.836 124.357L-194.5 1.71666L-198.288 3.00333L-156.624 125.643L-152.836 124.357ZM-196.394 4.36H-170.522V0.360001H-196.394V4.36ZM-172.431 2.95839L-141.351 102.078L-137.534 100.882L-168.614 1.7616L-172.431 2.95839ZM-139.442 103.48H-139.106V99.48H-139.442V103.48ZM-137.198 102.078L-106.118 2.95839L-109.935 1.7616L-141.015 100.882L-137.198 102.078ZM-108.026 4.36H-82.1542V0.360001H-108.026V4.36ZM-84.0471 1.71433L-125.879 124.354L-122.093 125.646L-80.2613 3.00566L-84.0471 1.71433ZM-123.986 123H-154.73V127H-123.986V123ZM-55.5065 124.16L-55.9462 126.111L-55.9331 126.114L-55.9199 126.117L-55.5065 124.16ZM-75.3305 116.936L-77.2661 116.432L-77.6504 117.91L-76.3268 118.67L-75.3305 116.936ZM-69.9545 96.272L-69.0601 94.4831L-71.2684 93.379L-71.8901 95.7684L-69.9545 96.272ZM-57.3545 101.48L-58.0008 103.373L-57.9799 103.38L-57.959 103.386L-57.3545 101.48ZM-43.2425 105.008L-43.6083 106.974L-43.5861 106.978L-43.5638 106.982L-43.2425 105.008ZM-8.63449 84.344L-10.3136 85.4305L-10.2984 85.454L-10.2826 85.4771L-8.63449 84.344ZM-14.1785 79.472L-15.196 81.1938L-15.1664 81.2113L-15.1362 81.2278L-14.1785 79.472ZM-37.0265 71.576L-37.5711 73.5004L-37.5513 73.506L-37.5313 73.5112L-37.0265 71.576ZM-52.9865 65.864L-52.1622 64.0418L-52.9865 65.864ZM-65.0825 58.304L-66.4176 59.7931L-66.4051 59.8044L-66.3924 59.8154L-65.0825 58.304ZM-72.6425 48.224L-74.4808 49.0118L-74.467 49.044L-74.4521 49.0756L-72.6425 48.224ZM-62.5625 9.58399L-61.4229 11.2276L-61.4156 11.2225L-61.4083 11.2173L-62.5625 9.58399ZM-4.26648 2.86399L-4.64746 4.82738L-4.6308 4.8306L-4.61407 4.83356L-4.26648 2.86399ZM15.3895 8.576L17.3212 9.09425L17.7626 7.44912L16.2087 6.75146L15.3895 8.576ZM9.84552 29.24L8.98126 31.0436L11.1531 32.0843L11.7772 29.7582L9.84552 29.24ZM-7.96249 23.36L-8.39993 25.3116L-8.38385 25.3152L-8.36771 25.3185L-7.96249 23.36ZM-44.5865 24.704L-43.5942 26.4405L-43.5757 26.4299L-43.5575 26.419L-44.5865 24.704ZM-48.7865 41.672L-50.5104 42.686L-50.4967 42.7092L-50.4825 42.732L-48.7865 41.672ZM-43.7465 46.376L-44.7755 48.091L-44.7572 48.1019L-44.7388 48.1125L-43.7465 46.376ZM-35.0105 50.24L-35.6793 52.1249L-35.67 52.1282L-35.6606 52.1314L-35.0105 50.24ZM-22.2425 54.272L-22.8092 56.19L-22.7961 56.1939L-22.783 56.1976L-22.2425 54.272ZM-5.27451 60.32L-6.10211 62.1407L-6.07742 62.1519L-6.05243 62.1625L-5.27451 60.32ZM7.3255 67.88L6.01562 69.3914L6.04242 69.4146L6.07001 69.4368L7.3255 67.88ZM15.2215 77.792L13.4119 78.6436L15.2215 77.792ZM4.97351 117.44L6.14606 119.06L6.14984 119.057L4.97351 117.44ZM-31.1465 124.68C-39.2983 124.68 -47.2797 123.854 -55.0931 122.203L-55.9199 126.117C-47.8293 127.826 -39.5707 128.68 -31.1465 128.68V124.68ZM-55.0668 122.209C-62.8859 120.447 -69.2917 118.099 -74.3343 115.202L-76.3268 118.67C-70.8412 121.821 -64.0312 124.289 -55.9462 126.111L-55.0668 122.209ZM-73.3949 117.44L-68.0189 96.7756L-71.8901 95.7684L-77.2661 116.432L-73.3949 117.44ZM-70.8489 98.0609C-66.9505 100.01 -62.6662 101.78 -58.0008 103.373L-56.7082 99.5873C-61.2267 98.0444 -65.3425 96.3419 -69.0601 94.4831L-70.8489 98.0609ZM-57.959 103.386C-53.2874 104.868 -48.5037 106.063 -43.6083 106.974L-42.8767 103.042C-47.6133 102.161 -52.2376 101.004 -56.75 99.5735L-57.959 103.386ZM-43.5638 106.982C-38.6567 107.781 -34.0124 108.184 -29.6345 108.184V104.184C-33.7686 104.184 -38.1963 103.803 -42.9211 103.034L-43.5638 106.982ZM-29.6345 108.184C-22.0587 108.184 -15.9522 106.872 -11.5681 103.991L-13.7649 100.649C-17.2207 102.92 -22.4263 104.184 -29.6345 104.184V108.184ZM-11.5681 103.991C-7.05209 101.024 -4.7865 96.6246 -4.7865 91.064H-8.7865C-8.7865 95.3594 -10.4409 98.4643 -13.7649 100.649L-11.5681 103.991ZM-4.7865 91.064C-4.7865 88.0677 -5.4761 85.4078 -6.98642 83.2109L-10.2826 85.4771C-9.32889 86.8642 -8.7865 88.6842 -8.7865 91.064H-4.7865ZM-6.95535 83.2575C-8.40646 81.0149 -10.5329 79.1824 -13.2208 77.7162L-15.1362 81.2278C-12.8961 82.4496 -11.3265 83.8651 -10.3136 85.4305L-6.95535 83.2575ZM-13.161 77.7501C-15.7909 76.1961 -19.0735 74.798 -22.9709 73.5371L-24.2021 77.3429C-20.4834 78.546 -17.4941 79.8359 -15.196 81.1938L-13.161 77.7501ZM-22.9709 73.5371C-26.8251 72.2901 -31.3437 70.9915 -36.5217 69.6408L-37.5313 73.5112C-32.4053 74.8485 -27.9639 76.1259 -24.2021 77.3429L-22.9709 73.5371ZM-36.4818 69.6516C-42.34 67.9936 -47.5641 66.1218 -52.1622 64.0418L-53.8108 67.6862C-49.0009 69.8622 -43.585 71.7984 -37.5711 73.5004L-36.4818 69.6516ZM-52.1622 64.0418C-56.7178 61.9809 -60.5799 59.5596 -63.7726 56.7926L-66.3924 59.8154C-62.8651 62.8723 -58.6632 65.4911 -53.8108 67.6862L-52.1622 64.0418ZM-63.7474 56.8149C-66.8036 54.0748 -69.159 50.9294 -70.8329 47.3724L-74.4521 49.0756C-72.542 53.1346 -69.8574 56.7092 -66.4176 59.7931L-63.7474 56.8149ZM-70.8042 47.4362C-72.36 43.8061 -73.1625 39.6016 -73.1625 34.784H-77.1625C-77.1625 40.0464 -76.2851 44.8019 -74.4808 49.0118L-70.8042 47.4362ZM-73.1625 34.784C-73.1625 24.4067 -69.2387 16.6465 -61.4229 11.2276L-63.7021 7.9404C-72.6862 14.1694 -77.1625 23.2093 -77.1625 34.784H-73.1625ZM-61.4083 11.2173C-53.4748 5.61098 -42.0695 2.68 -26.9465 2.68V-1.32C-42.5115 -1.32 -54.8502 1.68501 -63.7167 7.95066L-61.4083 11.2173ZM-26.9465 2.68C-19.4588 2.68 -12.0264 3.39565 -4.64746 4.82738L-3.88553 0.900604C-11.5146 -0.579651 -19.2021 -1.32 -26.9465 -1.32V2.68ZM-4.61407 4.83356C2.883 6.15657 9.26862 8.02018 14.5703 10.4005L16.2087 6.75146C10.5344 4.20381 3.81601 2.25941 -3.91891 0.894424L-4.61407 4.83356ZM13.4578 8.05774L7.91382 28.7217L11.7772 29.7582L17.3212 9.09425L13.4578 8.05774ZM10.7097 27.4364C5.17221 24.783 -0.920166 22.7747 -7.55728 21.4015L-8.36771 25.3185C-2.01285 26.6333 3.76678 28.545 8.98126 31.0436L10.7097 27.4364ZM-7.52509 21.4084C-14.1585 19.9216 -20.7452 19.176 -27.2825 19.176V23.176C-21.0518 23.176 -14.7585 23.8864 -8.39993 25.3116L-7.52509 21.4084ZM-27.2825 19.176C-35.0461 19.176 -41.2413 20.3645 -45.6155 22.989L-43.5575 26.419C-40.0917 24.3395 -34.7509 23.176 -27.2825 23.176V19.176ZM-45.5788 22.9675C-50.1159 25.5602 -52.4665 29.5794 -52.4665 34.784H-48.4665C-48.4665 31.0286 -46.8971 28.3278 -43.5942 26.4405L-45.5788 22.9675ZM-52.4665 34.784C-52.4665 37.7514 -51.8466 40.4144 -50.5104 42.686L-47.0626 40.658C-47.9663 39.1216 -48.4665 37.1926 -48.4665 34.784H-52.4665ZM-50.4825 42.732C-49.1601 44.8479 -47.2236 46.6221 -44.7755 48.091L-42.7175 44.661C-44.7494 43.4419 -46.1729 42.0801 -47.0905 40.612L-50.4825 42.732ZM-44.7388 48.1125C-42.2543 49.5322 -39.2263 50.8662 -35.6793 52.1249L-34.3417 48.3551C-37.7386 47.1498 -40.5347 45.9078 -42.7542 44.6395L-44.7388 48.1125ZM-35.6606 52.1314C-32.0413 53.3755 -27.7561 54.7284 -22.8092 56.19L-21.6758 52.354C-26.5849 50.9035 -30.8117 49.5685 -34.3604 48.3486L-35.6606 52.1314ZM-22.783 56.1976C-16.4763 57.9679 -10.9193 59.9511 -6.10211 62.1407L-4.4469 58.4993C-9.48569 56.2089 -15.2407 54.1601 -21.702 52.3464L-22.783 56.1976ZM-6.05243 62.1625C-1.16318 64.2269 2.84616 66.6445 6.01562 69.3914L8.63538 66.3686C5.08487 63.2915 0.694183 60.6691 -4.49655 58.4775L-6.05243 62.1625ZM6.07001 69.4368C9.32071 72.0584 11.7565 75.1259 13.4119 78.6436L17.0311 76.9404C15.1025 72.8421 12.2743 69.3016 8.58099 66.3232L6.07001 69.4368ZM13.4119 78.6436C15.0536 82.1323 15.9095 86.3098 15.9095 91.232H19.9095C19.9095 85.8502 18.9734 81.0677 17.0311 76.9404L13.4119 78.6436ZM15.9095 91.232C15.9095 101.83 11.8738 109.949 3.79715 115.823L6.14984 119.057C15.3212 112.387 19.9095 103.034 19.9095 91.232H15.9095ZM3.80096 115.82C-4.24124 121.64 -15.8067 124.68 -31.1465 124.68V128.68C-15.3503 128.68 -2.83572 125.56 6.14603 119.06L3.80096 115.82ZM85.0688 125H83.0688V127H85.0688V125ZM85.0688 2.36V0.360001H83.0688V2.36H85.0688ZM114.637 2.36L116.471 1.56286L115.948 0.360001H114.637V2.36ZM145.885 74.264L144.051 75.0611L144.573 76.264H145.885V74.264ZM146.221 74.264V76.264H147.532L148.055 75.0611L146.221 74.264ZM177.469 2.36V0.360001H176.157L175.635 1.56286L177.469 2.36ZM207.037 2.36H209.037V0.360001H207.037V2.36ZM207.037 125V127H209.037V125H207.037ZM183.517 125H181.517V127H183.517V125ZM183.517 39.32H185.517V37.32H183.517V39.32ZM183.181 39.32V37.32H181.875L181.35 38.5154L183.181 39.32ZM156.973 98.96V100.96H158.279L158.804 99.7646L156.973 98.96ZM135.133 98.96L133.302 99.7646L133.827 100.96H135.133V98.96ZM108.925 39.32L110.756 38.5154L110.231 37.32H108.925V39.32ZM108.589 39.32V37.32H106.589V39.32H108.589ZM108.589 125V127H110.589V125H108.589ZM87.0688 125V2.36H83.0688V125H87.0688ZM85.0688 4.36H114.637V0.360001H85.0688V4.36ZM112.803 3.15714L144.051 75.0611L147.719 73.4669L116.471 1.56286L112.803 3.15714ZM145.885 76.264H146.221V72.264H145.885V76.264ZM148.055 75.0611L179.303 3.15714L175.635 1.56286L144.387 73.4669L148.055 75.0611ZM177.469 4.36H207.037V0.360001H177.469V4.36ZM205.037 2.36V125H209.037V2.36H205.037ZM207.037 123H183.517V127H207.037V123ZM185.517 125V39.32H181.517V125H185.517ZM183.517 37.32H183.181V41.32H183.517V37.32ZM181.35 38.5154L155.142 98.1554L158.804 99.7646L185.012 40.1246L181.35 38.5154ZM156.973 96.96H135.133V100.96H156.973V96.96ZM136.964 98.1554L110.756 38.5154L107.094 40.1246L133.302 99.7646L136.964 98.1554ZM108.925 37.32H108.589V41.32H108.925V37.32ZM106.589 39.32V125H110.589V39.32H106.589ZM108.589 123H85.0688V127H108.589V123ZM221.801 125L219.911 124.347L218.995 127H221.801V125ZM264.137 2.36V0.360001H262.712L262.247 1.70737L264.137 2.36ZM295.889 2.36L297.78 1.70737L297.315 0.360001H295.889V2.36ZM338.225 125V127H341.031L340.116 124.347L338.225 125ZM312.353 125L310.445 125.6L310.885 127H312.353V125ZM280.097 22.352L282.005 21.7524L281.565 20.352H280.097V22.352ZM279.761 22.352V20.352H278.291L277.852 21.7553L279.761 22.352ZM247.673 125V127H249.143L249.582 125.597L247.673 125ZM246.497 96.944H244.497V98.944H246.497V96.944ZM246.497 76.448V74.448H244.497V76.448H246.497ZM313.697 76.448H315.697V74.448H313.697V76.448ZM313.697 96.944V98.944H315.697V96.944H313.697ZM223.692 125.653L266.028 3.01262L262.247 1.70737L219.911 124.347L223.692 125.653ZM264.137 4.36H295.889V0.360001H264.137V4.36ZM293.999 3.01262L336.335 125.653L340.116 124.347L297.78 1.70737L293.999 3.01262ZM338.225 123H312.353V127H338.225V123ZM314.261 124.4L282.005 21.7524L278.189 22.9516L310.445 125.6L314.261 124.4ZM280.097 20.352H279.761V24.352H280.097V20.352ZM277.852 21.7553L245.764 124.403L249.582 125.597L281.67 22.9487L277.852 21.7553ZM247.673 123H221.801V127H247.673V123ZM248.497 96.944V76.448H244.497V96.944H248.497ZM246.497 78.448H313.697V74.448H246.497V78.448ZM311.697 76.448V96.944H315.697V76.448H311.697ZM313.697 94.944H246.497V98.944H313.697V94.944ZM372.403 125L370.509 125.643L370.97 127H372.403V125ZM330.739 2.36V0.360001H327.947L328.845 3.00333L330.739 2.36ZM356.611 2.36L358.519 1.7616L358.08 0.360001H356.611V2.36ZM387.691 101.48L385.782 102.078L386.222 103.48H387.691V101.48ZM388.027 101.48V103.48H389.496L389.935 102.078L388.027 101.48ZM419.107 2.36V0.360001H417.638L417.198 1.7616L419.107 2.36ZM444.979 2.36L446.872 3.00566L447.774 0.360001H444.979V2.36ZM403.147 125V127H404.578L405.04 125.646L403.147 125ZM374.296 124.357L332.632 1.71666L328.845 3.00333L370.509 125.643L374.296 124.357ZM330.739 4.36H356.611V0.360001H330.739V4.36ZM354.702 2.95839L385.782 102.078L389.599 100.882L358.519 1.7616L354.702 2.95839ZM387.691 103.48H388.027V99.48H387.691V103.48ZM389.935 102.078L421.015 2.95839L417.198 1.7616L386.118 100.882L389.935 102.078ZM419.107 4.36H444.979V0.360001H419.107V4.36ZM443.086 1.71433L401.254 124.354L405.04 125.646L446.872 3.00566L443.086 1.71433ZM403.147 123H372.403V127H403.147V123ZM471.626 124.16L471.187 126.111L471.2 126.114L471.213 126.117L471.626 124.16ZM451.802 116.936L449.867 116.432L449.482 117.91L450.806 118.67L451.802 116.936ZM457.178 96.272L458.073 94.4831L455.864 93.379L455.243 95.7684L457.178 96.272ZM469.778 101.48L469.132 103.373L469.153 103.38L469.174 103.386L469.778 101.48ZM483.89 105.008L483.524 106.974L483.547 106.978L483.569 106.982L483.89 105.008ZM518.498 84.344L516.819 85.4305L516.834 85.454L516.85 85.4771L518.498 84.344ZM512.954 79.472L511.937 81.1938L511.966 81.2113L511.997 81.2278L512.954 79.472ZM490.106 71.576L489.562 73.5004L489.582 73.506L489.601 73.5112L490.106 71.576ZM474.146 65.864L474.971 64.0418L474.146 65.864ZM462.05 58.304L460.715 59.7931L460.728 59.8044L460.74 59.8154L462.05 58.304ZM454.49 48.224L452.652 49.0118L452.666 49.044L452.681 49.0756L454.49 48.224ZM464.57 9.58399L465.71 11.2276L465.717 11.2225L465.725 11.2173L464.57 9.58399ZM522.866 2.86399L522.485 4.82738L522.502 4.8306L522.519 4.83356L522.866 2.86399ZM542.522 8.576L544.454 9.09425L544.895 7.44912L543.341 6.75146L542.522 8.576ZM536.978 29.24L536.114 31.0436L538.286 32.0843L538.91 29.7582L536.978 29.24ZM519.17 23.36L518.733 25.3116L518.749 25.3152L518.765 25.3185L519.17 23.36ZM482.546 24.704L483.539 26.4405L483.557 26.4299L483.575 26.419L482.546 24.704ZM478.346 41.672L476.622 42.686L476.636 42.7092L476.65 42.732L478.346 41.672ZM483.386 46.376L482.357 48.091L482.376 48.1019L482.394 48.1125L483.386 46.376ZM492.122 50.24L491.453 52.1249L491.463 52.1282L491.472 52.1314L492.122 50.24ZM504.89 54.272L504.324 56.19L504.337 56.1939L504.35 56.1976L504.89 54.272ZM521.858 60.32L521.031 62.1407L521.055 62.1519L521.08 62.1625L521.858 60.32ZM534.458 67.88L533.148 69.3914L533.175 69.4146L533.203 69.4368L534.458 67.88ZM542.354 77.792L540.545 78.6436L542.354 77.792ZM532.106 117.44L533.279 119.06L533.283 119.057L532.106 117.44ZM495.986 124.68C487.834 124.68 479.853 123.854 472.04 122.203L471.213 126.117C479.304 127.826 487.562 128.68 495.986 128.68V124.68ZM472.066 122.209C464.247 120.447 457.841 118.099 452.799 115.202L450.806 118.67C456.292 121.821 463.102 124.289 471.187 126.111L472.066 122.209ZM453.738 117.44L459.114 96.7756L455.243 95.7684L449.867 116.432L453.738 117.44ZM456.284 98.0609C460.182 100.01 464.467 101.78 469.132 103.373L470.425 99.5873C465.906 98.0444 461.79 96.3419 458.073 94.4831L456.284 98.0609ZM469.174 103.386C473.845 104.868 478.629 106.063 483.524 106.974L484.256 103.042C479.519 102.161 474.895 101.004 470.383 99.5735L469.174 103.386ZM483.569 106.982C488.476 107.781 493.12 108.184 497.498 108.184V104.184C493.364 104.184 488.936 103.803 484.212 103.034L483.569 106.982ZM497.498 108.184C505.074 108.184 511.181 106.872 515.565 103.991L513.368 100.649C509.912 102.92 504.706 104.184 497.498 104.184V108.184ZM515.565 103.991C520.081 101.024 522.346 96.6246 522.346 91.064H518.346C518.346 95.3594 516.692 98.4643 513.368 100.649L515.565 103.991ZM522.346 91.064C522.346 88.0677 521.657 85.4078 520.146 83.2109L516.85 85.4771C517.804 86.8642 518.346 88.6842 518.346 91.064H522.346ZM520.177 83.2575C518.726 81.0149 516.6 79.1824 513.912 77.7162L511.997 81.2278C514.237 82.4496 515.806 83.8651 516.819 85.4305L520.177 83.2575ZM513.972 77.7501C511.342 76.1961 508.059 74.798 504.162 73.5371L502.931 77.3429C506.649 78.546 509.639 79.8359 511.937 81.1938L513.972 77.7501ZM504.162 73.5371C500.308 72.2901 495.789 70.9915 490.611 69.6408L489.601 73.5112C494.728 74.8485 499.169 76.1259 502.931 77.3429L504.162 73.5371ZM490.651 69.6516C484.793 67.9936 479.569 66.1218 474.971 64.0418L473.322 67.6862C478.132 69.8622 483.548 71.7984 489.562 73.5004L490.651 69.6516ZM474.971 64.0418C470.415 61.9809 466.553 59.5596 463.36 56.7926L460.74 59.8154C464.268 62.8723 468.47 65.4911 473.322 67.6862L474.971 64.0418ZM463.385 56.8149C460.329 54.0748 457.974 50.9294 456.3 47.3724L452.681 49.0756C454.591 53.1346 457.275 56.7092 460.715 59.7931L463.385 56.8149ZM456.329 47.4362C454.773 43.8061 453.97 39.6016 453.97 34.784H449.97C449.97 40.0464 450.848 44.8019 452.652 49.0118L456.329 47.4362ZM453.97 34.784C453.97 24.4067 457.894 16.6465 465.71 11.2276L463.431 7.9404C454.447 14.1694 449.97 23.2093 449.97 34.784H453.97ZM465.725 11.2173C473.658 5.61098 485.063 2.68 500.186 2.68V-1.32C484.621 -1.32 472.283 1.68501 463.416 7.95066L465.725 11.2173ZM500.186 2.68C507.674 2.68 515.106 3.39565 522.485 4.82738L523.247 0.900604C515.618 -0.579651 507.931 -1.32 500.186 -1.32V2.68ZM522.519 4.83356C530.016 6.15657 536.401 8.02018 541.703 10.4005L543.341 6.75146C537.667 4.20381 530.949 2.25941 523.214 0.894424L522.519 4.83356ZM540.591 8.05774L535.047 28.7217L538.91 29.7582L544.454 9.09425L540.591 8.05774ZM537.843 27.4364C532.305 24.783 526.213 22.7747 519.576 21.4015L518.765 25.3185C525.12 26.6333 530.9 28.545 536.114 31.0436L537.843 27.4364ZM519.608 21.4084C512.974 19.9216 506.388 19.176 499.85 19.176V23.176C506.081 23.176 512.374 23.8864 518.733 25.3116L519.608 21.4084ZM499.85 19.176C492.087 19.176 485.891 20.3645 481.517 22.989L483.575 26.419C487.041 24.3395 492.382 23.176 499.85 23.176V19.176ZM481.554 22.9675C477.017 25.5602 474.666 29.5794 474.666 34.784H478.666C478.666 31.0286 480.236 28.3278 483.539 26.4405L481.554 22.9675ZM474.666 34.784C474.666 37.7514 475.286 40.4144 476.622 42.686L480.07 40.658C479.166 39.1216 478.666 37.1926 478.666 34.784H474.666ZM476.65 42.732C477.973 44.8479 479.909 46.6221 482.357 48.091L484.415 44.661C482.383 43.4419 480.96 42.0801 480.042 40.612L476.65 42.732ZM482.394 48.1125C484.878 49.5322 487.906 50.8662 491.453 52.1249L492.791 48.3551C489.394 47.1498 486.598 45.9078 484.379 44.6395L482.394 48.1125ZM491.472 52.1314C495.091 53.3755 499.377 54.7284 504.324 56.19L505.457 52.354C500.548 50.9035 496.321 49.5685 492.772 48.3486L491.472 52.1314ZM504.35 56.1976C510.657 57.9679 516.214 59.9511 521.031 62.1407L522.686 58.4993C517.647 56.2089 511.892 54.1601 505.431 52.3464L504.35 56.1976ZM521.08 62.1625C525.97 64.2269 529.979 66.6445 533.148 69.3914L535.768 66.3686C532.218 63.2915 527.827 60.6691 522.636 58.4775L521.08 62.1625ZM533.203 69.4368C536.454 72.0584 538.889 75.1259 540.545 78.6436L544.164 76.9404C542.235 72.8421 539.407 69.3016 535.714 66.3232L533.203 69.4368ZM540.545 78.6436C542.186 82.1323 543.042 86.3098 543.042 91.232H547.042C547.042 85.8502 546.106 81.0677 544.164 76.9404L540.545 78.6436ZM543.042 91.232C543.042 101.83 539.007 109.949 530.93 115.823L533.283 119.057C542.454 112.387 547.042 103.034 547.042 91.232H543.042ZM530.934 115.82C522.892 121.64 511.326 124.68 495.986 124.68V128.68C511.782 128.68 524.297 125.56 533.279 119.06L530.934 115.82ZM612.202 125H610.202V127H612.202V125ZM612.202 2.36V0.360001H610.202V2.36H612.202ZM641.77 2.36L643.604 1.56286L643.081 0.360001H641.77V2.36ZM673.018 74.264L671.183 75.0611L671.706 76.264H673.018V74.264ZM673.354 74.264V76.264H674.665L675.188 75.0611L673.354 74.264ZM704.602 2.36V0.360001H703.29L702.767 1.56286L704.602 2.36ZM734.17 2.36H736.17V0.360001H734.17V2.36ZM734.17 125V127H736.17V125H734.17ZM710.65 125H708.65V127H710.65V125ZM710.65 39.32H712.65V37.32H710.65V39.32ZM710.314 39.32V37.32H709.008L708.483 38.5154L710.314 39.32ZM684.106 98.96V100.96H685.411L685.937 99.7646L684.106 98.96ZM662.266 98.96L660.435 99.7646L660.96 100.96H662.266V98.96ZM636.058 39.32L637.889 38.5154L637.363 37.32H636.058V39.32ZM635.722 39.32V37.32H633.722V39.32H635.722ZM635.722 125V127H637.722V125H635.722ZM614.202 125V2.36H610.202V125H614.202ZM612.202 4.36H641.77V0.360001H612.202V4.36ZM639.935 3.15714L671.183 75.0611L674.852 73.4669L643.604 1.56286L639.935 3.15714ZM673.018 76.264H673.354V72.264H673.018V76.264ZM675.188 75.0611L706.436 3.15714L702.767 1.56286L671.519 73.4669L675.188 75.0611ZM704.602 4.36H734.17V0.360001H704.602V4.36ZM732.17 2.36V125H736.17V2.36H732.17ZM734.17 123H710.65V127H734.17V123ZM712.65 125V39.32H708.65V125H712.65ZM710.65 37.32H710.314V41.32H710.65V37.32ZM708.483 38.5154L682.275 98.1554L685.937 99.7646L712.145 40.1246L708.483 38.5154ZM684.106 96.96H662.266V100.96H684.106V96.96ZM664.097 98.1554L637.889 38.5154L634.227 40.1246L660.435 99.7646L664.097 98.1554ZM636.058 37.32H635.722V41.32H636.058V37.32ZM633.722 39.32V125H637.722V39.32H633.722ZM635.722 123H612.202V127H635.722V123ZM748.934 125L747.043 124.347L746.128 127H748.934V125ZM791.27 2.36V0.360001H789.844L789.379 1.70737L791.27 2.36ZM823.022 2.36L824.912 1.70737L824.447 0.360001H823.022V2.36ZM865.358 125V127H868.164L867.248 124.347L865.358 125ZM839.486 125L837.578 125.6L838.018 127H839.486V125ZM807.23 22.352L809.138 21.7524L808.698 20.352H807.23V22.352ZM806.894 22.352V20.352H805.424L804.985 21.7553L806.894 22.352ZM774.806 125V127H776.276L776.715 125.597L774.806 125ZM773.63 96.944H771.63V98.944H773.63V96.944ZM773.63 76.448V74.448H771.63V76.448H773.63ZM840.83 76.448H842.83V74.448H840.83V76.448ZM840.83 96.944V98.944H842.83V96.944H840.83ZM750.824 125.653L793.161 3.01262L789.379 1.70737L747.043 124.347L750.824 125.653ZM791.27 4.36H823.022V0.360001H791.27V4.36ZM821.131 3.01262L863.467 125.653L867.248 124.347L824.912 1.70737L821.131 3.01262ZM865.358 123H839.486V127H865.358V123ZM841.394 124.4L809.138 21.7524L805.322 22.9516L837.578 125.6L841.394 124.4ZM807.23 20.352H806.894V24.352H807.23V20.352ZM804.985 21.7553L772.897 124.403L776.715 125.597L808.803 22.9487L804.985 21.7553ZM774.806 123H748.934V127H774.806V123ZM775.63 96.944V76.448H771.63V96.944H775.63ZM773.63 78.448H840.83V74.448H773.63V78.448ZM838.83 76.448V96.944H842.83V76.448H838.83ZM840.83 94.944H773.63V98.944H840.83V94.944ZM899.535 125L897.642 125.643L898.103 127H899.535V125ZM857.871 2.36V0.360001H855.08L855.978 3.00333L857.871 2.36ZM883.743 2.36L885.652 1.7616L885.212 0.360001H883.743V2.36ZM914.823 101.48L912.915 102.078L913.354 103.48H914.823V101.48ZM915.159 101.48V103.48H916.628L917.068 102.078L915.159 101.48ZM946.239 2.36V0.360001H944.771L944.331 1.7616L946.239 2.36ZM972.111 2.36L974.004 3.00566L974.907 0.360001H972.111V2.36ZM930.279 125V127H931.71L932.172 125.646L930.279 125ZM901.429 124.357L859.765 1.71666L855.978 3.00333L897.642 125.643L901.429 124.357ZM857.871 4.36H883.743V0.360001H857.871V4.36ZM881.835 2.95839L912.915 102.078L916.732 100.882L885.652 1.7616L881.835 2.95839ZM914.823 103.48H915.159V99.48H914.823V103.48ZM917.068 102.078L948.148 2.95839L944.331 1.7616L913.251 100.882L917.068 102.078ZM946.239 4.36H972.111V0.360001H946.239V4.36ZM970.219 1.71433L928.386 124.354L932.172 125.646L974.004 3.00566L970.219 1.71433ZM930.279 123H899.535V127H930.279V123ZM998.759 124.16L998.319 126.111L998.333 126.114L998.346 126.117L998.759 124.16ZM978.935 116.936L977 116.432L976.615 117.91L977.939 118.67L978.935 116.936ZM984.311 96.272L985.206 94.4831L982.997 93.379L982.376 95.7684L984.311 96.272ZM996.911 101.48L996.265 103.373L996.286 103.38L996.307 103.386L996.911 101.48ZM1011.02 105.008L1010.66 106.974L1010.68 106.978L1010.7 106.982L1011.02 105.008ZM1045.63 84.344L1043.95 85.4305L1043.97 85.454L1043.98 85.4771L1045.63 84.344ZM1040.09 79.472L1039.07 81.1938L1039.1 81.2113L1039.13 81.2278L1040.09 79.472ZM1017.24 71.576L1016.69 73.5004L1016.71 73.506L1016.73 73.5112L1017.24 71.576ZM1001.28 65.864L1002.1 64.0418L1001.28 65.864ZM989.183 58.304L987.848 59.7931L987.861 59.8044L987.873 59.8154L989.183 58.304ZM981.623 48.224L979.785 49.0118L979.799 49.044L979.813 49.0756L981.623 48.224ZM991.703 9.58399L992.843 11.2276L992.85 11.2225L992.857 11.2173L991.703 9.58399ZM1050 2.86399L1049.62 4.82738L1049.63 4.8306L1049.65 4.83356L1050 2.86399ZM1069.66 8.576L1071.59 9.09425L1072.03 7.44912L1070.47 6.75146L1069.66 8.576ZM1064.11 29.24L1063.25 31.0436L1065.42 32.0843L1066.04 29.7582L1064.11 29.24ZM1046.3 23.36L1045.87 25.3116L1045.88 25.3152L1045.9 25.3185L1046.3 23.36ZM1009.68 24.704L1010.67 26.4405L1010.69 26.4299L1010.71 26.419L1009.68 24.704ZM1005.48 41.672L1003.76 42.686L1003.77 42.7092L1003.78 42.732L1005.48 41.672ZM1010.52 46.376L1009.49 48.091L1009.51 48.1019L1009.53 48.1125L1010.52 46.376ZM1019.26 50.24L1018.59 52.1249L1018.6 52.1282L1018.6 52.1314L1019.26 50.24ZM1032.02 54.272L1031.46 56.19L1031.47 56.1939L1031.48 56.1976L1032.02 54.272ZM1048.99 60.32L1048.16 62.1407L1048.19 62.1519L1048.21 62.1625L1048.99 60.32ZM1061.59 67.88L1060.28 69.3914L1060.31 69.4146L1060.34 69.4368L1061.59 67.88ZM1069.49 77.792L1067.68 78.6436L1069.49 77.792ZM1059.24 117.44L1060.41 119.06L1060.42 119.057L1059.24 117.44ZM1023.12 124.68C1014.97 124.68 1006.99 123.854 999.172 122.203L998.346 126.117C1006.44 127.826 1014.69 128.68 1023.12 128.68V124.68ZM999.199 122.209C991.38 120.447 984.974 118.099 979.931 115.202L977.939 118.67C983.424 121.821 990.234 124.289 998.319 126.111L999.199 122.209ZM980.871 117.44L986.247 96.7756L982.376 95.7684L977 116.432L980.871 117.44ZM983.417 98.0609C987.315 100.01 991.599 101.78 996.265 103.373L997.557 99.5873C993.039 98.0444 988.923 96.3419 985.206 94.4831L983.417 98.0609ZM996.307 103.386C1000.98 104.868 1005.76 106.063 1010.66 106.974L1011.39 103.042C1006.65 102.161 1002.03 101.004 997.516 99.5735L996.307 103.386ZM1010.7 106.982C1015.61 107.781 1020.25 108.184 1024.63 108.184V104.184C1020.5 104.184 1016.07 103.803 1011.34 103.034L1010.7 106.982ZM1024.63 108.184C1032.21 108.184 1038.31 106.872 1042.7 103.991L1040.5 100.649C1037.04 102.92 1031.84 104.184 1024.63 104.184V108.184ZM1042.7 103.991C1047.21 101.024 1049.48 96.6246 1049.48 91.064H1045.48C1045.48 95.3594 1043.82 98.4643 1040.5 100.649L1042.7 103.991ZM1049.48 91.064C1049.48 88.0677 1048.79 85.4078 1047.28 83.2109L1043.98 85.4771C1044.94 86.8642 1045.48 88.6842 1045.48 91.064H1049.48ZM1047.31 83.2575C1045.86 81.0149 1043.73 79.1824 1041.04 77.7162L1039.13 81.2278C1041.37 82.4496 1042.94 83.8651 1043.95 85.4305L1047.31 83.2575ZM1041.1 77.7501C1038.47 76.1961 1035.19 74.798 1031.29 73.5371L1030.06 77.3429C1033.78 78.546 1036.77 79.8359 1039.07 81.1938L1041.1 77.7501ZM1031.29 73.5371C1027.44 72.2901 1022.92 70.9915 1017.74 69.6408L1016.73 73.5112C1021.86 74.8485 1026.3 76.1259 1030.06 77.3429L1031.29 73.5371ZM1017.78 69.6516C1011.93 67.9936 1006.7 66.1218 1002.1 64.0418L1000.45 67.6862C1005.26 69.8622 1010.68 71.7984 1016.69 73.5004L1017.78 69.6516ZM1002.1 64.0418C997.548 61.9809 993.686 59.5596 990.493 56.7926L987.873 59.8154C991.401 62.8723 995.602 65.4911 1000.45 67.6862L1002.1 64.0418ZM990.518 56.8149C987.462 54.0748 985.107 50.9294 983.433 47.3724L979.813 49.0756C981.724 53.1346 984.408 56.7092 987.848 59.7931L990.518 56.8149ZM983.461 47.4362C981.906 43.8061 981.103 39.6016 981.103 34.784H977.103C977.103 40.0464 977.981 44.8019 979.785 49.0118L983.461 47.4362ZM981.103 34.784C981.103 24.4067 985.027 16.6465 992.843 11.2276L990.564 7.9404C981.579 14.1694 977.103 23.2093 977.103 34.784H981.103ZM992.857 11.2173C1000.79 5.61098 1012.2 2.68 1027.32 2.68V-1.32C1011.75 -1.32 999.415 1.68501 990.549 7.95066L992.857 11.2173ZM1027.32 2.68C1034.81 2.68 1042.24 3.39565 1049.62 4.82738L1050.38 0.900604C1042.75 -0.579651 1035.06 -1.32 1027.32 -1.32V2.68ZM1049.65 4.83356C1057.15 6.15657 1063.53 8.02018 1068.84 10.4005L1070.47 6.75146C1064.8 4.20381 1058.08 2.25941 1050.35 0.894424L1049.65 4.83356ZM1067.72 8.05774L1062.18 28.7217L1066.04 29.7582L1071.59 9.09425L1067.72 8.05774ZM1064.98 27.4364C1059.44 24.783 1053.35 22.7747 1046.71 21.4015L1045.9 25.3185C1052.25 26.6333 1058.03 28.545 1063.25 31.0436L1064.98 27.4364ZM1046.74 21.4084C1040.11 19.9216 1033.52 19.176 1026.98 19.176V23.176C1033.21 23.176 1039.51 23.8864 1045.87 25.3116L1046.74 21.4084ZM1026.98 19.176C1019.22 19.176 1013.02 20.3645 1008.65 22.989L1010.71 26.419C1014.17 24.3395 1019.51 23.176 1026.98 23.176V19.176ZM1008.69 22.9675C1004.15 25.5602 1001.8 29.5794 1001.8 34.784H1005.8C1005.8 31.0286 1007.37 28.3278 1010.67 26.4405L1008.69 22.9675ZM1001.8 34.784C1001.8 37.7514 1002.42 40.4144 1003.76 42.686L1007.2 40.658C1006.3 39.1216 1005.8 37.1926 1005.8 34.784H1001.8ZM1003.78 42.732C1005.11 44.8479 1007.04 46.6221 1009.49 48.091L1011.55 44.661C1009.52 43.4419 1008.09 42.0801 1007.18 40.612L1003.78 42.732ZM1009.53 48.1125C1012.01 49.5322 1015.04 50.8662 1018.59 52.1249L1019.92 48.3551C1016.53 47.1498 1013.73 45.9078 1011.51 44.6395L1009.53 48.1125ZM1018.6 52.1314C1022.22 53.3755 1026.51 54.7284 1031.46 56.19L1032.59 52.354C1027.68 50.9035 1023.45 49.5685 1019.91 48.3486L1018.6 52.1314ZM1031.48 56.1976C1037.79 57.9679 1043.35 59.9511 1048.16 62.1407L1049.82 58.4993C1044.78 56.2089 1039.02 54.1601 1032.56 52.3464L1031.48 56.1976ZM1048.21 62.1625C1053.1 64.2269 1057.11 66.6445 1060.28 69.3914L1062.9 66.3686C1059.35 63.2915 1054.96 60.6691 1049.77 58.4775L1048.21 62.1625ZM1060.34 69.4368C1063.59 72.0584 1066.02 75.1259 1067.68 78.6436L1071.3 76.9404C1069.37 72.8421 1066.54 69.3016 1062.85 66.3232L1060.34 69.4368ZM1067.68 78.6436C1069.32 82.1323 1070.18 86.3098 1070.18 91.232H1074.18C1074.18 85.8502 1073.24 81.0677 1071.3 76.9404L1067.68 78.6436ZM1070.18 91.232C1070.18 101.83 1066.14 109.949 1058.06 115.823L1060.42 119.057C1069.59 112.387 1074.18 103.034 1074.18 91.232H1070.18ZM1058.07 115.82C1050.02 121.64 1038.46 124.68 1023.12 124.68V128.68C1038.92 128.68 1051.43 125.56 1060.41 119.06L1058.07 115.82ZM1139.33 125H1137.33V127H1139.33V125ZM1139.33 2.36V0.360001H1137.33V2.36H1139.33ZM1168.9 2.36L1170.74 1.56286L1170.21 0.360001H1168.9V2.36ZM1200.15 74.264L1198.32 75.0611L1198.84 76.264H1200.15V74.264ZM1200.49 74.264V76.264H1201.8L1202.32 75.0611L1200.49 74.264ZM1231.73 2.36V0.360001H1230.42L1229.9 1.56286L1231.73 2.36ZM1261.3 2.36H1263.3V0.360001H1261.3V2.36ZM1261.3 125V127H1263.3V125H1261.3ZM1237.78 125H1235.78V127H1237.78V125ZM1237.78 39.32H1239.78V37.32H1237.78V39.32ZM1237.45 39.32V37.32H1236.14L1235.62 38.5154L1237.45 39.32ZM1211.24 98.96V100.96H1212.54L1213.07 99.7646L1211.24 98.96ZM1189.4 98.96L1187.57 99.7646L1188.09 100.96H1189.4V98.96ZM1163.19 39.32L1165.02 38.5154L1164.5 37.32H1163.19V39.32ZM1162.85 39.32V37.32H1160.85V39.32H1162.85ZM1162.85 125V127H1164.85V125H1162.85ZM1141.33 125V2.36H1137.33V125H1141.33ZM1139.33 4.36H1168.9V0.360001H1139.33V4.36ZM1167.07 3.15714L1198.32 75.0611L1201.98 73.4669L1170.74 1.56286L1167.07 3.15714ZM1200.15 76.264H1200.49V72.264H1200.15V76.264ZM1202.32 75.0611L1233.57 3.15714L1229.9 1.56286L1198.65 73.4669L1202.32 75.0611ZM1231.73 4.36H1261.3V0.360001H1231.73V4.36ZM1259.3 2.36V125H1263.3V2.36H1259.3ZM1261.3 123H1237.78V127H1261.3V123ZM1239.78 125V39.32H1235.78V125H1239.78ZM1237.78 37.32H1237.45V41.32H1237.78V37.32ZM1235.62 38.5154L1209.41 98.1554L1213.07 99.7646L1239.28 40.1246L1235.62 38.5154ZM1211.24 96.96H1189.4V100.96H1211.24V96.96ZM1191.23 98.1554L1165.02 38.5154L1161.36 40.1246L1187.57 99.7646L1191.23 98.1554ZM1163.19 37.32H1162.85V41.32H1163.19V37.32ZM1160.85 39.32V125H1164.85V39.32H1160.85ZM1162.85 123H1139.33V127H1162.85V123ZM1276.07 125L1274.18 124.347L1273.26 127H1276.07V125ZM1318.4 2.36V0.360001H1316.98L1316.51 1.70737L1318.4 2.36ZM1350.15 2.36L1352.05 1.70737L1351.58 0.360001H1350.15V2.36ZM1392.49 125V127H1395.3L1394.38 124.347L1392.49 125ZM1366.62 125L1364.71 125.6L1365.15 127H1366.62V125ZM1334.36 22.352L1336.27 21.7524L1335.83 20.352H1334.36V22.352ZM1334.03 22.352V20.352H1332.56L1332.12 21.7553L1334.03 22.352ZM1301.94 125V127H1303.41L1303.85 125.597L1301.94 125ZM1300.76 96.944H1298.76V98.944H1300.76V96.944ZM1300.76 76.448V74.448H1298.76V76.448H1300.76ZM1367.96 76.448H1369.96V74.448H1367.96V76.448ZM1367.96 96.944V98.944H1369.96V96.944H1367.96ZM1277.96 125.653L1320.29 3.01262L1316.51 1.70737L1274.18 124.347L1277.96 125.653ZM1318.4 4.36H1350.15V0.360001H1318.4V4.36ZM1348.26 3.01262L1390.6 125.653L1394.38 124.347L1352.05 1.70737L1348.26 3.01262ZM1392.49 123H1366.62V127H1392.49V123ZM1368.53 124.4L1336.27 21.7524L1332.45 22.9516L1364.71 125.6L1368.53 124.4ZM1334.36 20.352H1334.03V24.352H1334.36V20.352ZM1332.12 21.7553L1300.03 124.403L1303.85 125.597L1335.94 22.9487L1332.12 21.7553ZM1301.94 123H1276.07V127H1301.94V123ZM1302.76 96.944V76.448H1298.76V96.944H1302.76ZM1300.76 78.448H1367.96V74.448H1300.76V78.448ZM1365.96 76.448V96.944H1369.96V76.448H1365.96ZM1367.96 94.944H1300.76V98.944H1367.96V94.944ZM1426.67 125L1424.77 125.643L1425.24 127H1426.67V125ZM1385 2.36V0.360001H1382.21L1383.11 3.00333L1385 2.36ZM1410.88 2.36L1412.78 1.7616L1412.35 0.360001H1410.88V2.36ZM1441.96 101.48L1440.05 102.078L1440.49 103.48H1441.96V101.48ZM1442.29 101.48V103.48H1443.76L1444.2 102.078L1442.29 101.48ZM1473.37 2.36V0.360001H1471.9L1471.46 1.7616L1473.37 2.36ZM1499.24 2.36L1501.14 3.00566L1502.04 0.360001H1499.24V2.36ZM1457.41 125V127H1458.84L1459.31 125.646L1457.41 125ZM1428.56 124.357L1386.9 1.71666L1383.11 3.00333L1424.77 125.643L1428.56 124.357ZM1385 4.36H1410.88V0.360001H1385V4.36ZM1408.97 2.95839L1440.05 102.078L1443.86 100.882L1412.78 1.7616L1408.97 2.95839ZM1441.96 103.48H1442.29V99.48H1441.96V103.48ZM1444.2 102.078L1475.28 2.95839L1471.46 1.7616L1440.38 100.882L1444.2 102.078ZM1473.37 4.36H1499.24V0.360001H1473.37V4.36ZM1497.35 1.71433L1455.52 124.354L1459.31 125.646L1501.14 3.00566L1497.35 1.71433ZM1457.41 123H1426.67V127H1457.41V123ZM1525.89 124.16L1525.45 126.111L1525.47 126.114L1525.48 126.117L1525.89 124.16ZM1506.07 116.936L1504.13 116.432L1503.75 117.91L1505.07 118.67L1506.07 116.936ZM1511.44 96.272L1512.34 94.4831L1510.13 93.379L1509.51 95.7684L1511.44 96.272ZM1524.04 101.48L1523.4 103.373L1523.42 103.38L1523.44 103.386L1524.04 101.48ZM1538.16 105.008L1537.79 106.974L1537.81 106.978L1537.83 106.982L1538.16 105.008ZM1572.76 84.344L1571.08 85.4305L1571.1 85.454L1571.12 85.4771L1572.76 84.344ZM1567.22 79.472L1566.2 81.1938L1566.23 81.2113L1566.26 81.2278L1567.22 79.472ZM1544.37 71.576L1543.83 73.5004L1543.85 73.506L1543.87 73.5112L1544.37 71.576ZM1528.41 65.864L1529.24 64.0418L1528.41 65.864ZM1516.32 58.304L1514.98 59.7931L1514.99 59.8044L1515.01 59.8154L1516.32 58.304ZM1508.76 48.224L1506.92 49.0118L1506.93 49.044L1506.95 49.0756L1508.76 48.224ZM1518.84 9.58399L1519.98 11.2276L1519.98 11.2225L1519.99 11.2173L1518.84 9.58399ZM1577.13 2.86399L1576.75 4.82738L1576.77 4.8306L1576.78 4.83356L1577.13 2.86399ZM1596.79 8.576L1598.72 9.09425L1599.16 7.44912L1597.61 6.75146L1596.79 8.576ZM1591.24 29.24L1590.38 31.0436L1592.55 32.0843L1593.18 29.7582L1591.24 29.24ZM1573.44 23.36L1573 25.3116L1573.01 25.3152L1573.03 25.3185L1573.44 23.36ZM1536.81 24.704L1537.8 26.4405L1537.82 26.4299L1537.84 26.419L1536.81 24.704ZM1532.61 41.672L1530.89 42.686L1530.9 42.7092L1530.92 42.732L1532.61 41.672ZM1537.65 46.376L1536.62 48.091L1536.64 48.1019L1536.66 48.1125L1537.65 46.376ZM1546.39 50.24L1545.72 52.1249L1545.73 52.1282L1545.74 52.1314L1546.39 50.24ZM1559.16 54.272L1558.59 56.19L1558.6 56.1939L1558.62 56.1976L1559.16 54.272ZM1576.12 60.32L1575.3 62.1407L1575.32 62.1519L1575.35 62.1625L1576.12 60.32ZM1588.72 67.88L1587.41 69.3914L1587.44 69.4146L1587.47 69.4368L1588.72 67.88ZM1596.62 77.792L1594.81 78.6436L1596.62 77.792ZM1586.37 117.44L1587.54 119.06L1587.55 119.057L1586.37 117.44ZM1550.25 124.68C1542.1 124.68 1534.12 123.854 1526.31 122.203L1525.48 126.117C1533.57 127.826 1541.83 128.68 1550.25 128.68V124.68ZM1526.33 122.209C1518.51 120.447 1512.11 118.099 1507.06 115.202L1505.07 118.67C1510.56 121.821 1517.37 124.289 1525.45 126.111L1526.33 122.209ZM1508 117.44L1513.38 96.7756L1509.51 95.7684L1504.13 116.432L1508 117.44ZM1510.55 98.0609C1514.45 100.01 1518.73 101.78 1523.4 103.373L1524.69 99.5873C1520.17 98.0444 1516.06 96.3419 1512.34 94.4831L1510.55 98.0609ZM1523.44 103.386C1528.11 104.868 1532.89 106.063 1537.79 106.974L1538.52 103.042C1533.79 102.161 1529.16 101.004 1524.65 99.5735L1523.44 103.386ZM1537.83 106.982C1542.74 107.781 1547.39 108.184 1551.76 108.184V104.184C1547.63 104.184 1543.2 103.803 1538.48 103.034L1537.83 106.982ZM1551.76 108.184C1559.34 108.184 1565.45 106.872 1569.83 103.991L1567.63 100.649C1564.18 102.92 1558.97 104.184 1551.76 104.184V108.184ZM1569.83 103.991C1574.35 101.024 1576.61 96.6246 1576.61 91.064H1572.61C1572.61 95.3594 1570.96 98.4643 1567.63 100.649L1569.83 103.991ZM1576.61 91.064C1576.61 88.0677 1575.92 85.4078 1574.41 83.2109L1571.12 85.4771C1572.07 86.8642 1572.61 88.6842 1572.61 91.064H1576.61ZM1574.44 83.2575C1572.99 81.0149 1570.87 79.1824 1568.18 77.7162L1566.26 81.2278C1568.5 82.4496 1570.07 83.8651 1571.08 85.4305L1574.44 83.2575ZM1568.24 77.7501C1565.61 76.1961 1562.32 74.798 1558.43 73.5371L1557.2 77.3429C1560.92 78.546 1563.9 79.8359 1566.2 81.1938L1568.24 77.7501ZM1558.43 73.5371C1554.57 72.2901 1550.05 70.9915 1544.88 69.6408L1543.87 73.5112C1548.99 74.8485 1553.43 76.1259 1557.2 77.3429L1558.43 73.5371ZM1544.92 69.6516C1539.06 67.9936 1533.83 66.1218 1529.24 64.0418L1527.59 67.6862C1532.4 69.8622 1537.81 71.7984 1543.83 73.5004L1544.92 69.6516ZM1529.24 64.0418C1524.68 61.9809 1520.82 59.5596 1517.63 56.7926L1515.01 59.8154C1518.53 62.8723 1522.74 65.4911 1527.59 67.6862L1529.24 64.0418ZM1517.65 56.8149C1514.59 54.0748 1512.24 50.9294 1510.57 47.3724L1506.95 49.0756C1508.86 53.1346 1511.54 56.7092 1514.98 59.7931L1517.65 56.8149ZM1510.59 47.4362C1509.04 43.8061 1508.24 39.6016 1508.24 34.784H1504.24C1504.24 40.0464 1505.11 44.8019 1506.92 49.0118L1510.59 47.4362ZM1508.24 34.784C1508.24 24.4067 1512.16 16.6465 1519.98 11.2276L1517.7 7.9404C1508.71 14.1694 1504.24 23.2093 1504.24 34.784H1508.24ZM1519.99 11.2173C1527.92 5.61098 1539.33 2.68 1554.45 2.68V-1.32C1538.89 -1.32 1526.55 1.68501 1517.68 7.95066L1519.99 11.2173ZM1554.45 2.68C1561.94 2.68 1569.37 3.39565 1576.75 4.82738L1577.51 0.900604C1569.88 -0.579651 1562.2 -1.32 1554.45 -1.32V2.68ZM1576.78 4.83356C1584.28 6.15657 1590.67 8.02018 1595.97 10.4005L1597.61 6.75146C1591.93 4.20381 1585.21 2.25941 1577.48 0.894424L1576.78 4.83356ZM1594.86 8.05774L1589.31 28.7217L1593.18 29.7582L1598.72 9.09425L1594.86 8.05774ZM1592.11 27.4364C1586.57 24.783 1580.48 22.7747 1573.84 21.4015L1573.03 25.3185C1579.39 26.6333 1585.17 28.545 1590.38 31.0436L1592.11 27.4364ZM1573.87 21.4084C1567.24 19.9216 1560.65 19.176 1554.12 19.176V23.176C1560.35 23.176 1566.64 23.8864 1573 25.3116L1573.87 21.4084ZM1554.12 19.176C1546.35 19.176 1540.16 20.3645 1535.78 22.989L1537.84 26.419C1541.31 24.3395 1546.65 23.176 1554.12 23.176V19.176ZM1535.82 22.9675C1531.28 25.5602 1528.93 29.5794 1528.93 34.784H1532.93C1532.93 31.0286 1534.5 28.3278 1537.8 26.4405L1535.82 22.9675ZM1528.93 34.784C1528.93 37.7514 1529.55 40.4144 1530.89 42.686L1534.34 40.658C1533.43 39.1216 1532.93 37.1926 1532.93 34.784H1528.93ZM1530.92 42.732C1532.24 44.8479 1534.17 46.6221 1536.62 48.091L1538.68 44.661C1536.65 43.4419 1535.23 42.0801 1534.31 40.612L1530.92 42.732ZM1536.66 48.1125C1539.14 49.5322 1542.17 50.8662 1545.72 52.1249L1547.06 48.3551C1543.66 47.1498 1540.86 45.9078 1538.64 44.6395L1536.66 48.1125ZM1545.74 52.1314C1549.36 53.3755 1553.64 54.7284 1558.59 56.19L1559.72 52.354C1554.81 50.9035 1550.59 49.5685 1547.04 48.3486L1545.74 52.1314ZM1558.62 56.1976C1564.92 57.9679 1570.48 59.9511 1575.3 62.1407L1576.95 58.4993C1571.91 56.2089 1566.16 54.1601 1559.7 52.3464L1558.62 56.1976ZM1575.35 62.1625C1580.24 64.2269 1584.24 66.6445 1587.41 69.3914L1590.03 66.3686C1586.48 63.2915 1582.09 60.6691 1576.9 58.4775L1575.35 62.1625ZM1587.47 69.4368C1590.72 72.0584 1593.16 75.1259 1594.81 78.6436L1598.43 76.9404C1596.5 72.8421 1593.67 69.3016 1589.98 66.3232L1587.47 69.4368ZM1594.81 78.6436C1596.45 82.1323 1597.31 86.3098 1597.31 91.232H1601.31C1601.31 85.8502 1600.37 81.0677 1598.43 76.9404L1594.81 78.6436ZM1597.31 91.232C1597.31 101.83 1593.27 109.949 1585.2 115.823L1587.55 119.057C1596.72 112.387 1601.31 103.034 1601.31 91.232H1597.31ZM1585.2 115.82C1577.16 121.64 1565.59 124.68 1550.25 124.68V128.68C1566.05 128.68 1578.56 125.56 1587.54 119.06L1585.2 115.82Z" fill="#FFB54B" mask="url(#path-1-outside-1_4_690)"/>
</svg>
