<svg width="2046" height="130" viewBox="0 0 2046 130" fill="none" xmlns="http://www.w3.org/2000/svg">
<path fill-rule="evenodd" clip-rule="evenodd" d="M1969.53 127.434L1969.52 127.431C1961.43 125.609 1954.62 123.141 1949.14 119.99L1947.81 119.23L1954.19 94.699L1956.4 95.8031C1960.11 97.6589 1964.22 99.359 1968.73 100.9C1973.23 102.326 1977.84 103.478 1982.56 104.358C1987.28 105.124 1991.7 105.504 1995.83 105.504C2003.04 105.504 2008.24 104.24 2011.7 101.969C2015.02 99.7843 2016.68 96.6794 2016.68 92.384C2016.68 90.0042 2016.13 88.1842 2015.18 86.7971L2015.16 86.774L2015.15 86.7505C2014.14 85.1851 2012.57 83.7696 2010.33 82.5478L2010.3 82.5313L2010.27 82.5138C2007.97 81.1559 2004.98 79.866 2001.26 78.6629C1997.5 77.4459 1993.06 76.1685 1987.93 74.8312L1987.91 74.826L1987.89 74.8204C1981.88 73.1184 1976.46 71.1822 1971.65 69.0062C1966.8 66.8111 1962.6 64.1923 1959.07 61.1354L1959.06 61.1244L1959.04 61.1131C1955.6 58.0292 1952.92 54.4546 1951.01 50.3956L1951 50.364L1950.98 50.3318C1949.18 46.1219 1948.3 41.3664 1948.3 36.104C1948.3 24.5321 1952.77 15.4939 1961.75 9.26501C1970.62 3.00313 1982.96 0 1998.52 0C2006.25 0 2013.94 0.739326 2021.56 2.21754C2029.29 3.58237 2036 5.52575 2041.67 8.07146L2043.22 8.76912L2036.62 33.4043L2034.44 32.3636C2029.23 29.865 2023.45 27.9533 2017.09 26.6385L2017.08 26.6352L2017.06 26.6316C2010.7 25.2064 2004.41 24.496 1998.18 24.496C1990.71 24.496 1985.37 25.6595 1981.9 27.739L1981.89 27.7499L1981.87 27.7605C1978.57 29.6478 1977 32.3486 1977 36.104C1977 38.5 1977.49 40.4215 1978.39 41.9539C1979.3 43.4094 1980.71 44.7601 1982.73 45.9705C1984.94 47.2339 1987.73 48.4711 1991.11 49.6721C1994.66 50.89 1998.88 52.2229 2003.78 53.6706C2010.22 55.4803 2015.96 57.524 2020.99 59.8081C2026.16 61.992 2030.53 64.603 2034.07 67.665C2037.75 70.6389 2040.57 74.1721 2042.49 78.2604C2044.44 82.3877 2045.37 87.1702 2045.37 92.552C2045.37 104.354 2040.78 113.707 2031.61 120.377L2031.61 120.38C2022.63 126.88 2010.11 130 1994.32 130C1985.89 130 1977.63 129.146 1969.54 127.437L1969.53 127.434ZM2032.79 69.2C2029.43 66.288 2025.23 63.768 2020.19 61.64C2015.26 59.4 2009.6 57.384 2003.22 55.592C1998.29 54.136 1994.04 52.792 1990.45 51.56C1986.98 50.328 1984.07 49.04 1981.72 47.696C1979.48 46.352 1977.8 44.784 1976.68 42.992C1975.56 41.088 1975 38.792 1975 36.104C1975 31.624 1976.96 28.264 1980.88 26.024C1984.8 23.672 1990.56 22.496 1998.18 22.496C2004.56 22.496 2011 23.224 2017.5 24.68C2023.26 25.8722 2028.58 27.5491 2033.46 29.7108C2034.09 29.986 2034.7 30.2691 2035.31 30.56L2040.85 9.896C2035.36 7.43199 2028.81 5.52799 2021.2 4.18399C2013.69 2.728 2006.13 2 1998.52 2C1983.17 2 1971.3 4.96799 1962.9 10.904C1954.5 16.728 1950.3 25.128 1950.3 36.104C1950.3 41.144 1951.14 45.624 1952.82 49.544C1954.61 53.352 1957.13 56.712 1960.38 59.624C1963.74 62.536 1967.77 65.056 1972.48 67.184C1977.18 69.312 1982.5 71.216 1988.44 72.896C1993.59 74.24 1998.07 75.528 2001.88 76.76C2005.68 77.992 2008.82 79.336 2011.28 80.792C2013.75 82.136 2015.6 83.76 2016.83 85.664C2018.06 87.456 2018.68 89.696 2018.68 92.384C2018.68 97.312 2016.72 101.064 2012.8 103.64C2008.88 106.216 2003.22 107.504 1995.83 107.504C1991.57 107.504 1987.04 107.112 1982.22 106.328C1977.4 105.432 1972.7 104.256 1968.11 102.8C1964.24 101.48 1960.65 100.041 1957.34 98.4822C1956.72 98.1897 1956.11 97.8929 1955.51 97.592L1950.13 118.256C1955.4 121.28 1962 123.688 1969.96 125.48C1977.91 127.16 1986.03 128 1994.32 128C2009.88 128 2021.92 124.92 2030.44 118.76C2039.06 112.488 2043.37 103.752 2043.37 92.552C2043.37 87.4 2042.48 82.92 2040.68 79.112C2038.89 75.304 2036.26 72 2032.79 69.2Z" fill="#FFB54B"/>
<path fill-rule="evenodd" clip-rule="evenodd" d="M1869.3 128.32L1826.28 1.67969H1856.41L1886.19 96.651L1915.97 1.67969H1946.1L1902.91 128.32H1869.3ZM1886.36 102.8H1886.02L1854.94 3.67969H1829.07L1870.73 126.32H1901.48L1943.31 3.67969H1917.44L1886.36 102.8Z" fill="#FFB54B"/>
<path fill-rule="evenodd" clip-rule="evenodd" d="M1717.32 128.32L1761.04 1.67969H1795.64L1839.36 128.32H1809.21L1800.4 100.264H1756.24L1747.47 128.32H1717.32ZM1754.77 98.2637H1801.87L1810.68 126.32H1836.55L1794.22 3.67969H1762.47L1720.13 126.32H1746L1754.77 98.2637ZM1778.43 23.6717H1778.09L1761.18 77.7677H1795.43L1778.43 23.6717ZM1792.7 75.7677L1778.26 29.823L1763.9 75.7677H1792.7Z" fill="#FFB54B"/>
<path fill-rule="evenodd" clip-rule="evenodd" d="M1581.4 128.32V1.67969H1614.28L1644.38 70.9523L1674.49 1.67969H1707.37V128.32H1679.85V49.3976L1656.61 102.28H1632.16L1608.92 49.3979V128.32H1581.4ZM1606.92 40.6397H1607.25L1633.46 100.28H1655.3L1681.51 40.6397H1681.85V126.32H1705.37V3.67969H1675.8L1644.55 75.5837H1644.21L1612.97 3.67969H1583.4V126.32H1606.92V40.6397Z" fill="#FFB54B"/>
<path fill-rule="evenodd" clip-rule="evenodd" d="M1442.4 127.434L1442.38 127.431C1434.3 125.609 1427.49 123.141 1422 119.99L1420.68 119.23L1427.06 94.699L1429.27 95.8031C1432.98 97.6589 1437.09 99.359 1441.6 100.9C1446.1 102.326 1450.71 103.478 1455.43 104.358C1460.15 105.124 1464.57 105.504 1468.7 105.504C1475.9 105.504 1481.11 104.24 1484.56 101.969C1487.89 99.7843 1489.54 96.6794 1489.54 92.384C1489.54 90.0042 1489 88.1842 1488.05 86.7971L1488.03 86.774L1488.02 86.7505C1487 85.1851 1485.43 83.7696 1483.19 82.5478L1483.16 82.5313L1483.13 82.5138C1480.84 81.1559 1477.85 79.866 1474.13 78.6629C1470.37 77.4459 1465.92 76.1685 1460.8 74.8312L1460.78 74.826L1460.76 74.8204C1454.74 73.1184 1449.33 71.1822 1444.52 69.0062C1439.67 66.8111 1435.46 64.1923 1431.94 61.1354L1431.92 61.1244L1431.91 61.1131C1428.47 58.0292 1425.79 54.4546 1423.88 50.3956L1423.86 50.364L1423.85 50.3318C1422.04 46.1219 1421.17 41.3664 1421.17 36.104C1421.17 24.5321 1425.64 15.4939 1434.62 9.26501C1443.49 3.00313 1455.82 0 1471.38 0C1479.12 0 1486.8 0.739326 1494.43 2.21754C1502.16 3.58237 1508.87 5.52575 1514.54 8.07146L1516.09 8.76912L1509.48 33.4043L1507.31 32.3636C1502.1 29.865 1496.32 27.9533 1489.96 26.6385L1489.95 26.6352L1489.93 26.6316C1483.57 25.2064 1477.28 24.496 1471.05 24.496C1463.58 24.496 1458.24 25.6595 1454.77 27.739L1454.75 27.7499L1454.74 27.7605C1451.43 29.6478 1449.86 32.3486 1449.86 36.104C1449.86 38.5 1450.36 40.4215 1451.25 41.9539C1452.17 43.4094 1453.58 44.7601 1455.59 45.9705C1457.81 47.2339 1460.6 48.4711 1463.98 49.6721C1467.52 50.89 1471.74 52.2229 1476.64 53.6706C1483.09 55.4803 1488.83 57.524 1493.86 59.8081C1499.02 61.992 1503.4 64.603 1506.94 67.6649C1510.62 70.6389 1513.44 74.1721 1515.36 78.2604C1517.3 82.3877 1518.24 87.1702 1518.24 92.552C1518.24 104.354 1513.65 113.707 1504.48 120.377L1504.48 120.38C1495.49 126.88 1482.98 130 1467.18 130C1458.76 130 1450.5 129.146 1442.41 127.437L1442.4 127.434ZM1505.66 69.2C1502.3 66.288 1498.1 63.768 1493.06 61.64C1488.13 59.4 1482.47 57.384 1476.09 55.592C1471.16 54.136 1466.9 52.792 1463.32 51.56C1459.85 50.328 1456.94 49.04 1454.58 47.696C1452.34 46.352 1450.66 44.784 1449.54 42.992C1448.42 41.088 1447.86 38.792 1447.86 36.104C1447.86 31.624 1449.82 28.264 1453.74 26.024C1457.66 23.672 1463.43 22.496 1471.05 22.496C1477.43 22.496 1483.87 23.224 1490.37 24.68C1496.13 25.8722 1501.45 27.5491 1506.33 29.7108C1506.95 29.986 1507.57 30.2691 1508.18 30.56L1513.72 9.896C1508.23 7.43199 1501.68 5.52799 1494.06 4.18399C1486.56 2.728 1479 2 1471.38 2C1456.04 2 1444.17 4.96799 1435.77 10.904C1427.37 16.728 1423.17 25.128 1423.17 36.104C1423.17 41.144 1424.01 45.624 1425.69 49.544C1427.48 53.352 1430 56.712 1433.25 59.624C1436.61 62.536 1440.64 65.056 1445.34 67.184C1450.05 69.312 1455.37 71.216 1461.3 72.896C1466.46 74.24 1470.94 75.528 1474.74 76.76C1478.55 77.992 1481.69 79.336 1484.15 80.792C1486.62 82.136 1488.46 83.76 1489.7 85.664C1490.93 87.456 1491.54 89.696 1491.54 92.384C1491.54 97.312 1489.58 101.064 1485.66 103.64C1481.74 106.216 1476.09 107.504 1468.7 107.504C1464.44 107.504 1459.9 107.112 1455.09 106.328C1450.27 105.432 1445.57 104.256 1440.98 102.8C1437.11 101.48 1433.52 100.041 1430.21 98.4822C1429.59 98.1897 1428.98 97.8929 1428.38 97.592L1423 118.256C1428.26 121.28 1434.87 123.688 1442.82 125.48C1450.78 127.16 1458.9 128 1467.18 128C1482.75 128 1494.79 124.92 1503.3 118.76C1511.93 112.488 1516.24 103.752 1516.24 92.552C1516.24 87.4 1515.34 82.92 1513.55 79.112C1511.76 75.304 1509.13 72 1505.66 69.2Z" fill="#FFB54B"/>
<path fill-rule="evenodd" clip-rule="evenodd" d="M1342.17 128.32L1299.14 1.67969H1329.28L1359.06 96.651L1388.83 1.67969H1418.97L1375.77 128.32H1342.17ZM1359.22 102.8H1358.89L1327.81 3.67969H1301.94L1343.6 126.32H1374.34L1416.18 3.67969H1390.3L1359.22 102.8Z" fill="#FFB54B"/>
<path fill-rule="evenodd" clip-rule="evenodd" d="M1190.19 128.32L1233.91 1.67969H1268.51L1312.23 128.32H1282.08L1273.27 100.264H1229.11L1220.34 128.32H1190.19ZM1227.64 98.2637H1274.73L1283.55 126.32H1309.42L1267.09 3.67969H1235.33L1193 126.32H1218.87L1227.64 98.2637ZM1251.29 23.6717H1250.96L1234.05 77.7677H1268.29L1251.29 23.6717ZM1265.57 75.7677L1251.13 29.823L1236.77 75.7677H1265.57Z" fill="#FFB54B"/>
<path fill-rule="evenodd" clip-rule="evenodd" d="M1054.27 128.32V1.67969H1087.15L1117.25 70.9523L1147.35 1.67969H1180.23V128.32H1152.71V49.3976L1129.48 102.28H1105.02L1081.79 49.3979V128.32H1054.27ZM1079.79 40.6397H1080.12L1106.33 100.28H1128.17L1154.38 40.6397H1154.71V126.32H1178.23V3.67969H1148.67L1117.42 75.5837H1117.08L1085.83 3.67969H1056.27V126.32H1079.79V40.6397Z" fill="#FFB54B"/>
<path fill-rule="evenodd" clip-rule="evenodd" d="M915.264 127.434L915.251 127.431C907.166 125.609 900.356 123.141 894.87 119.99L893.546 119.23L899.928 94.699L902.137 95.8031C905.849 97.659 909.957 99.3592 914.468 100.9C918.967 102.326 923.576 103.478 928.298 104.358C933.014 105.124 937.435 105.504 941.562 105.504C948.771 105.504 953.976 104.24 957.432 101.969C960.756 99.7843 962.41 96.6794 962.41 92.384C962.41 90.0042 961.868 88.1842 960.914 86.7971L960.898 86.774L960.883 86.7505C959.87 85.1851 958.301 83.7696 956.061 82.5478L956.03 82.5313L956.001 82.5138C953.703 81.1559 950.713 79.866 946.995 78.6629C943.233 77.4459 938.792 76.1685 933.665 74.8312L933.646 74.826L933.626 74.8204C927.612 73.1184 922.196 71.1822 917.386 69.0062C912.534 66.8111 908.332 64.1923 904.805 61.1354L904.792 61.1244L904.779 61.1131C901.339 58.0292 898.655 54.4546 896.745 50.3956L896.73 50.364L896.716 50.3318C894.912 46.1219 894.034 41.3664 894.034 36.104C894.034 24.5321 898.508 15.4939 907.488 9.26501C916.354 3.00313 928.69 0 944.25 0C951.989 0 959.671 0.739296 967.295 2.21743C975.023 3.58227 981.735 5.52567 987.406 8.07146L988.959 8.76912L982.35 33.4043L980.178 32.3636C974.964 29.865 969.184 27.9533 962.829 26.6385L962.813 26.6352L962.797 26.6316C956.438 25.2064 950.145 24.496 943.914 24.496C936.446 24.496 931.105 25.6595 927.639 27.739L927.621 27.7499L927.603 27.7605C924.3 29.6478 922.73 32.3486 922.73 36.104C922.73 38.5007 923.226 40.4226 924.121 41.9552C925.036 43.41 926.449 44.76 928.461 45.9698C930.675 47.2335 933.463 48.4709 936.847 49.6721C940.39 50.8899 944.609 52.2226 949.508 53.6702C955.954 55.48 961.696 57.5238 966.725 59.8081C971.892 61.9922 976.266 64.6034 979.806 67.6657C983.485 70.6395 986.304 74.1724 988.228 78.2604C990.17 82.3877 991.106 87.1702 991.106 92.552C991.106 104.354 986.518 113.707 977.347 120.377L977.343 120.38C968.361 126.88 955.846 130 940.05 130C931.626 130 923.368 129.146 915.277 127.437L915.264 127.434ZM978.522 69.2C975.162 66.288 970.962 63.768 965.922 61.64C960.994 59.4 955.338 57.384 948.954 55.592C944.026 54.136 939.77 52.792 936.186 51.56C932.714 50.328 929.802 49.04 927.45 47.696C925.21 46.352 923.53 44.784 922.41 42.992C921.29 41.088 920.73 38.792 920.73 36.104C920.73 31.624 922.69 28.264 926.61 26.024C930.53 23.672 936.298 22.496 943.914 22.496C950.298 22.496 956.738 23.224 963.234 24.68C968.997 25.8722 974.318 27.5491 979.199 29.7108C979.821 29.986 980.435 30.2691 981.042 30.56L986.586 9.896C981.098 7.43199 974.546 5.52799 966.93 4.18399C959.426 2.728 951.866 2 944.25 2C928.906 2 917.034 4.96799 908.634 10.904C900.234 16.728 896.034 25.128 896.034 36.104C896.034 41.144 896.874 45.624 898.554 49.544C900.346 53.352 902.866 56.712 906.114 59.624C909.474 62.536 913.506 65.056 918.21 67.184C922.914 69.312 928.234 71.216 934.17 72.896C939.322 74.24 943.802 75.528 947.61 76.76C951.418 77.992 954.554 79.336 957.018 80.792C959.482 82.136 961.33 83.76 962.562 85.664C963.794 87.456 964.41 89.696 964.41 92.384C964.41 97.312 962.45 101.064 958.53 103.64C954.61 106.216 948.954 107.504 941.562 107.504C937.306 107.504 932.77 107.112 927.954 106.328C923.138 105.432 918.434 104.256 913.842 102.8C909.976 101.48 906.388 100.041 903.077 98.4822C902.456 98.1897 901.844 97.8929 901.242 97.592L895.866 118.256C901.13 121.28 907.738 123.688 915.69 125.48C923.642 127.16 931.762 128 940.05 128C955.618 128 967.658 124.92 976.17 118.76C984.794 112.488 989.106 103.752 989.106 92.552C989.106 87.4 988.21 82.92 986.418 79.112C984.626 75.304 981.994 72 978.522 69.2Z" fill="#FFB54B"/>
<path fill-rule="evenodd" clip-rule="evenodd" d="M815.034 128.32L772.011 1.67969H802.143L831.923 96.6509L861.702 1.67969H891.838L848.642 128.32H815.034ZM832.091 102.8H831.755L800.675 3.67969H774.803L816.467 126.32H847.211L889.043 3.67969H863.171L832.091 102.8Z" fill="#FFB54B"/>
<path fill-rule="evenodd" clip-rule="evenodd" d="M663.059 128.32L706.776 1.67969H741.378L785.095 128.32H754.949L746.133 100.264H701.978L693.207 128.32H663.059ZM700.507 98.2637H747.601L756.417 126.32H782.289L739.953 3.67969H708.201L665.865 126.32H691.737L700.507 98.2637ZM724.161 23.6717H723.825L706.915 77.7677H741.16L724.161 23.6717ZM738.435 75.7677L723.998 29.823L709.635 75.7677H738.435Z" fill="#FFB54B"/>
<path fill-rule="evenodd" clip-rule="evenodd" d="M527.133 128.32V1.67969H560.012L590.117 70.9523L620.221 1.67969H653.101V128.32H625.581V49.3976L602.343 102.28H577.891L554.653 49.3976V128.32H527.133ZM552.653 40.6397H552.989L579.197 100.28H601.037L627.245 40.6397H627.581V126.32H651.101V3.67969H621.533L590.285 75.5837H589.949L558.701 3.67969H529.133V126.32H552.653V40.6397Z" fill="#FFB54B"/>
<path fill-rule="evenodd" clip-rule="evenodd" d="M388.131 127.434L388.118 127.431C380.033 125.609 373.223 123.141 367.737 119.99L366.414 119.23L372.796 94.699L375.004 95.8031C378.716 97.659 382.824 99.359 387.335 100.9C391.833 102.326 396.443 103.478 401.165 104.358C405.882 105.124 410.302 105.504 414.43 105.504C421.638 105.504 426.843 104.24 430.299 101.969C433.623 99.7843 435.277 96.6794 435.277 92.384C435.277 90.0042 434.735 88.1842 433.781 86.7971L433.766 86.774L433.75 86.7505C432.737 85.1851 431.168 83.7696 428.928 82.5478L428.898 82.5313L428.868 82.5138C426.57 81.1559 423.581 79.866 419.862 78.6629C416.1 77.4459 411.659 76.1685 406.533 74.8312L406.513 74.826L406.493 74.8204C400.479 73.1184 395.063 71.1822 390.253 69.0062C385.401 66.8111 381.199 64.1923 377.672 61.1354L377.659 61.1244L377.646 61.1131C374.207 58.0292 371.522 54.4546 369.612 50.3956L369.597 50.364L369.583 50.3318C367.779 46.1219 366.901 41.3664 366.901 36.104C366.901 24.5329 371.375 15.495 380.354 9.26619C389.22 3.00351 401.556 0 417.117 0C424.856 0 432.538 0.739296 440.162 2.21743C447.89 3.58227 454.603 5.52567 460.273 8.07146L461.827 8.76912L455.217 33.4043L453.045 32.3636C447.831 29.865 442.051 27.9533 435.696 26.6385L435.68 26.6352L435.664 26.6316C429.306 25.2064 423.012 24.496 416.781 24.496C409.313 24.496 403.972 25.6595 400.507 27.739L400.488 27.7499L400.47 27.7605C397.167 29.6478 395.598 32.3486 395.598 36.104C395.598 38.5007 396.093 40.4226 396.988 41.9552C397.903 43.4101 399.317 44.7603 401.328 45.9701C403.543 47.2337 406.33 48.471 409.714 49.6721C413.257 50.8899 417.477 52.2226 422.376 53.6702C428.821 55.48 434.563 57.5237 439.592 59.8079C444.759 61.992 449.133 64.6034 452.673 67.6657C456.353 70.6395 459.171 74.1724 461.095 78.2604C463.037 82.3877 463.974 87.1702 463.974 92.552C463.974 104.354 459.385 113.707 450.214 120.377L450.21 120.38C441.228 126.88 428.714 130 412.918 130C404.493 130 396.235 129.146 388.144 127.437L388.131 127.434ZM451.389 69.2C448.03 66.288 443.829 63.768 438.789 61.64C433.862 59.4 428.206 57.384 421.822 55.592C416.893 54.136 412.637 52.792 409.053 51.56C405.582 50.328 402.669 49.04 400.318 47.696C398.077 46.352 396.397 44.784 395.277 42.992C394.158 41.088 393.598 38.792 393.598 36.104C393.598 31.624 395.557 28.264 399.478 26.024C403.397 23.672 409.165 22.496 416.781 22.496C423.165 22.496 429.605 23.224 436.102 24.68C441.864 25.8722 447.186 27.5491 452.067 29.7108C452.688 29.986 453.302 30.2691 453.91 30.56L459.453 9.896C453.966 7.43199 447.414 5.52799 439.798 4.18399C432.293 2.728 424.733 2 417.117 2C401.773 2 389.901 4.96799 381.501 10.904C373.102 16.728 368.901 25.128 368.901 36.104C368.901 41.144 369.741 45.624 371.422 49.544C373.214 53.352 375.733 56.712 378.982 59.624C382.341 62.536 386.374 65.056 391.077 67.184C395.781 69.312 401.102 71.216 407.038 72.896C412.189 74.24 416.669 75.528 420.478 76.76C424.285 77.992 427.422 79.336 429.885 80.792C432.349 82.136 434.198 83.76 435.43 85.664C436.661 87.456 437.277 89.696 437.277 92.384C437.277 97.312 435.318 101.064 431.397 103.64C427.478 106.216 421.822 107.504 414.43 107.504C410.173 107.504 405.638 107.112 400.822 106.328C396.005 105.432 391.301 104.256 386.71 102.8C382.843 101.48 379.255 100.041 375.944 98.4822C375.323 98.1897 374.711 97.8929 374.109 97.592L368.733 118.256C373.997 121.28 380.605 123.688 388.557 125.48C396.509 127.16 404.629 128 412.918 128C428.486 128 440.526 124.92 449.038 118.76C457.661 112.488 461.974 103.752 461.974 92.552C461.974 87.4 461.077 82.92 459.285 79.112C457.493 75.304 454.862 72 451.389 69.2Z" fill="#FFB54B"/>
<path fill-rule="evenodd" clip-rule="evenodd" d="M287.901 128.32L244.878 1.67969H275.011L304.79 96.6509L334.569 1.67969H364.705L321.509 128.32H287.901ZM304.958 102.8H304.622L273.542 3.67969H247.67L289.334 126.32H320.078L361.91 3.67969H336.038L304.958 102.8Z" fill="#FFB54B"/>
<path fill-rule="evenodd" clip-rule="evenodd" d="M135.926 128.32L179.643 1.67969H214.246L257.963 128.32H227.816L219 100.264H174.845L166.075 128.32H135.926ZM173.375 98.2637H220.468L229.284 126.32H255.156L212.82 3.67969H181.068L138.732 126.32H164.604L173.375 98.2637ZM197.028 23.6717H196.692L179.782 77.7677H214.027L197.028 23.6717ZM211.302 75.7677L196.865 29.8229L182.502 75.7677H211.302Z" fill="#FFB54B"/>
<path fill-rule="evenodd" clip-rule="evenodd" d="M0 128.32V1.67969H32.8795L62.984 70.9523L93.0885 1.67969H125.968V128.32H98.448V49.3977L75.2097 102.28H50.7583L27.52 49.3977V128.32H0ZM25.52 40.6397H25.856L52.064 100.28H73.904L100.112 40.6397H100.448V126.32H123.968V3.67969H94.4L63.152 75.5837H62.816L31.568 3.67969H2V126.32H25.52V40.6397Z" fill="#FFB54B"/>
</svg>
