<svg width="2043" height="127" viewBox="0 0 2043 127" fill="none" xmlns="http://www.w3.org/2000/svg">
<mask id="path-1-outside-1_1645_180" maskUnits="userSpaceOnUse" x="-2" y="-2" width="2047" height="131" fill="black">
<rect fill="white" x="-2" y="-2" width="2047" height="131"/>
<path d="M0.936001 125V2.36H30.504L61.752 74.264H62.088L93.336 2.36H122.904V125H99.384V39.32H99.048L72.84 98.96H51L24.792 39.32H24.456V125H0.936001ZM137.668 125L180.004 2.36H211.756L254.092 125H228.22L195.964 22.352H195.628L163.54 125H137.668ZM162.364 96.944V76.448H229.564V96.944H162.364ZM288.27 125L246.606 2.36H272.478L303.558 101.48H303.894L334.974 2.36H360.846L319.014 125H288.27ZM411.854 126.68C403.566 126.68 395.446 125.84 387.494 124.16C379.542 122.368 372.934 119.96 367.67 116.936L373.046 96.272C376.854 98.176 381.054 99.912 385.646 101.48C390.238 102.936 394.942 104.112 399.758 105.008C404.574 105.792 409.11 106.184 413.366 106.184C420.758 106.184 426.414 104.896 430.334 102.32C434.254 99.744 436.214 95.992 436.214 91.064C436.214 88.376 435.598 86.136 434.366 84.344C433.134 82.44 431.286 80.816 428.822 79.472C426.358 78.016 423.222 76.672 419.414 75.44C415.606 74.208 411.126 72.92 405.974 71.576C400.038 69.896 394.718 67.992 390.014 65.864C385.31 63.736 381.278 61.216 377.918 58.304C374.67 55.392 372.15 52.032 370.358 48.224C368.678 44.304 367.838 39.824 367.838 34.784C367.838 23.808 372.038 15.408 380.438 9.58399C388.838 3.648 400.71 0.679998 416.054 0.679998C423.67 0.679998 431.23 1.408 438.734 2.86399C446.35 4.20799 452.902 6.112 458.39 8.576L452.846 29.24C447.47 26.664 441.534 24.704 435.038 23.36C428.542 21.904 422.102 21.176 415.718 21.176C408.102 21.176 402.334 22.352 398.414 24.704C394.494 26.944 392.534 30.304 392.534 34.784C392.534 37.472 393.094 39.768 394.214 41.672C395.334 43.464 397.014 45.032 399.254 46.376C401.606 47.72 404.518 49.008 407.99 50.24C411.574 51.472 415.83 52.816 420.758 54.272C427.142 56.064 432.798 58.08 437.726 60.32C442.766 62.448 446.966 64.968 450.326 67.88C453.798 70.68 456.43 73.984 458.221 77.792C460.014 81.6 460.91 86.08 460.91 91.232C460.91 102.432 456.598 111.168 447.974 117.44C439.462 123.6 427.422 126.68 411.854 126.68ZM528.069 125V2.36H557.637L588.885 74.264H589.221L620.469 2.36H650.037V125H626.517V39.32H626.181L599.973 98.96H578.133L551.925 39.32H551.589V125H528.069ZM664.801 125L707.137 2.36H738.889L781.225 125H755.353L723.097 22.352H722.761L690.673 125H664.801ZM689.497 96.944V76.448H756.697V96.944H689.497ZM815.403 125L773.739 2.36H799.611L830.691 101.48H831.027L862.107 2.36H887.979L846.147 125H815.403ZM938.986 126.68C930.698 126.68 922.578 125.84 914.626 124.16C906.674 122.368 900.066 119.96 894.802 116.936L900.178 96.272C903.986 98.176 908.186 99.912 912.778 101.48C917.37 102.936 922.074 104.112 926.89 105.008C931.706 105.792 936.242 106.184 940.498 106.184C947.89 106.184 953.546 104.896 957.466 102.32C961.386 99.744 963.346 95.992 963.346 91.064C963.346 88.376 962.73 86.136 961.498 84.344C960.266 82.44 958.418 80.816 955.954 79.472C953.49 78.016 950.354 76.672 946.546 75.44C942.738 74.208 938.258 72.92 933.106 71.576C927.17 69.896 921.85 67.992 917.146 65.864C912.442 63.736 908.41 61.216 905.05 58.304C901.802 55.392 899.282 52.032 897.49 48.224C895.81 44.304 894.97 39.824 894.97 34.784C894.97 23.808 899.17 15.408 907.57 9.58399C915.97 3.648 927.842 0.679998 943.186 0.679998C950.802 0.679998 958.362 1.408 965.866 2.86399C973.482 4.20799 980.034 6.112 985.522 8.576L979.978 29.24C974.602 26.664 968.666 24.704 962.17 23.36C955.674 21.904 949.234 21.176 942.85 21.176C935.234 21.176 929.466 22.352 925.546 24.704C921.626 26.944 919.666 30.304 919.666 34.784C919.666 37.472 920.226 39.768 921.346 41.672C922.466 43.464 924.146 45.032 926.386 46.376C928.738 47.72 931.65 49.008 935.122 50.24C938.706 51.472 942.962 52.816 947.89 54.272C954.274 56.064 959.93 58.08 964.858 60.32C969.898 62.448 974.098 64.968 977.458 67.88C980.93 70.68 983.562 73.984 985.354 77.792C987.146 81.6 988.042 86.08 988.042 91.232C988.042 102.432 983.73 111.168 975.106 117.44C966.594 123.6 954.554 126.68 938.986 126.68ZM1055.2 125V2.36H1084.77L1116.02 74.264H1116.35L1147.6 2.36H1177.17V125H1153.65V39.32H1153.31L1127.11 98.96H1105.27L1079.06 39.32H1078.72V125H1055.2ZM1191.93 125L1234.27 2.36H1266.02L1308.36 125H1282.49L1250.23 22.352H1249.89L1217.81 125H1191.93ZM1216.63 96.944V76.448H1283.83V96.944H1216.63ZM1342.54 125L1300.87 2.36H1326.74L1357.82 101.48H1358.16L1389.24 2.36H1415.11L1373.28 125H1342.54ZM1466.12 126.68C1457.83 126.68 1449.71 125.84 1441.76 124.16C1433.81 122.368 1427.2 119.96 1421.94 116.936L1427.31 96.272C1431.12 98.176 1435.32 99.912 1439.91 101.48C1444.5 102.936 1449.21 104.112 1454.02 105.008C1458.84 105.792 1463.38 106.184 1467.63 106.184C1475.02 106.184 1480.68 104.896 1484.6 102.32C1488.52 99.744 1490.48 95.992 1490.48 91.064C1490.48 88.376 1489.86 86.136 1488.63 84.344C1487.4 82.44 1485.55 80.816 1483.09 79.472C1480.62 78.016 1477.49 76.672 1473.68 75.44C1469.87 74.208 1465.39 72.92 1460.24 71.576C1454.3 69.896 1448.98 67.992 1444.28 65.864C1439.58 63.736 1435.54 61.216 1432.18 58.304C1428.94 55.392 1426.42 52.032 1424.62 48.224C1422.94 44.304 1422.1 39.824 1422.1 34.784C1422.1 23.808 1426.3 15.408 1434.7 9.58399C1443.1 3.648 1454.98 0.679998 1470.32 0.679998C1477.94 0.679998 1485.5 1.408 1493 2.86399C1500.62 4.20799 1507.17 6.112 1512.66 8.576L1507.11 29.24C1501.74 26.664 1495.8 24.704 1489.3 23.36C1482.81 21.904 1476.37 21.176 1469.98 21.176C1462.37 21.176 1456.6 22.352 1452.68 24.704C1448.76 26.944 1446.8 30.304 1446.8 34.784C1446.8 37.472 1447.36 39.768 1448.48 41.672C1449.6 43.464 1451.28 45.032 1453.52 46.376C1455.87 47.72 1458.78 49.008 1462.26 50.24C1465.84 51.472 1470.1 52.816 1475.02 54.272C1481.41 56.064 1487.06 58.08 1491.99 60.32C1497.03 62.448 1501.23 64.968 1504.59 67.88C1508.06 70.68 1510.7 73.984 1512.49 77.792C1514.28 81.6 1515.18 86.08 1515.18 91.232C1515.18 102.432 1510.86 111.168 1502.24 117.44C1493.73 123.6 1481.69 126.68 1466.12 126.68ZM1582.33 125V2.36H1611.9L1643.15 74.264H1643.49L1674.73 2.36H1704.3V125H1680.78V39.32H1680.45L1654.24 98.96H1632.4L1606.19 39.32H1605.85V125H1582.33ZM1719.07 125L1761.4 2.36H1793.15L1835.49 125H1809.62L1777.36 22.352H1777.03L1744.94 125H1719.07ZM1743.76 96.944V76.448H1810.96V96.944H1743.76ZM1869.67 125L1828 2.36H1853.88L1884.96 101.48H1885.29L1916.37 2.36H1942.24L1900.41 125H1869.67ZM1993.25 126.68C1984.96 126.68 1976.84 125.84 1968.89 124.16C1960.94 122.368 1954.33 119.96 1949.07 116.936L1954.44 96.272C1958.25 98.176 1962.45 99.912 1967.04 101.48C1971.64 102.936 1976.34 104.112 1981.16 105.008C1985.97 105.792 1990.51 106.184 1994.76 106.184C2002.16 106.184 2007.81 104.896 2011.73 102.32C2015.65 99.744 2017.61 95.992 2017.61 91.064C2017.61 88.376 2017 86.136 2015.76 84.344C2014.53 82.44 2012.68 80.816 2010.22 79.472C2007.76 78.016 2004.62 76.672 2000.81 75.44C1997 74.208 1992.52 72.92 1987.37 71.576C1981.44 69.896 1976.12 67.992 1971.41 65.864C1966.71 63.736 1962.68 61.216 1959.32 58.304C1956.07 55.392 1953.55 52.032 1951.76 48.224C1950.08 44.304 1949.24 39.824 1949.24 34.784C1949.24 23.808 1953.44 15.408 1961.84 9.58399C1970.24 3.648 1982.11 0.679998 1997.45 0.679998C2005.07 0.679998 2012.63 1.408 2020.13 2.86399C2027.75 4.20799 2034.3 6.112 2039.79 8.576L2034.24 29.24C2028.87 26.664 2022.93 24.704 2016.44 23.36C2009.94 21.904 2003.5 21.176 1997.12 21.176C1989.5 21.176 1983.73 22.352 1979.81 24.704C1975.89 26.944 1973.93 30.304 1973.93 34.784C1973.93 37.472 1974.49 39.768 1975.61 41.672C1976.73 43.464 1978.41 45.032 1980.65 46.376C1983 47.72 1985.92 49.008 1989.39 50.24C1992.97 51.472 1997.23 52.816 2002.16 54.272C2008.54 56.064 2014.2 58.08 2019.12 60.32C2024.16 62.448 2028.36 64.968 2031.72 67.88C2035.2 70.68 2037.83 73.984 2039.62 77.792C2041.41 81.6 2042.31 86.08 2042.31 91.232C2042.31 102.432 2038 111.168 2029.37 117.44C2020.86 123.6 2008.82 126.68 1993.25 126.68Z"/>
</mask>
<path d="M0.936001 125H-1.064V127H0.936001V125ZM0.936001 2.36V0.359997H-1.064V2.36H0.936001ZM30.504 2.36L32.3383 1.56286L31.8155 0.359997H30.504V2.36ZM61.752 74.264L59.9177 75.0611L60.4405 76.264H61.752V74.264ZM62.088 74.264V76.264H63.3995L63.9223 75.0611L62.088 74.264ZM93.336 2.36V0.359997H92.0245L91.5017 1.56286L93.336 2.36ZM122.904 2.36H124.904V0.359997H122.904V2.36ZM122.904 125V127H124.904V125H122.904ZM99.384 125H97.384V127H99.384V125ZM99.384 39.32H101.384V37.32H99.384V39.32ZM99.048 39.32V37.32H97.7423L97.217 38.5154L99.048 39.32ZM72.84 98.96V100.96H74.1457L74.671 99.7646L72.84 98.96ZM51 98.96L49.169 99.7646L49.6943 100.96H51V98.96ZM24.792 39.32L26.623 38.5154L26.0977 37.32H24.792V39.32ZM24.456 39.32V37.32H22.456V39.32H24.456ZM24.456 125V127H26.456V125H24.456ZM2.936 125V2.36H-1.064V125H2.936ZM0.936001 4.36H30.504V0.359997H0.936001V4.36ZM28.6697 3.15714L59.9177 75.0611L63.5863 73.4669L32.3383 1.56286L28.6697 3.15714ZM61.752 76.264H62.088V72.264H61.752V76.264ZM63.9223 75.0611L95.1703 3.15714L91.5017 1.56286L60.2537 73.4669L63.9223 75.0611ZM93.336 4.36H122.904V0.359997H93.336V4.36ZM120.904 2.36V125H124.904V2.36H120.904ZM122.904 123H99.384V127H122.904V123ZM101.384 125V39.32H97.384V125H101.384ZM99.384 37.32H99.048V41.32H99.384V37.32ZM97.217 38.5154L71.009 98.1554L74.671 99.7646L100.879 40.1246L97.217 38.5154ZM72.84 96.96H51V100.96H72.84V96.96ZM52.831 98.1554L26.623 38.5154L22.961 40.1246L49.169 99.7646L52.831 98.1554ZM24.792 37.32H24.456V41.32H24.792V37.32ZM22.456 39.32V125H26.456V39.32H22.456ZM24.456 123H0.936001V127H24.456V123ZM137.668 125L135.778 124.347L134.862 127H137.668V125ZM180.004 2.36V0.359997H178.579L178.114 1.70738L180.004 2.36ZM211.756 2.36L213.647 1.70738L213.182 0.359997H211.756V2.36ZM254.092 125V127H256.899L255.983 124.347L254.092 125ZM228.22 125L226.312 125.6L226.752 127H228.22V125ZM195.964 22.352L197.872 21.7524L197.432 20.352H195.964V22.352ZM195.628 22.352V20.352H194.158L193.719 21.7553L195.628 22.352ZM163.54 125V127H165.011L165.449 125.597L163.54 125ZM162.364 96.944H160.364V98.944H162.364V96.944ZM162.364 76.448V74.448H160.364V76.448H162.364ZM229.564 76.448H231.564V74.448H229.564V76.448ZM229.564 96.944V98.944H231.564V96.944H229.564ZM139.559 125.653L181.895 3.01262L178.114 1.70738L135.778 124.347L139.559 125.653ZM180.004 4.36H211.756V0.359997H180.004V4.36ZM209.866 3.01262L252.202 125.653L255.983 124.347L213.647 1.70738L209.866 3.01262ZM254.092 123H228.22V127H254.092V123ZM230.128 124.4L197.872 21.7524L194.056 22.9516L226.312 125.6L230.128 124.4ZM195.964 20.352H195.628V24.352H195.964V20.352ZM193.719 21.7553L161.631 124.403L165.449 125.597L197.537 22.9487L193.719 21.7553ZM163.54 123H137.668V127H163.54V123ZM164.364 96.944V76.448H160.364V96.944H164.364ZM162.364 78.448H229.564V74.448H162.364V78.448ZM227.564 76.448V96.944H231.564V76.448H227.564ZM229.564 94.944H162.364V98.944H229.564V94.944ZM288.27 125L286.376 125.643L286.837 127H288.27V125ZM246.606 2.36V0.359997H243.814L244.712 3.00334L246.606 2.36ZM272.478 2.36L274.386 1.76161L273.947 0.359997H272.478V2.36ZM303.558 101.48L301.649 102.078L302.089 103.48H303.558V101.48ZM303.894 101.48V103.48H305.363L305.802 102.078L303.894 101.48ZM334.974 2.36V0.359997H333.505L333.065 1.76161L334.974 2.36ZM360.846 2.36L362.739 3.00566L363.641 0.359997H360.846V2.36ZM319.014 125V127H320.445L320.907 125.646L319.014 125ZM290.164 124.357L248.5 1.71666L244.712 3.00334L286.376 125.643L290.164 124.357ZM246.606 4.36H272.478V0.359997H246.606V4.36ZM270.569 2.95839L301.649 102.078L305.466 100.882L274.386 1.76161L270.569 2.95839ZM303.558 103.48H303.894V99.48H303.558V103.48ZM305.802 102.078L336.882 2.95839L333.065 1.76161L301.985 100.882L305.802 102.078ZM334.974 4.36H360.846V0.359997H334.974V4.36ZM358.953 1.71433L317.121 124.354L320.907 125.646L362.739 3.00566L358.953 1.71433ZM319.014 123H288.27V127H319.014V123ZM387.494 124.16L387.054 126.111L387.067 126.114L387.08 126.117L387.494 124.16ZM367.67 116.936L365.734 116.432L365.35 117.91L366.673 118.67L367.67 116.936ZM373.046 96.272L373.94 94.4831L371.732 93.379L371.11 95.7684L373.046 96.272ZM385.646 101.48L384.999 103.373L385.02 103.38L385.041 103.386L385.646 101.48ZM399.758 105.008L399.392 106.974L399.414 106.978L399.436 106.982L399.758 105.008ZM434.366 84.344L432.686 85.4305L432.702 85.454L432.717 85.4771L434.366 84.344ZM428.822 79.472L427.804 81.1938L427.834 81.2113L427.864 81.2278L428.822 79.472ZM405.974 71.576L405.429 73.5004L405.449 73.506L405.469 73.5112L405.974 71.576ZM390.014 65.864L390.838 64.0418L390.838 64.0418L390.014 65.864ZM377.918 58.304L376.582 59.7931L376.595 59.8044L376.608 59.8154L377.918 58.304ZM370.358 48.224L368.519 49.0118L368.533 49.044L368.548 49.0756L370.358 48.224ZM380.438 9.58399L381.577 11.2276L381.584 11.2225L381.592 11.2173L380.438 9.58399ZM438.734 2.86399L438.353 4.82737L438.369 4.83061L438.386 4.83356L438.734 2.86399ZM458.39 8.576L460.321 9.09425L460.763 7.44912L459.209 6.75146L458.39 8.576ZM452.846 29.24L451.981 31.0436L454.153 32.0843L454.777 29.7582L452.846 29.24ZM435.038 23.36L434.6 25.3116L434.616 25.3152L434.632 25.3185L435.038 23.36ZM398.414 24.704L399.406 26.4405L399.424 26.4299L399.442 26.419L398.414 24.704ZM394.214 41.672L392.49 42.686L392.503 42.7092L392.518 42.732L394.214 41.672ZM399.254 46.376L398.225 48.091L398.243 48.1019L398.261 48.1125L399.254 46.376ZM407.99 50.24L407.321 52.1249L407.33 52.1282L407.339 52.1314L407.99 50.24ZM420.758 54.272L420.191 56.19L420.204 56.1939L420.217 56.1976L420.758 54.272ZM437.726 60.32L436.898 62.1407L436.923 62.1519L436.948 62.1625L437.726 60.32ZM450.326 67.88L449.016 69.3914L449.042 69.4146L449.07 69.4368L450.326 67.88ZM458.221 77.792L456.412 78.6436L456.412 78.6436L458.221 77.792ZM447.974 117.44L449.146 119.06L449.15 119.057L447.974 117.44ZM411.854 124.68C403.702 124.68 395.72 123.854 387.907 122.203L387.08 126.117C395.171 127.826 403.429 128.68 411.854 128.68V124.68ZM387.933 122.209C380.114 120.447 373.708 118.099 368.666 115.202L366.673 118.67C372.159 121.821 378.969 124.289 387.054 126.111L387.933 122.209ZM369.605 117.44L374.981 96.7756L371.11 95.7684L365.734 116.432L369.605 117.44ZM372.151 98.0609C376.05 100.01 380.334 101.78 384.999 103.373L386.292 99.5873C381.773 98.0444 377.657 96.3419 373.94 94.4831L372.151 98.0609ZM385.041 103.386C389.713 104.868 394.496 106.063 399.392 106.974L400.123 103.042C395.387 102.161 390.762 101.004 386.25 99.5735L385.041 103.386ZM399.436 106.982C404.343 107.781 408.988 108.184 413.366 108.184V104.184C409.231 104.184 404.804 103.803 400.079 103.034L399.436 106.982ZM413.366 108.184C420.941 108.184 427.048 106.872 431.432 103.991L429.235 100.649C425.779 102.92 420.574 104.184 413.366 104.184V108.184ZM431.432 103.991C435.948 101.024 438.214 96.6246 438.214 91.064H434.214C434.214 95.3594 432.559 98.4643 429.235 100.649L431.432 103.991ZM438.214 91.064C438.214 88.0677 437.524 85.4078 436.014 83.2109L432.717 85.4771C433.671 86.8642 434.214 88.6842 434.214 91.064H438.214ZM436.045 83.2575C434.594 81.0149 432.467 79.1824 429.779 77.7162L427.864 81.2278C430.104 82.4496 431.673 83.8651 432.686 85.4305L436.045 83.2575ZM429.839 77.7501C427.209 76.1961 423.926 74.798 420.029 73.5371L418.798 77.3429C422.517 78.546 425.506 79.8359 427.804 81.1938L429.839 77.7501ZM420.029 73.5371C416.175 72.2901 411.656 70.9915 406.478 69.6408L405.469 73.5112C410.595 74.8485 415.036 76.1259 418.798 77.3429L420.029 73.5371ZM406.518 69.6516C400.66 67.9936 395.436 66.1218 390.838 64.0418L389.189 67.6862C393.999 69.8622 399.415 71.7984 405.429 73.5004L406.518 69.6516ZM390.838 64.0418C386.282 61.9809 382.42 59.5596 379.227 56.7926L376.608 59.8154C380.135 62.8723 384.337 65.4911 389.189 67.6862L390.838 64.0418ZM379.253 56.8149C376.196 54.0748 373.841 50.9294 372.167 47.3724L368.548 49.0756C370.458 53.1346 373.143 56.7092 376.582 59.7931L379.253 56.8149ZM372.196 47.4362C370.64 43.8061 369.838 39.6016 369.838 34.784H365.838C365.838 40.0464 366.715 44.8019 368.519 49.0118L372.196 47.4362ZM369.838 34.784C369.838 24.4067 373.761 16.6465 381.577 11.2276L379.298 7.9404C370.314 14.1694 365.838 23.2093 365.838 34.784H369.838ZM381.592 11.2173C389.525 5.61098 400.931 2.68 416.054 2.68V-1.32C400.488 -1.32 388.15 1.68501 379.283 7.95066L381.592 11.2173ZM416.054 2.68C423.541 2.68 430.974 3.39564 438.353 4.82737L439.114 0.900607C431.485 -0.579653 423.798 -1.32 416.054 -1.32V2.68ZM438.386 4.83356C445.883 6.15657 452.269 8.02018 457.57 10.4005L459.209 6.75146C453.534 4.20381 446.816 2.25941 439.081 0.894423L438.386 4.83356ZM456.458 8.05774L450.914 28.7217L454.777 29.7582L460.321 9.09425L456.458 8.05774ZM453.71 27.4364C448.172 24.783 442.08 22.7747 435.443 21.4015L434.632 25.3185C440.987 26.6333 446.767 28.545 451.981 31.0436L453.71 27.4364ZM435.475 21.4084C428.841 19.9216 422.255 19.176 415.718 19.176V23.176C421.948 23.176 428.242 23.8864 434.6 25.3116L435.475 21.4084ZM415.718 19.176C407.954 19.176 401.759 20.3645 397.385 22.989L399.442 26.419C402.908 24.3395 408.249 23.176 415.718 23.176V19.176ZM397.421 22.9675C392.884 25.5601 390.534 29.5794 390.534 34.784H394.534C394.534 31.0286 396.103 28.3278 399.406 26.4405L397.421 22.9675ZM390.534 34.784C390.534 37.7514 391.153 40.4144 392.49 42.686L395.937 40.658C395.034 39.1216 394.534 37.1926 394.534 34.784H390.534ZM392.518 42.732C393.84 44.8479 395.776 46.6221 398.225 48.091L400.282 44.661C398.251 43.4419 396.827 42.0801 395.91 40.612L392.518 42.732ZM398.261 48.1125C400.746 49.5322 403.774 50.8662 407.321 52.1249L408.658 48.3551C405.261 47.1498 402.465 45.9078 400.246 44.6395L398.261 48.1125ZM407.339 52.1314C410.959 53.3755 415.244 54.7284 420.191 56.19L421.324 52.354C416.415 50.9035 412.188 49.5685 408.64 48.3486L407.339 52.1314ZM420.217 56.1976C426.524 57.9679 432.081 59.9511 436.898 62.1407L438.553 58.4993C433.514 56.2089 427.759 54.1601 421.298 52.3464L420.217 56.1976ZM436.948 62.1625C441.837 64.2268 445.846 66.6445 449.016 69.3914L451.635 66.3686C448.085 63.2915 443.694 60.6691 438.503 58.4775L436.948 62.1625ZM449.07 69.4368C452.321 72.0584 454.756 75.1259 456.412 78.6436L460.031 76.9404C458.103 72.8421 455.274 69.3016 451.581 66.3232L449.07 69.4368ZM456.412 78.6436C458.054 82.1323 458.91 86.3098 458.91 91.232H462.91C462.91 85.8502 461.973 81.0677 460.031 76.9404L456.412 78.6436ZM458.91 91.232C458.91 101.83 454.874 109.949 446.797 115.823L449.15 119.057C458.321 112.387 462.91 103.034 462.91 91.232H458.91ZM446.801 115.82C438.759 121.64 427.193 124.68 411.854 124.68V128.68C427.65 128.68 440.164 125.56 449.146 119.06L446.801 115.82ZM528.069 125H526.069V127H528.069V125ZM528.069 2.36V0.359997H526.069V2.36H528.069ZM557.637 2.36L559.471 1.56286L558.948 0.359997H557.637V2.36ZM588.885 74.264L587.051 75.0611L587.573 76.264H588.885V74.264ZM589.221 74.264V76.264H590.532L591.055 75.0611L589.221 74.264ZM620.469 2.36V0.359997H619.157L618.635 1.56286L620.469 2.36ZM650.037 2.36H652.037V0.359997H650.037V2.36ZM650.037 125V127H652.037V125H650.037ZM626.517 125H624.517V127H626.517V125ZM626.517 39.32H628.517V37.32H626.517V39.32ZM626.181 39.32V37.32H624.875L624.35 38.5154L626.181 39.32ZM599.973 98.96V100.96H601.279L601.804 99.7646L599.973 98.96ZM578.133 98.96L576.302 99.7646L576.827 100.96H578.133V98.96ZM551.925 39.32L553.756 38.5154L553.231 37.32H551.925V39.32ZM551.589 39.32V37.32H549.589V39.32H551.589ZM551.589 125V127H553.589V125H551.589ZM530.069 125V2.36H526.069V125H530.069ZM528.069 4.36H557.637V0.359997H528.069V4.36ZM555.803 3.15714L587.051 75.0611L590.719 73.4669L559.471 1.56286L555.803 3.15714ZM588.885 76.264H589.221V72.264H588.885V76.264ZM591.055 75.0611L622.303 3.15714L618.635 1.56286L587.387 73.4669L591.055 75.0611ZM620.469 4.36H650.037V0.359997H620.469V4.36ZM648.037 2.36V125H652.037V2.36H648.037ZM650.037 123H626.517V127H650.037V123ZM628.517 125V39.32H624.517V125H628.517ZM626.517 37.32H626.181V41.32H626.517V37.32ZM624.35 38.5154L598.142 98.1554L601.804 99.7646L628.012 40.1246L624.35 38.5154ZM599.973 96.96H578.133V100.96H599.973V96.96ZM579.964 98.1554L553.756 38.5154L550.094 40.1246L576.302 99.7646L579.964 98.1554ZM551.925 37.32H551.589V41.32H551.925V37.32ZM549.589 39.32V125H553.589V39.32H549.589ZM551.589 123H528.069V127H551.589V123ZM664.801 125L662.911 124.347L661.995 127H664.801V125ZM707.137 2.36V0.359997H705.712L705.247 1.70738L707.137 2.36ZM738.889 2.36L740.78 1.70738L740.315 0.359997H738.889V2.36ZM781.225 125V127H784.031L783.116 124.347L781.225 125ZM755.353 125L753.445 125.6L753.885 127H755.353V125ZM723.097 22.352L725.005 21.7524L724.565 20.352H723.097V22.352ZM722.761 22.352V20.352H721.291L720.852 21.7553L722.761 22.352ZM690.673 125V127H692.143L692.582 125.597L690.673 125ZM689.497 96.944H687.497V98.944H689.497V96.944ZM689.497 76.448V74.448H687.497V76.448H689.497ZM756.697 76.448H758.697V74.448H756.697V76.448ZM756.697 96.944V98.944H758.697V96.944H756.697ZM666.692 125.653L709.028 3.01262L705.247 1.70738L662.911 124.347L666.692 125.653ZM707.137 4.36H738.889V0.359997H707.137V4.36ZM736.999 3.01262L779.335 125.653L783.116 124.347L740.78 1.70738L736.999 3.01262ZM781.225 123H755.353V127H781.225V123ZM757.261 124.4L725.005 21.7524L721.189 22.9516L753.445 125.6L757.261 124.4ZM723.097 20.352H722.761V24.352H723.097V20.352ZM720.852 21.7553L688.764 124.403L692.582 125.597L724.67 22.9487L720.852 21.7553ZM690.673 123H664.801V127H690.673V123ZM691.497 96.944V76.448H687.497V96.944H691.497ZM689.497 78.448H756.697V74.448H689.497V78.448ZM754.697 76.448V96.944H758.697V76.448H754.697ZM756.697 94.944H689.497V98.944H756.697V94.944ZM815.403 125L813.509 125.643L813.97 127H815.403V125ZM773.739 2.36V0.359997H770.947L771.845 3.00334L773.739 2.36ZM799.611 2.36L801.519 1.76161L801.08 0.359997H799.611V2.36ZM830.691 101.48L828.782 102.078L829.222 103.48H830.691V101.48ZM831.027 101.48V103.48H832.496L832.935 102.078L831.027 101.48ZM862.107 2.36V0.359997H860.638L860.198 1.76161L862.107 2.36ZM887.979 2.36L889.872 3.00566L890.774 0.359997H887.979V2.36ZM846.147 125V127H847.578L848.04 125.646L846.147 125ZM817.296 124.357L775.632 1.71666L771.845 3.00334L813.509 125.643L817.296 124.357ZM773.739 4.36H799.611V0.359997H773.739V4.36ZM797.702 2.95839L828.782 102.078L832.599 100.882L801.519 1.76161L797.702 2.95839ZM830.691 103.48H831.027V99.48H830.691V103.48ZM832.935 102.078L864.015 2.95839L860.198 1.76161L829.118 100.882L832.935 102.078ZM862.107 4.36H887.979V0.359997H862.107V4.36ZM886.086 1.71433L844.254 124.354L848.04 125.646L889.872 3.00566L886.086 1.71433ZM846.147 123H815.403V127H846.147V123ZM914.626 124.16L914.187 126.111L914.2 126.114L914.213 126.117L914.626 124.16ZM894.802 116.936L892.867 116.432L892.482 117.91L893.806 118.67L894.802 116.936ZM900.178 96.272L901.073 94.4831L898.864 93.379L898.243 95.7684L900.178 96.272ZM912.778 101.48L912.132 103.373L912.153 103.38L912.174 103.386L912.778 101.48ZM926.89 105.008L926.524 106.974L926.547 106.978L926.569 106.982L926.89 105.008ZM961.498 84.344L959.819 85.4305L959.834 85.454L959.85 85.4771L961.498 84.344ZM955.954 79.472L954.937 81.1938L954.966 81.2113L954.997 81.2278L955.954 79.472ZM933.106 71.576L932.562 73.5004L932.582 73.506L932.601 73.5112L933.106 71.576ZM917.146 65.864L917.971 64.0418L917.971 64.0418L917.146 65.864ZM905.05 58.304L903.715 59.7931L903.728 59.8044L903.74 59.8154L905.05 58.304ZM897.49 48.224L895.652 49.0118L895.666 49.044L895.681 49.0756L897.49 48.224ZM907.57 9.58399L908.71 11.2276L908.717 11.2225L908.725 11.2173L907.57 9.58399ZM965.866 2.86399L965.485 4.82737L965.502 4.83061L965.519 4.83356L965.866 2.86399ZM985.522 8.576L987.454 9.09425L987.895 7.44912L986.342 6.75146L985.522 8.576ZM979.978 29.24L979.114 31.0436L981.286 32.0843L981.91 29.7582L979.978 29.24ZM962.17 23.36L961.733 25.3116L961.749 25.3152L961.765 25.3185L962.17 23.36ZM925.546 24.704L926.539 26.4405L926.557 26.4299L926.575 26.419L925.546 24.704ZM921.346 41.672L919.622 42.686L919.636 42.7092L919.65 42.732L921.346 41.672ZM926.386 46.376L925.357 48.091L925.376 48.1019L925.394 48.1125L926.386 46.376ZM935.122 50.24L934.453 52.1249L934.463 52.1282L934.472 52.1314L935.122 50.24ZM947.89 54.272L947.324 56.19L947.337 56.1939L947.35 56.1976L947.89 54.272ZM964.858 60.32L964.031 62.1407L964.055 62.1519L964.08 62.1625L964.858 60.32ZM977.458 67.88L976.148 69.3914L976.175 69.4146L976.203 69.4368L977.458 67.88ZM985.354 77.792L983.545 78.6436L983.545 78.6436L985.354 77.792ZM975.106 117.44L976.279 119.06L976.283 119.057L975.106 117.44ZM938.986 124.68C930.834 124.68 922.853 123.854 915.04 122.203L914.213 126.117C922.303 127.826 930.562 128.68 938.986 128.68V124.68ZM915.066 122.209C907.247 120.447 900.841 118.099 895.799 115.202L893.806 118.67C899.292 121.821 906.102 124.289 914.187 126.111L915.066 122.209ZM896.738 117.44L902.114 96.7756L898.243 95.7684L892.867 116.432L896.738 117.44ZM899.284 98.0609C903.182 100.01 907.467 101.78 912.132 103.373L913.425 99.5873C908.906 98.0444 904.79 96.3419 901.073 94.4831L899.284 98.0609ZM912.174 103.386C916.845 104.868 921.629 106.063 926.524 106.974L927.256 103.042C922.519 102.161 917.895 101.004 913.383 99.5735L912.174 103.386ZM926.569 106.982C931.476 107.781 936.12 108.184 940.498 108.184V104.184C936.364 104.184 931.936 103.803 927.212 103.034L926.569 106.982ZM940.498 108.184C948.074 108.184 954.181 106.872 958.565 103.991L956.368 100.649C952.912 102.92 947.706 104.184 940.498 104.184V108.184ZM958.565 103.991C963.081 101.024 965.346 96.6246 965.346 91.064H961.346C961.346 95.3594 959.692 98.4643 956.368 100.649L958.565 103.991ZM965.346 91.064C965.346 88.0677 964.657 85.4078 963.146 83.2109L959.85 85.4771C960.804 86.8642 961.346 88.6842 961.346 91.064H965.346ZM963.177 83.2575C961.726 81.0149 959.6 79.1824 956.912 77.7162L954.997 81.2278C957.237 82.4496 958.806 83.8651 959.819 85.4305L963.177 83.2575ZM956.972 77.7501C954.342 76.1961 951.059 74.798 947.162 73.5371L945.931 77.3429C949.649 78.546 952.639 79.8359 954.937 81.1938L956.972 77.7501ZM947.162 73.5371C943.308 72.2901 938.789 70.9915 933.611 69.6408L932.601 73.5112C937.728 74.8485 942.169 76.1259 945.931 77.3429L947.162 73.5371ZM933.651 69.6516C927.793 67.9936 922.569 66.1218 917.971 64.0418L916.322 67.6862C921.132 69.8622 926.548 71.7984 932.562 73.5004L933.651 69.6516ZM917.971 64.0418C913.415 61.9809 909.553 59.5596 906.36 56.7926L903.74 59.8154C907.268 62.8723 911.47 65.4911 916.322 67.6862L917.971 64.0418ZM906.385 56.8149C903.329 54.0748 900.974 50.9294 899.3 47.3724L895.681 49.0756C897.591 53.1346 900.275 56.7092 903.715 59.7931L906.385 56.8149ZM899.329 47.4362C897.773 43.8061 896.97 39.6016 896.97 34.784H892.97C892.97 40.0464 893.848 44.8019 895.652 49.0118L899.329 47.4362ZM896.97 34.784C896.97 24.4067 900.894 16.6465 908.71 11.2276L906.431 7.9404C897.447 14.1694 892.97 23.2093 892.97 34.784H896.97ZM908.725 11.2173C916.658 5.61098 928.063 2.68 943.186 2.68V-1.32C927.621 -1.32 915.283 1.68501 906.416 7.95066L908.725 11.2173ZM943.186 2.68C950.674 2.68 958.106 3.39564 965.485 4.82737L966.247 0.900607C958.618 -0.579653 950.931 -1.32 943.186 -1.32V2.68ZM965.519 4.83356C973.016 6.15657 979.401 8.02018 984.703 10.4005L986.342 6.75146C980.667 4.20381 973.949 2.25941 966.214 0.894423L965.519 4.83356ZM983.591 8.05774L978.047 28.7217L981.91 29.7582L987.454 9.09425L983.591 8.05774ZM980.843 27.4364C975.305 24.783 969.213 22.7747 962.576 21.4015L961.765 25.3185C968.12 26.6333 973.9 28.545 979.114 31.0436L980.843 27.4364ZM962.608 21.4084C955.974 19.9216 949.388 19.176 942.85 19.176V23.176C949.081 23.176 955.374 23.8864 961.733 25.3116L962.608 21.4084ZM942.85 19.176C935.087 19.176 928.892 20.3645 924.517 22.989L926.575 26.419C930.041 24.3395 935.382 23.176 942.85 23.176V19.176ZM924.554 22.9675C920.017 25.5601 917.666 29.5794 917.666 34.784H921.666C921.666 31.0286 923.236 28.3278 926.539 26.4405L924.554 22.9675ZM917.666 34.784C917.666 37.7514 918.286 40.4144 919.622 42.686L923.07 40.658C922.166 39.1216 921.666 37.1926 921.666 34.784H917.666ZM919.65 42.732C920.973 44.8479 922.909 46.6221 925.357 48.091L927.415 44.661C925.383 43.4419 923.96 42.0801 923.042 40.612L919.65 42.732ZM925.394 48.1125C927.878 49.5322 930.906 50.8662 934.453 52.1249L935.791 48.3551C932.394 47.1498 929.598 45.9078 927.379 44.6395L925.394 48.1125ZM934.472 52.1314C938.091 53.3755 942.377 54.7284 947.324 56.19L948.457 52.354C943.548 50.9035 939.321 49.5685 935.772 48.3486L934.472 52.1314ZM947.35 56.1976C953.657 57.9679 959.214 59.9511 964.031 62.1407L965.686 58.4993C960.647 56.2089 954.892 54.1601 948.431 52.3464L947.35 56.1976ZM964.08 62.1625C968.97 64.2268 972.979 66.6445 976.148 69.3914L978.768 66.3686C975.218 63.2915 970.827 60.6691 965.636 58.4775L964.08 62.1625ZM976.203 69.4368C979.454 72.0584 981.889 75.1259 983.545 78.6436L987.164 76.9404C985.235 72.8421 982.407 69.3016 978.714 66.3232L976.203 69.4368ZM983.545 78.6436C985.186 82.1323 986.042 86.3098 986.042 91.232H990.042C990.042 85.8502 989.106 81.0677 987.164 76.9404L983.545 78.6436ZM986.042 91.232C986.042 101.83 982.007 109.949 973.93 115.823L976.283 119.057C985.454 112.387 990.042 103.034 990.042 91.232H986.042ZM973.934 115.82C965.892 121.64 954.326 124.68 938.986 124.68V128.68C954.782 128.68 967.297 125.56 976.279 119.06L973.934 115.82ZM1055.2 125H1053.2V127H1055.2V125ZM1055.2 2.36V0.359997H1053.2V2.36H1055.2ZM1084.77 2.36L1086.6 1.56286L1086.08 0.359997H1084.77V2.36ZM1116.02 74.264L1114.18 75.0611L1114.71 76.264H1116.02V74.264ZM1116.35 74.264V76.264H1117.67L1118.19 75.0611L1116.35 74.264ZM1147.6 2.36V0.359997H1146.29L1145.77 1.56286L1147.6 2.36ZM1177.17 2.36H1179.17V0.359997H1177.17V2.36ZM1177.17 125V127H1179.17V125H1177.17ZM1153.65 125H1151.65V127H1153.65V125ZM1153.65 39.32H1155.65V37.32H1153.65V39.32ZM1153.31 39.32V37.32H1152.01L1151.48 38.5154L1153.31 39.32ZM1127.11 98.96V100.96H1128.41L1128.94 99.7646L1127.11 98.96ZM1105.27 98.96L1103.43 99.7646L1103.96 100.96H1105.27V98.96ZM1079.06 39.32L1080.89 38.5154L1080.36 37.32H1079.06V39.32ZM1078.72 39.32V37.32H1076.72V39.32H1078.72ZM1078.72 125V127H1080.72V125H1078.72ZM1057.2 125V2.36H1053.2V125H1057.2ZM1055.2 4.36H1084.77V0.359997H1055.2V4.36ZM1082.94 3.15714L1114.18 75.0611L1117.85 73.4669L1086.6 1.56286L1082.94 3.15714ZM1116.02 76.264H1116.35V72.264H1116.02V76.264ZM1118.19 75.0611L1149.44 3.15714L1145.77 1.56286L1114.52 73.4669L1118.19 75.0611ZM1147.6 4.36H1177.17V0.359997H1147.6V4.36ZM1175.17 2.36V125H1179.17V2.36H1175.17ZM1177.17 123H1153.65V127H1177.17V123ZM1155.65 125V39.32H1151.65V125H1155.65ZM1153.65 37.32H1153.31V41.32H1153.65V37.32ZM1151.48 38.5154L1125.27 98.1554L1128.94 99.7646L1155.14 40.1246L1151.48 38.5154ZM1127.11 96.96H1105.27V100.96H1127.11V96.96ZM1107.1 98.1554L1080.89 38.5154L1077.23 40.1246L1103.43 99.7646L1107.1 98.1554ZM1079.06 37.32H1078.72V41.32H1079.06V37.32ZM1076.72 39.32V125H1080.72V39.32H1076.72ZM1078.72 123H1055.2V127H1078.72V123ZM1191.93 125L1190.04 124.347L1189.13 127H1191.93V125ZM1234.27 2.36V0.359997H1232.84L1232.38 1.70738L1234.27 2.36ZM1266.02 2.36L1267.91 1.70738L1267.45 0.359997H1266.02V2.36ZM1308.36 125V127H1311.16L1310.25 124.347L1308.36 125ZM1282.49 125L1280.58 125.6L1281.02 127H1282.49V125ZM1250.23 22.352L1252.14 21.7524L1251.7 20.352H1250.23V22.352ZM1249.89 22.352V20.352H1248.42L1247.99 21.7553L1249.89 22.352ZM1217.81 125V127H1219.28L1219.71 125.597L1217.81 125ZM1216.63 96.944H1214.63V98.944H1216.63V96.944ZM1216.63 76.448V74.448H1214.63V76.448H1216.63ZM1283.83 76.448H1285.83V74.448H1283.83V76.448ZM1283.83 96.944V98.944H1285.83V96.944H1283.83ZM1193.82 125.653L1236.16 3.01262L1232.38 1.70738L1190.04 124.347L1193.82 125.653ZM1234.27 4.36H1266.02V0.359997H1234.27V4.36ZM1264.13 3.01262L1306.47 125.653L1310.25 124.347L1267.91 1.70738L1264.13 3.01262ZM1308.36 123H1282.49V127H1308.36V123ZM1284.39 124.4L1252.14 21.7524L1248.32 22.9516L1280.58 125.6L1284.39 124.4ZM1250.23 20.352H1249.89V24.352H1250.23V20.352ZM1247.99 21.7553L1215.9 124.403L1219.71 125.597L1251.8 22.9487L1247.99 21.7553ZM1217.81 123H1191.93V127H1217.81V123ZM1218.63 96.944V76.448H1214.63V96.944H1218.63ZM1216.63 78.448H1283.83V74.448H1216.63V78.448ZM1281.83 76.448V96.944H1285.83V76.448H1281.83ZM1283.83 94.944H1216.63V98.944H1283.83V94.944ZM1342.54 125L1340.64 125.643L1341.1 127H1342.54V125ZM1300.87 2.36V0.359997H1298.08L1298.98 3.00334L1300.87 2.36ZM1326.74 2.36L1328.65 1.76161L1328.21 0.359997H1326.74V2.36ZM1357.82 101.48L1355.92 102.078L1356.35 103.48H1357.82V101.48ZM1358.16 101.48V103.48H1359.63L1360.07 102.078L1358.16 101.48ZM1389.24 2.36V0.359997H1387.77L1387.33 1.76161L1389.24 2.36ZM1415.11 2.36L1417 3.00566L1417.91 0.359997H1415.11V2.36ZM1373.28 125V127H1374.71L1375.17 125.646L1373.28 125ZM1344.43 124.357L1302.77 1.71666L1298.98 3.00334L1340.64 125.643L1344.43 124.357ZM1300.87 4.36H1326.74V0.359997H1300.87V4.36ZM1324.84 2.95839L1355.92 102.078L1359.73 100.882L1328.65 1.76161L1324.84 2.95839ZM1357.82 103.48H1358.16V99.48H1357.82V103.48ZM1360.07 102.078L1391.15 2.95839L1387.33 1.76161L1356.25 100.882L1360.07 102.078ZM1389.24 4.36H1415.11V0.359997H1389.24V4.36ZM1413.22 1.71433L1371.39 124.354L1375.17 125.646L1417 3.00566L1413.22 1.71433ZM1373.28 123H1342.54V127H1373.28V123ZM1441.76 124.16L1441.32 126.111L1441.33 126.114L1441.35 126.117L1441.76 124.16ZM1421.94 116.936L1420 116.432L1419.62 117.91L1420.94 118.67L1421.94 116.936ZM1427.31 96.272L1428.21 94.4831L1426 93.379L1425.38 95.7684L1427.31 96.272ZM1439.91 101.48L1439.26 103.373L1439.29 103.38L1439.31 103.386L1439.91 101.48ZM1454.02 105.008L1453.66 106.974L1453.68 106.978L1453.7 106.982L1454.02 105.008ZM1488.63 84.344L1486.95 85.4305L1486.97 85.454L1486.98 85.4771L1488.63 84.344ZM1483.09 79.472L1482.07 81.1938L1482.1 81.2113L1482.13 81.2278L1483.09 79.472ZM1460.24 71.576L1459.69 73.5004L1459.71 73.506L1459.73 73.5112L1460.24 71.576ZM1444.28 65.864L1445.1 64.0418L1445.1 64.0418L1444.28 65.864ZM1432.18 58.304L1430.85 59.7931L1430.86 59.8044L1430.87 59.8154L1432.18 58.304ZM1424.62 48.224L1422.78 49.0118L1422.8 49.044L1422.81 49.0756L1424.62 48.224ZM1434.7 9.58399L1435.84 11.2276L1435.85 11.2225L1435.86 11.2173L1434.7 9.58399ZM1493 2.86399L1492.62 4.82737L1492.63 4.83061L1492.65 4.83356L1493 2.86399ZM1512.66 8.576L1514.59 9.09425L1515.03 7.44912L1513.47 6.75146L1512.66 8.576ZM1507.11 29.24L1506.25 31.0436L1508.42 32.0843L1509.04 29.7582L1507.11 29.24ZM1489.3 23.36L1488.87 25.3116L1488.88 25.3152L1488.9 25.3185L1489.3 23.36ZM1452.68 24.704L1453.67 26.4405L1453.69 26.4299L1453.71 26.419L1452.68 24.704ZM1448.48 41.672L1446.76 42.686L1446.77 42.7092L1446.78 42.732L1448.48 41.672ZM1453.52 46.376L1452.49 48.091L1452.51 48.1019L1452.53 48.1125L1453.52 46.376ZM1462.26 50.24L1461.59 52.1249L1461.6 52.1282L1461.6 52.1314L1462.26 50.24ZM1475.02 54.272L1474.46 56.19L1474.47 56.1939L1474.48 56.1976L1475.02 54.272ZM1491.99 60.32L1491.16 62.1407L1491.19 62.1519L1491.21 62.1625L1491.99 60.32ZM1504.59 67.88L1503.28 69.3914L1503.31 69.4146L1503.34 69.4368L1504.59 67.88ZM1512.49 77.792L1510.68 78.6436L1510.68 78.6436L1512.49 77.792ZM1502.24 117.44L1503.41 119.06L1503.42 119.057L1502.24 117.44ZM1466.12 124.68C1457.97 124.68 1449.99 123.854 1442.17 122.203L1441.35 126.117C1449.44 127.826 1457.69 128.68 1466.12 128.68V124.68ZM1442.2 122.209C1434.38 120.447 1427.97 118.099 1422.93 115.202L1420.94 118.67C1426.42 121.821 1433.23 124.289 1441.32 126.111L1442.2 122.209ZM1423.87 117.44L1429.25 96.7756L1425.38 95.7684L1420 116.432L1423.87 117.44ZM1426.42 98.0609C1430.32 100.01 1434.6 101.78 1439.26 103.373L1440.56 99.5873C1436.04 98.0444 1431.92 96.3419 1428.21 94.4831L1426.42 98.0609ZM1439.31 103.386C1443.98 104.868 1448.76 106.063 1453.66 106.974L1454.39 103.042C1449.65 102.161 1445.03 101.004 1440.52 99.5735L1439.31 103.386ZM1453.7 106.982C1458.61 107.781 1463.25 108.184 1467.63 108.184V104.184C1463.5 104.184 1459.07 103.803 1454.34 103.034L1453.7 106.982ZM1467.63 108.184C1475.21 108.184 1481.31 106.872 1485.7 103.991L1483.5 100.649C1480.04 102.92 1474.84 104.184 1467.63 104.184V108.184ZM1485.7 103.991C1490.21 101.024 1492.48 96.6246 1492.48 91.064H1488.48C1488.48 95.3594 1486.82 98.4643 1483.5 100.649L1485.7 103.991ZM1492.48 91.064C1492.48 88.0677 1491.79 85.4078 1490.28 83.2109L1486.98 85.4771C1487.94 86.8642 1488.48 88.6842 1488.48 91.064H1492.48ZM1490.31 83.2575C1488.86 81.0149 1486.73 79.1824 1484.04 77.7162L1482.13 81.2278C1484.37 82.4496 1485.94 83.8651 1486.95 85.4305L1490.31 83.2575ZM1484.1 77.7501C1481.47 76.1961 1478.19 74.798 1474.29 73.5371L1473.06 77.3429C1476.78 78.546 1479.77 79.8359 1482.07 81.1938L1484.1 77.7501ZM1474.29 73.5371C1470.44 72.2901 1465.92 70.9915 1460.74 69.6408L1459.73 73.5112C1464.86 74.8485 1469.3 76.1259 1473.06 77.3429L1474.29 73.5371ZM1460.78 69.6516C1454.93 67.9936 1449.7 66.1218 1445.1 64.0418L1443.45 67.6862C1448.26 69.8622 1453.68 71.7984 1459.69 73.5004L1460.78 69.6516ZM1445.1 64.0418C1440.55 61.9809 1436.69 59.5596 1433.49 56.7926L1430.87 59.8154C1434.4 62.8723 1438.6 65.4911 1443.45 67.6862L1445.1 64.0418ZM1433.52 56.8149C1430.46 54.0748 1428.11 50.9294 1426.43 47.3724L1422.81 49.0756C1424.72 53.1346 1427.41 56.7092 1430.85 59.7931L1433.52 56.8149ZM1426.46 47.4362C1424.91 43.8061 1424.1 39.6016 1424.1 34.784H1420.1C1420.1 40.0464 1420.98 44.8019 1422.78 49.0118L1426.46 47.4362ZM1424.1 34.784C1424.1 24.4067 1428.03 16.6465 1435.84 11.2276L1433.56 7.9404C1424.58 14.1694 1420.1 23.2093 1420.1 34.784H1424.1ZM1435.86 11.2173C1443.79 5.61098 1455.2 2.68 1470.32 2.68V-1.32C1454.75 -1.32 1442.42 1.68501 1433.55 7.95066L1435.86 11.2173ZM1470.32 2.68C1477.81 2.68 1485.24 3.39564 1492.62 4.82737L1493.38 0.900607C1485.75 -0.579653 1478.06 -1.32 1470.32 -1.32V2.68ZM1492.65 4.83356C1500.15 6.15657 1506.53 8.02018 1511.84 10.4005L1513.47 6.75146C1507.8 4.20381 1501.08 2.25941 1493.35 0.894423L1492.65 4.83356ZM1510.72 8.05774L1505.18 28.7217L1509.04 29.7582L1514.59 9.09425L1510.72 8.05774ZM1507.98 27.4364C1502.44 24.783 1496.35 22.7747 1489.71 21.4015L1488.9 25.3185C1495.25 26.6333 1501.03 28.545 1506.25 31.0436L1507.98 27.4364ZM1489.74 21.4084C1483.11 19.9216 1476.52 19.176 1469.98 19.176V23.176C1476.21 23.176 1482.51 23.8864 1488.87 25.3116L1489.74 21.4084ZM1469.98 19.176C1462.22 19.176 1456.02 20.3645 1451.65 22.989L1453.71 26.419C1457.17 24.3395 1462.51 23.176 1469.98 23.176V19.176ZM1451.69 22.9675C1447.15 25.5601 1444.8 29.5794 1444.8 34.784H1448.8C1448.8 31.0286 1450.37 28.3278 1453.67 26.4405L1451.69 22.9675ZM1444.8 34.784C1444.8 37.7514 1445.42 40.4144 1446.76 42.686L1450.2 40.658C1449.3 39.1216 1448.8 37.1926 1448.8 34.784H1444.8ZM1446.78 42.732C1448.11 44.8479 1450.04 46.6221 1452.49 48.091L1454.55 44.661C1452.52 43.4419 1451.09 42.0801 1450.18 40.612L1446.78 42.732ZM1452.53 48.1125C1455.01 49.5322 1458.04 50.8662 1461.59 52.1249L1462.92 48.3551C1459.53 47.1498 1456.73 45.9078 1454.51 44.6395L1452.53 48.1125ZM1461.6 52.1314C1465.22 53.3755 1469.51 54.7284 1474.46 56.19L1475.59 52.354C1470.68 50.9035 1466.45 49.5685 1462.91 48.3486L1461.6 52.1314ZM1474.48 56.1976C1480.79 57.9679 1486.35 59.9511 1491.16 62.1407L1492.82 58.4993C1487.78 56.2089 1482.02 54.1601 1475.56 52.3464L1474.48 56.1976ZM1491.21 62.1625C1496.1 64.2268 1500.11 66.6445 1503.28 69.3914L1505.9 66.3686C1502.35 63.2915 1497.96 60.6691 1492.77 58.4775L1491.21 62.1625ZM1503.34 69.4368C1506.59 72.0584 1509.02 75.1259 1510.68 78.6436L1514.3 76.9404C1512.37 72.8421 1509.54 69.3016 1505.85 66.3232L1503.34 69.4368ZM1510.68 78.6436C1512.32 82.1323 1513.18 86.3098 1513.18 91.232H1517.18C1517.18 85.8502 1516.24 81.0677 1514.3 76.9404L1510.68 78.6436ZM1513.18 91.232C1513.18 101.83 1509.14 109.949 1501.06 115.823L1503.42 119.057C1512.59 112.387 1517.18 103.034 1517.18 91.232H1513.18ZM1501.07 115.82C1493.02 121.64 1481.46 124.68 1466.12 124.68V128.68C1481.92 128.68 1494.43 125.56 1503.41 119.06L1501.07 115.82ZM1582.33 125H1580.33V127H1582.33V125ZM1582.33 2.36V0.359997H1580.33V2.36H1582.33ZM1611.9 2.36L1613.74 1.56286L1613.21 0.359997H1611.9V2.36ZM1643.15 74.264L1641.32 75.0611L1641.84 76.264H1643.15V74.264ZM1643.49 74.264V76.264H1644.8L1645.32 75.0611L1643.49 74.264ZM1674.73 2.36V0.359997H1673.42L1672.9 1.56286L1674.73 2.36ZM1704.3 2.36H1706.3V0.359997H1704.3V2.36ZM1704.3 125V127H1706.3V125H1704.3ZM1680.78 125H1678.78V127H1680.78V125ZM1680.78 39.32H1682.78V37.32H1680.78V39.32ZM1680.45 39.32V37.32H1679.14L1678.62 38.5154L1680.45 39.32ZM1654.24 98.96V100.96H1655.54L1656.07 99.7646L1654.24 98.96ZM1632.4 98.96L1630.57 99.7646L1631.09 100.96H1632.4V98.96ZM1606.19 39.32L1608.02 38.5154L1607.5 37.32H1606.19V39.32ZM1605.85 39.32V37.32H1603.85V39.32H1605.85ZM1605.85 125V127H1607.85V125H1605.85ZM1584.33 125V2.36H1580.33V125H1584.33ZM1582.33 4.36H1611.9V0.359997H1582.33V4.36ZM1610.07 3.15714L1641.32 75.0611L1644.98 73.4669L1613.74 1.56286L1610.07 3.15714ZM1643.15 76.264H1643.49V72.264H1643.15V76.264ZM1645.32 75.0611L1676.57 3.15714L1672.9 1.56286L1641.65 73.4669L1645.32 75.0611ZM1674.73 4.36H1704.3V0.359997H1674.73V4.36ZM1702.3 2.36V125H1706.3V2.36H1702.3ZM1704.3 123H1680.78V127H1704.3V123ZM1682.78 125V39.32H1678.78V125H1682.78ZM1680.78 37.32H1680.45V41.32H1680.78V37.32ZM1678.62 38.5154L1652.41 98.1554L1656.07 99.7646L1682.28 40.1246L1678.62 38.5154ZM1654.24 96.96H1632.4V100.96H1654.24V96.96ZM1634.23 98.1554L1608.02 38.5154L1604.36 40.1246L1630.57 99.7646L1634.23 98.1554ZM1606.19 37.32H1605.85V41.32H1606.19V37.32ZM1603.85 39.32V125H1607.85V39.32H1603.85ZM1605.85 123H1582.33V127H1605.85V123ZM1719.07 125L1717.18 124.347L1716.26 127H1719.07V125ZM1761.4 2.36V0.359997H1759.98L1759.51 1.70738L1761.4 2.36ZM1793.15 2.36L1795.05 1.70738L1794.58 0.359997H1793.15V2.36ZM1835.49 125V127H1838.3L1837.38 124.347L1835.49 125ZM1809.62 125L1807.71 125.6L1808.15 127H1809.62V125ZM1777.36 22.352L1779.27 21.7524L1778.83 20.352H1777.36V22.352ZM1777.03 22.352V20.352H1775.56L1775.12 21.7553L1777.03 22.352ZM1744.94 125V127H1746.41L1746.85 125.597L1744.94 125ZM1743.76 96.944H1741.76V98.944H1743.76V96.944ZM1743.76 76.448V74.448H1741.76V76.448H1743.76ZM1810.96 76.448H1812.96V74.448H1810.96V76.448ZM1810.96 96.944V98.944H1812.96V96.944H1810.96ZM1720.96 125.653L1763.29 3.01262L1759.51 1.70738L1717.18 124.347L1720.96 125.653ZM1761.4 4.36H1793.15V0.359997H1761.4V4.36ZM1791.26 3.01262L1833.6 125.653L1837.38 124.347L1795.05 1.70738L1791.26 3.01262ZM1835.49 123H1809.62V127H1835.49V123ZM1811.53 124.4L1779.27 21.7524L1775.45 22.9516L1807.71 125.6L1811.53 124.4ZM1777.36 20.352H1777.03V24.352H1777.36V20.352ZM1775.12 21.7553L1743.03 124.403L1746.85 125.597L1778.94 22.9487L1775.12 21.7553ZM1744.94 123H1719.07V127H1744.94V123ZM1745.76 96.944V76.448H1741.76V96.944H1745.76ZM1743.76 78.448H1810.96V74.448H1743.76V78.448ZM1808.96 76.448V96.944H1812.96V76.448H1808.96ZM1810.96 94.944H1743.76V98.944H1810.96V94.944ZM1869.67 125L1867.77 125.643L1868.24 127H1869.67V125ZM1828 2.36V0.359997H1825.21L1826.11 3.00334L1828 2.36ZM1853.88 2.36L1855.78 1.76161L1855.35 0.359997H1853.88V2.36ZM1884.96 101.48L1883.05 102.078L1883.49 103.48H1884.96V101.48ZM1885.29 101.48V103.48H1886.76L1887.2 102.078L1885.29 101.48ZM1916.37 2.36V0.359997H1914.9L1914.46 1.76161L1916.37 2.36ZM1942.24 2.36L1944.14 3.00566L1945.04 0.359997H1942.24V2.36ZM1900.41 125V127H1901.84L1902.31 125.646L1900.41 125ZM1871.56 124.357L1829.9 1.71666L1826.11 3.00334L1867.77 125.643L1871.56 124.357ZM1828 4.36H1853.88V0.359997H1828V4.36ZM1851.97 2.95839L1883.05 102.078L1886.86 100.882L1855.78 1.76161L1851.97 2.95839ZM1884.96 103.48H1885.29V99.48H1884.96V103.48ZM1887.2 102.078L1918.28 2.95839L1914.46 1.76161L1883.38 100.882L1887.2 102.078ZM1916.37 4.36H1942.24V0.359997H1916.37V4.36ZM1940.35 1.71433L1898.52 124.354L1902.31 125.646L1944.14 3.00566L1940.35 1.71433ZM1900.41 123H1869.67V127H1900.41V123ZM1968.89 124.16L1968.45 126.111L1968.47 126.114L1968.48 126.117L1968.89 124.16ZM1949.07 116.936L1947.13 116.432L1946.75 117.91L1948.07 118.67L1949.07 116.936ZM1954.44 96.272L1955.34 94.4831L1953.13 93.379L1952.51 95.7684L1954.44 96.272ZM1967.04 101.48L1966.4 103.373L1966.42 103.38L1966.44 103.386L1967.04 101.48ZM1981.16 105.008L1980.79 106.974L1980.81 106.978L1980.83 106.982L1981.16 105.008ZM2015.76 84.344L2014.08 85.4305L2014.1 85.454L2014.12 85.4771L2015.76 84.344ZM2010.22 79.472L2009.2 81.1938L2009.23 81.2113L2009.26 81.2278L2010.22 79.472ZM1987.37 71.576L1986.83 73.5004L1986.85 73.506L1986.87 73.5112L1987.37 71.576ZM1971.41 65.864L1972.24 64.0418L1972.24 64.0418L1971.41 65.864ZM1959.32 58.304L1957.98 59.7931L1957.99 59.8044L1958.01 59.8154L1959.32 58.304ZM1951.76 48.224L1949.92 49.0118L1949.93 49.044L1949.95 49.0756L1951.76 48.224ZM1961.84 9.58399L1962.98 11.2276L1962.98 11.2225L1962.99 11.2173L1961.84 9.58399ZM2020.13 2.86399L2019.75 4.82737L2019.77 4.83061L2019.78 4.83356L2020.13 2.86399ZM2039.79 8.576L2041.72 9.09425L2042.16 7.44912L2040.61 6.75146L2039.79 8.576ZM2034.24 29.24L2033.38 31.0436L2035.55 32.0843L2036.18 29.7582L2034.24 29.24ZM2016.44 23.36L2016 25.3116L2016.01 25.3152L2016.03 25.3185L2016.44 23.36ZM1979.81 24.704L1980.8 26.4405L1980.82 26.4299L1980.84 26.419L1979.81 24.704ZM1975.61 41.672L1973.89 42.686L1973.9 42.7092L1973.92 42.732L1975.61 41.672ZM1980.65 46.376L1979.62 48.091L1979.64 48.1019L1979.66 48.1125L1980.65 46.376ZM1989.39 50.24L1988.72 52.1249L1988.73 52.1282L1988.74 52.1314L1989.39 50.24ZM2002.16 54.272L2001.59 56.19L2001.6 56.1939L2001.62 56.1976L2002.16 54.272ZM2019.12 60.32L2018.3 62.1407L2018.32 62.1519L2018.35 62.1625L2019.12 60.32ZM2031.72 67.88L2030.41 69.3914L2030.44 69.4146L2030.47 69.4368L2031.72 67.88ZM2039.62 77.792L2037.81 78.6436L2037.81 78.6436L2039.62 77.792ZM2029.37 117.44L2030.54 119.06L2030.55 119.057L2029.37 117.44ZM1993.25 124.68C1985.1 124.68 1977.12 123.854 1969.31 122.203L1968.48 126.117C1976.57 127.826 1984.83 128.68 1993.25 128.68V124.68ZM1969.33 122.209C1961.51 120.447 1955.11 118.099 1950.06 115.202L1948.07 118.67C1953.56 121.821 1960.37 124.289 1968.45 126.111L1969.33 122.209ZM1951 117.44L1956.38 96.7756L1952.51 95.7684L1947.13 116.432L1951 117.44ZM1953.55 98.0609C1957.45 100.01 1961.73 101.78 1966.4 103.373L1967.69 99.5873C1963.17 98.0444 1959.06 96.3419 1955.34 94.4831L1953.55 98.0609ZM1966.44 103.386C1971.11 104.868 1975.89 106.063 1980.79 106.974L1981.52 103.042C1976.79 102.161 1972.16 101.004 1967.65 99.5735L1966.44 103.386ZM1980.83 106.982C1985.74 107.781 1990.39 108.184 1994.76 108.184V104.184C1990.63 104.184 1986.2 103.803 1981.48 103.034L1980.83 106.982ZM1994.76 108.184C2002.34 108.184 2008.45 106.872 2012.83 103.991L2010.63 100.649C2007.18 102.92 2001.97 104.184 1994.76 104.184V108.184ZM2012.83 103.991C2017.35 101.024 2019.61 96.6246 2019.61 91.064H2015.61C2015.61 95.3594 2013.96 98.4643 2010.63 100.649L2012.83 103.991ZM2019.61 91.064C2019.61 88.0677 2018.92 85.4078 2017.41 83.2109L2014.12 85.4771C2015.07 86.8642 2015.61 88.6842 2015.61 91.064H2019.61ZM2017.44 83.2575C2015.99 81.0149 2013.87 79.1824 2011.18 77.7162L2009.26 81.2278C2011.5 82.4496 2013.07 83.8651 2014.08 85.4305L2017.44 83.2575ZM2011.24 77.7501C2008.61 76.1961 2005.32 74.798 2001.43 73.5371L2000.2 77.3429C2003.92 78.546 2006.9 79.8359 2009.2 81.1938L2011.24 77.7501ZM2001.43 73.5371C1997.57 72.2901 1993.05 70.9915 1987.88 69.6408L1986.87 73.5112C1991.99 74.8485 1996.43 76.1259 2000.2 77.3429L2001.43 73.5371ZM1987.92 69.6516C1982.06 67.9936 1976.83 66.1218 1972.24 64.0418L1970.59 67.6862C1975.4 69.8622 1980.81 71.7984 1986.83 73.5004L1987.92 69.6516ZM1972.24 64.0418C1967.68 61.9809 1963.82 59.5596 1960.63 56.7926L1958.01 59.8154C1961.53 62.8723 1965.74 65.4911 1970.59 67.6862L1972.24 64.0418ZM1960.65 56.8149C1957.59 54.0748 1955.24 50.9294 1953.57 47.3724L1949.95 49.0756C1951.86 53.1346 1954.54 56.7092 1957.98 59.7931L1960.65 56.8149ZM1953.59 47.4362C1952.04 43.8061 1951.24 39.6016 1951.24 34.784H1947.24C1947.24 40.0464 1948.11 44.8019 1949.92 49.0118L1953.59 47.4362ZM1951.24 34.784C1951.24 24.4067 1955.16 16.6465 1962.98 11.2276L1960.7 7.9404C1951.71 14.1694 1947.24 23.2093 1947.24 34.784H1951.24ZM1962.99 11.2173C1970.92 5.61098 1982.33 2.68 1997.45 2.68V-1.32C1981.89 -1.32 1969.55 1.68501 1960.68 7.95066L1962.99 11.2173ZM1997.45 2.68C2004.94 2.68 2012.37 3.39564 2019.75 4.82737L2020.51 0.900607C2012.88 -0.579653 2005.2 -1.32 1997.45 -1.32V2.68ZM2019.78 4.83356C2027.28 6.15657 2033.67 8.02018 2038.97 10.4005L2040.61 6.75146C2034.93 4.20381 2028.21 2.25941 2020.48 0.894423L2019.78 4.83356ZM2037.86 8.05774L2032.31 28.7217L2036.18 29.7582L2041.72 9.09425L2037.86 8.05774ZM2035.11 27.4364C2029.57 24.783 2023.48 22.7747 2016.84 21.4015L2016.03 25.3185C2022.39 26.6333 2028.17 28.545 2033.38 31.0436L2035.11 27.4364ZM2016.87 21.4084C2010.24 19.9216 2003.65 19.176 1997.12 19.176V23.176C2003.35 23.176 2009.64 23.8864 2016 25.3116L2016.87 21.4084ZM1997.12 19.176C1989.35 19.176 1983.16 20.3645 1978.78 22.989L1980.84 26.419C1984.31 24.3395 1989.65 23.176 1997.12 23.176V19.176ZM1978.82 22.9675C1974.28 25.5601 1971.93 29.5794 1971.93 34.784H1975.93C1975.93 31.0286 1977.5 28.3278 1980.8 26.4405L1978.82 22.9675ZM1971.93 34.784C1971.93 37.7514 1972.55 40.4144 1973.89 42.686L1977.34 40.658C1976.43 39.1216 1975.93 37.1926 1975.93 34.784H1971.93ZM1973.92 42.732C1975.24 44.8479 1977.17 46.6221 1979.62 48.091L1981.68 44.661C1979.65 43.4419 1978.23 42.0801 1977.31 40.612L1973.92 42.732ZM1979.66 48.1125C1982.14 49.5322 1985.17 50.8662 1988.72 52.1249L1990.06 48.3551C1986.66 47.1498 1983.86 45.9078 1981.64 44.6395L1979.66 48.1125ZM1988.74 52.1314C1992.36 53.3755 1996.64 54.7284 2001.59 56.19L2002.72 52.354C1997.81 50.9035 1993.59 49.5685 1990.04 48.3486L1988.74 52.1314ZM2001.62 56.1976C2007.92 57.9679 2013.48 59.9511 2018.3 62.1407L2019.95 58.4993C2014.91 56.2089 2009.16 54.1601 2002.7 52.3464L2001.62 56.1976ZM2018.35 62.1625C2023.24 64.2268 2027.24 66.6445 2030.41 69.3914L2033.03 66.3686C2029.48 63.2915 2025.09 60.6691 2019.9 58.4775L2018.35 62.1625ZM2030.47 69.4368C2033.72 72.0584 2036.15 75.1259 2037.81 78.6436L2041.43 76.9404C2039.5 72.8421 2036.67 69.3016 2032.98 66.3232L2030.47 69.4368ZM2037.81 78.6436C2039.45 82.1323 2040.31 86.3098 2040.31 91.232H2044.31C2044.31 85.8502 2043.37 81.0677 2041.43 76.9404L2037.81 78.6436ZM2040.31 91.232C2040.31 101.83 2036.27 109.949 2028.2 115.823L2030.55 119.057C2039.72 112.387 2044.31 103.034 2044.31 91.232H2040.31ZM2028.2 115.82C2020.16 121.64 2008.59 124.68 1993.25 124.68V128.68C2009.05 128.68 2021.56 125.56 2030.54 119.06L2028.2 115.82Z" fill="#FFB54B" mask="url(#path-1-outside-1_1645_180)"/>
</svg>
